<svg xmlns="http://www.w3.org/2000/svg" enable-background="new 0 0 2100 2100" viewBox="-31.38 208.514 2188.56 1793.509" id="BusinessAnalysisAndAnalytics"><g id="Layer_1" fill="#000000" class="color000000 svgShape"><path fill="#ebf6ff" d="M760.3 1624.7c-199.8-13.3-385.1-122.6-502.9-300.9-76.6-115.9-126-262.4-80.9-430.1C265 564.2 533.3 586.9 631.3 533c98-54 235.8-297 586-232 311.7 57.8 357.3 265.2 438.1 612.3 49 210.5 332.8 233.2 312.2 463.2-19.2 214-351 305.1-1207.3 248.2z" class="colorebf2ff svgShape"></path><path fill="#c7e1f8" d="M1423.4 802.9s-34.8-72.5 15.6-156.2c50.4-83.6 87.7-103.4 92.9-107.9 5.2-4.5 27.3-57.9 61.7-72.2 34.4-14.3 112.1-83.6 145.6-46.1 33.5 37.5-5.5 90.4-18.6 112.1-13.1 21.7-30 30.1-44 54.1s-58.1 6-72.8 38.1c-14.7 32.1 26.6 59.4-105.8 168.5-34.4 28.4-69.6 23.2-74.6 9.6z" class="colorc7d9f8 svgShape"></path><path fill="#e0f0ff" d="M1751.8 447.1c.4 2.5.6 5.1.6 7.6-13.4-3.3-25.8-7.4-25.9-11.6-.1-4.2 12-.9 25.3 4zM1687.2 467.9c5.7-2.2 36.5 5.5 60.9 12.2-2 6.3-4.7 12.4-7.5 18.2-25.9-9.7-60.1-27.8-53.4-30.4zM1670.3 486.4c.6-1.6 34.8 21.4 56.5 36.2-2.4 3.8-4.5 7.2-6.2 10-1.5 2.5-3.1 4.8-4.7 7-19.7-17.3-46.2-51.6-45.6-53.2zM1649.7 495.2c6.7-6.7 34.8 31.9 56 56.5-4.6 4.9-9.2 9.4-13.9 14.5-19.4-24.5-46.9-66.1-42.1-71zM1681.4 579.2c-1.6 2.3-3.2 4.7-4.7 7.3-24.6-18.2-60.4-60-55.8-59.9 3.7.2 41.1 32.6 60.5 52.6zM1615.3 611.1c-1.2.8-2.3 1.7-3.4 2.6-15.1-16.1-44.5-49.6-34.7-55.6 9.7-6 29 33 38.1 53zM1633.4 604.1c-.8.2-1.6.4-2.4.5-9.4-12.8-33.9-47.7-26.4-53.8 7.9-6.5 24.2 37.3 28.8 53.3zM1600.2 639.2c-.5 5.7-.4 11.6-.9 18.2-29.8-14.5-76.1-38.8-72.3-47.4 3.9-8.7 47.3 14.4 73.2 29.2zM1593.2 685.2c-1.8 4.6-4.2 9.5-7.2 14.9-24.3-20.1-69.8-58.9-68.3-65.1 1.6-5.9 48.5 29.3 75.5 50.2zM1562.1 732.9c-6.2 7.1-13.5 14.8-21.9 23-15.2-23.2-44.4-70.2-37.4-79.9 7.2-10.2 40.9 29.6 59.3 56.9zM1487.4 801c-9.1 5.8-18.1 9.4-26.3 11.3 2.3-33.6 7.3-80.9 18-84.6 12.6-4.3 10.2 47.4 8.3 73.3zM1461.5 665.3c-.2 18.8-30.1 38.1-47.4 47.7 1.4-8.6 3.6-17.5 6.6-26.7 20.2-19.1 41-35.5 40.8-21zM1459.3 615.2c1.9-2.8 3.8-5.5 5.7-8.1 32.3-9.4 37-13.6 34.8-5.3-1.6 6.2-21.9 7.9-40.5 13.4zM1512.2 554c18.2-2.3 34.6-3.5 27.2.8-11.4 6.5-25 8.2-36.8 8.1 3.5-3.4 6.7-6.4 9.6-8.9zM1540.1 525.6c19.7-2.6 39.4-4.3 31.3.3-11.2 6.4-24.5 8.2-36.2 8.1 1.4-2.3 3-5.1 4.9-8.4zM1572.6 480.9c7.4 4.1 14.6 9.6 11.3 14.4-3.6 5.4-12-.9-18.4-7 2.3-2.6 4.7-5.1 7.1-7.4zM1598.9 464.1c4.9-2.4 10.3-5.6 16.3-9.3 4.5 8.1 8.2 18.7 1.9 22-5.9 3.2-13.1-5.2-18.2-12.7zM1679.2 418.2c4.7-2 9.4-3.8 13.9-5.2-3.2 11.9-7.4 23-10.1 24.2-3.1 1.4-4.7-7.7-3.8-19zM1640.7 461.5c-3.3-2.1 1.6-15 7.1-26.8 2.7-1.6 5.4-3.2 8.2-4.8-3.8 20.5-10.2 34.8-15.3 31.6z" class="colore0eaff svgShape"></path><linearGradient id="SVGID_1_" x1="577.996" x2="577.996" y1="846.847" y2="316.14" gradientTransform="scale(-1 1) rotate(-20.218 -310.934 6613.159)" gradientUnits="userSpaceOnUse"><stop offset="0" stop-color="#629ed2" class="stopColor628cd2 svgShape"></stop><stop offset="1" stop-color="#a7d6ff" stop-opacity=".5" class="stopColora7c1ff svgShape"></stop></linearGradient><path fill="url(#SVGID_1_)" d="M1406.1 871.5c.2.1.3.1.5.1 1.9.4 3.7-.8 4-2.7 35-178.7 118.9-288.6 183.2-349.2 69.5-65.6 131.3-89.4 132-89.6 1.8-.7 2.7-2.6 2-4.4-.7-1.8-2.6-2.7-4.4-2-.6.2-63.8 24.4-134.3 91-65 61.4-149.9 172.4-185.2 352.9-.3 1.7.6 3.4 2.2 3.9z"></path><path fill="#95c5ef" d="M1577.4 744.5c1-.9 1.1-2.4.3-3.5-68.3-87.8-67.1-155.9-54-197.5 13.1-41.9 43.6-71.1 66.9-78.4 1.4-.4 2.1-1.9 1.7-3.2-.4-1.4-1.9-2.1-3.2-1.7-23.8 7.4-56 36.2-70.3 81.7-13.4 42.9-14.8 112.7 54.8 202.3.9 1.1 2.5 1.3 3.6.5.1-.1.2-.1.2-.2z" class="color95baef svgShape"></path><path fill="#95c5ef" d="M1666.7 431s-86.8 21.2-88.1 34.9c-1.2 14 88.1-34.9 88.1-34.9z" class="color95baef svgShape"></path><path fill="#95c5ef" d="M1634.3 400s-64.7 67.6-60.6 68.8c4.3 1.3 36.9-35 60.6-68.8zM1598.9 393.9s-3.4 24.6-16.2 49.8c-12.9 25.3-19.8 35.5-19.8 35.5s3.6-24.3 11.4-40.6c7.7-16.2 24.6-44.7 24.6-44.7zM1565.6 393.9s-1.5 38.3-5 54.1c-3.5 15.8-7.4 40.4-7.4 40.4s-1.5-26.5 0-41.3c1.4-14.8 12.4-53.2 12.4-53.2zM1534.1 399.5s8.9 32.5 9.9 50.5c1.1 18-1.4 43.6-1.4 43.6s-7.8-27.6-9-42.6.5-51.5.5-51.5zM1509.1 412.5s18.5 40.2 21.9 55.6c3.4 15.4 3.4 38.1 3.4 38.1s-10-16.8-13.4-35.4c-3.5-18.8-11.9-58.3-11.9-58.3zM1489.7 430.9s18.6 25.8 27.5 50.3c8.9 24.4 11.3 38.8 11.3 38.8s-16.1-25.7-21.4-42.6c-5.4-16.9-17.4-46.5-17.4-46.5zM1474.8 452.1s16.7 15.7 31.4 47.4c14.7 31.8 14.6 36.6 14.6 36.6s-23.3-27.7-27.2-38c-3.9-10.2-18.8-46-18.8-46zM1460.9 473.1s25 21.4 34.3 39.3c9.3 17.9 22.4 40.5 22.4 40.5s-22-21.9-31.8-36.6c-9.8-14.8-24.9-43.2-24.9-43.2zM1445.7 495.9s23.8 10.7 42 34.9c18.3 24.2 28.2 33.8 28.2 33.8s-26.1-20.4-35.6-29.2-34.6-39.5-34.6-39.5zM1440.5 519.2s24.9 13.1 39.8 26.9c14.9 13.8 30.8 32.5 30.8 32.5s-20.4-10.3-36.3-23.2c-15.7-12.9-34.3-36.2-34.3-36.2zM1434.7 541.9s20.3 3.9 45 24.3 34.9 29.9 34.9 29.9-27.4-13.8-41.4-23.6-38.5-30.6-38.5-30.6zM1431.4 567.9s20.8 2.5 38.5 14.3c17.7 11.7 46.4 30.8 46.4 30.8s-30.3-10.7-45.7-19.4c-15.4-8.8-39.2-25.7-39.2-25.7zM1434 590s11.3-.6 40.5 13.9 44.1 26.4 44.1 26.4-28.4-10.5-46-16.6S1434 590 1434 590zM1436.1 616.6s8.3-2.5 36.3 8.3c28.1 10.8 53.6 23.3 53.6 23.3s-27.8-7.4-50.8-14.7-39.1-16.9-39.1-16.9zM1448.8 642.5s8.7-7.1 36.2 3.7c27.4 10.8 47.4 16.2 47.4 16.2s-37.1-2.8-50.4-7.4c-13.3-4.7-33.2-12.5-33.2-12.5zM1455.5 664.6s21.7-4 42.7-.7c20.9 3.3 39.6 11.1 39.6 11.1s-30.5 2.2-46.5-.2c-15.9-2.3-35.8-10.2-35.8-10.2zM1546 688.6s-12.6-5.8-38.8-7.7c-26.2-1.9-36.1 5.1-36.1 5.1s16.4 2.3 39.8 3.8c23.5 1.6 35.1-1.2 35.1-1.2zM1557.5 703.9s-26.3-8.9-42.3-3.9c-16 5.1-27.3 6.9-27.3 6.9s28.6 3.2 34.7.9c6.2-2.3 34.9-3.9 34.9-3.9zM1576.8 472.1s34.4 7.4 47.8 7.8c13.4.4 49.2-1.3 49.2-1.3s-36.3-5-51.8-6.7-45.2.2-45.2.2zM1562.8 479.2s40.3 6.8 49.4 8.3c9.1 1.5 34.5 7.6 39.4 12.2 4.9 4.5-38.1-2.1-45.4-3.5-7.3-1.5-43.4-17-43.4-17zM1554.7 486.9s14.8 1.9 39.8 12.6c25 10.7 47.6 21.4 47.6 21.4s-43.5-8.3-52.9-13.8c-9.3-5.6-34.5-20.2-34.5-20.2zM1542.3 500.7s15.6-.5 43.9 9.3c28.3 9.8 47.4 21.9 47.4 21.9s-48.7-10.8-58.1-15.9c-9.3-5.1-33.2-15.3-33.2-15.3zM1531.3 517.3c10.1-.6 32 .5 40.7 3.5 8.8 3 52.6 16.6 52.6 16.6s-37-4.6-55.7-8.6c-18.6-4-37.6-11.5-37.6-11.5zM1524.2 533s22.6-1.2 50.2 4.1 41.5 8.7 41.5 8.7-44.7-2.7-59.4-5.1c-14.8-2.4-32.3-7.7-32.3-7.7z" class="color95baef svgShape"></path><path fill="#95c5ef" d="M1517.6 552.9s18.8-6.5 43.1-4.7c24.3 1.9 53.8 4.8 53.8 4.8s-54.1 7.4-65.4 6.2-31.5-6.3-31.5-6.3zM1514.6 575.4s15.5-10 38.8-11.6c23.4-1.7 57.2-2 57.2-2s-46.3 9.8-58.5 11.3c-12.2 1.4-37.5 2.3-37.5 2.3zM1515.5 591.1s16.1-12.3 40.2-15.6c24.2-3.3 49.4-8.6 49.4-8.6s-45.5 20.9-51.6 21.3c-6.1.5-38 2.9-38 2.9zM1518.3 610.6s23.8-15 36.8-18.2 49.2-12.6 49.2-12.6-38.7 17.8-49.1 21.1-36.9 9.7-36.9 9.7zM1605 589.3s-40.4 10.5-55.5 19.4c-15.1 8.9-28.1 19-28.1 19s18.8-4.8 34.5-12.2c15.7-7.6 49.1-26.2 49.1-26.2zM1602.6 598.1s-38.3 16.8-49.3 24.2c-11 7.4-26.7 20.9-26.7 20.9s35-13.3 76-45.1zM1603.2 605.3s-31.6 19.6-54.5 37.4c-22.9 17.8-14.8 18.2-14.8 18.2s40-24.9 69.3-55.6zM1598.2 617.8s-20.1 14-33.8 24.8c-13.7 10.8-23.4 31.9-23.4 31.9s22.3-17 30-24.9 27.2-31.8 27.2-31.8zM1600 629.1s-15.3 11-29.9 28.4c-14.6 17.4-20.5 34.9-20.5 34.9s23.9-27.4 27.7-33.4c3.8-6 22.7-29.9 22.7-29.9zM1598.5 649.5s-17.4 11.1-26.8 21.8c-9.4 10.7-13.9 29.7-13.9 29.7s15.7-19.8 20-26.2c7-10.6 20.7-25.3 20.7-25.3z" class="color95baef svgShape"></path><path fill="#c7e1f8" d="M1447.5 543.4s35.3-55.6-18.5-94.6c-53.7-39.1-91.4-21.4-91.4-21.4s-1.9 129 109.9 116z" class="colorc7d9f8 svgShape"></path><linearGradient id="SVGID_2_" x1="1001.188" x2="1092.298" y1="977.481" y2="977.481" gradientTransform="scale(-1 1) rotate(.837 31695.953 -168167.035)" gradientUnits="userSpaceOnUse"><stop offset="0" stop-color="#629ed2" class="stopColor628cd2 svgShape"></stop><stop offset="1" stop-color="#a7d6ff" class="stopColora7c1ff svgShape"></stop></linearGradient><path fill="url(#SVGID_2_)" d="M1464 572.6c.2 0 .3 0 .5-.1 1-.3 1.6-1.3 1.3-2.3-13-46.3-86.4-115.3-89.6-118.2-.8-.7-2-.7-2.7.1-.7.8-.7 2 .1 2.7.8.7 75.8 71.2 88.5 116.5.3.7 1.1 1.3 1.9 1.3z"></path><path fill="#e0f0ff" d="M746 566s-59.4-27.4-35.6-89c23.8-61.6 64.8-67.2 64.8-67.2S846.5 516.6 746 566z" class="colore0eaff svgShape"></path><linearGradient id="SVGID_3_" x1="740.7" x2="759.929" y1="524.691" y2="524.691" gradientUnits="userSpaceOnUse"><stop offset="0" stop-color="#629ed2" class="stopColor628cd2 svgShape"></stop><stop offset="1" stop-color="#a7d6ff" class="stopColora7c1ff svgShape"></stop></linearGradient><path fill="url(#SVGID_3_)" d="M747.9 599.3c-.1.1-.3.2-.4.2-1 .3-2.1-.3-2.4-1.2-14.1-45.7 10.1-142.9 11.1-147.1a2 2 0 0 1 2.3-1.4 2 2 0 0 1 1.4 2.3c-.3 1-24.9 100.3-11.2 145 .3.9-.1 1.8-.8 2.2z"></path><path fill="#b5d6f4" d="M1622.9 1316.6c.1.4.3.9.5 1.3 1.4 2.6 4.6 3.6 7.2 2.2 119.1-63.7 263.8-306.8 269.9-317.2 1.5-2.5.7-5.8-1.9-7.3-2.5-1.5-5.8-.7-7.3 1.9-1.5 2.5-149.3 250.9-265.8 313.2-2.1 1.2-3.1 3.6-2.6 5.9z" class="colorb5caf4 svgShape"></path><path fill="#c7e1f8" d="M1692.9 1253.6s173.7 63 248.3-107.9c74.6-171 3.4-263.7 3.4-263.7s-355.1 72.9-251.7 371.6z" class="colorc7d9f8 svgShape"></path><path fill="#ebf6ff" d="M1946.1 884c-.9-1.3-1.4-2-1.4-2s-355.2 72.9-251.8 371.6c0 0 9.7 3.5 25.4 6.6 1 .2 2 .3 3 .5 27.1-22.7 62.8-67.2 127.2-143.5 72.2-85.5 92.8-174.8 97.6-233.2z" class="colorebf2ff svgShape"></path><path fill="#c7e1f8" d="M413.4 1042.4s101.5-100.4 5.4-207.6-184.9-87.7-184.9-87.7-65.3 270.6 179.5 295.3z" class="colorc7d9f8 svgShape"></path><path fill="#0583f2" d="M319 908.2c-61.5-82.8-76.4-139.1-80.1-161.9-3.3.4-5.1.8-5.1.8s-.6 2.4-1.4 6.9c5.3 26.9 22.8 81.1 80.4 158.8 50.8 68.5 81.8 108.6 98.2 129.4l2.4.3s1.5-1.5 4.1-4.4c-16.3-20.7-47.3-60.9-98.5-129.9z" opacity=".5" class="color628cd2 svgShape"></path><path fill="#b5d6f4" d="M470.8 1332.7s61.7-155.7-91.2-227.7c-152.9-72.1-238.7-10.1-238.7-10.1s56.7 323.5 329.9 237.8z" class="colorb5caf4 svgShape"></path><path fill="#0583f2" d="M307.3 1230.5C202.9 1169 160.6 1114.8 146 1091.7c-3.4 1.9-5.1 3.2-5.1 3.2s.5 2.9 1.7 8.1c18.2 26.7 62.2 77.5 160.1 135.2 86.3 50.9 138.2 80.2 165.4 95.2.9-.3 1.8-.5 2.7-.8 0 0 .9-2.4 2.3-6.7-26.9-14.8-78.9-44.1-165.8-95.4z" opacity=".5" class="color628cd2 svgShape"></path><linearGradient id="SVGID_4_" x1="304.612" x2="600.534" y1="675.734" y2="675.734" gradientTransform="scale(1 -1) rotate(-60.415 -318.94 -470.82)" gradientUnits="userSpaceOnUse"><stop offset="0" stop-color="#629ed2" class="stopColor628cd2 svgShape"></stop><stop offset=".413" stop-color="#85bae9" class="stopColor85a7e9 svgShape"></stop><stop offset=".777" stop-color="#9ecef9" class="stopColor9ebaf9 svgShape"></stop><stop offset="1" stop-color="#a7d6ff" class="stopColora7c1ff svgShape"></stop></linearGradient><path fill="url(#SVGID_4_)" d="M1257.5 628.9c-.9-1.6-2.9-2.3-4.7-1.5-144.5 64.3-238 39.3-291.1 7-53.3-32.4-83.2-84.4-85.3-119.1-.1-2-1.9-3.6-3.9-3.5-2 .1-3.6 1.9-3.5 3.9 2.1 35.4 30.8 89.6 88.8 124.9 54.5 33.2 150.5 59 297.9-6.5 1.9-.8 2.7-3 1.9-4.9 0-.1 0-.2-.1-.3z"></path><path fill="#c7e1f8" d="M855.4 398.4s-.4 127 18 133.5c19 6.6-18-133.5-18-133.5z" class="colorc7d9f8 svgShape"></path><path fill="#c7e1f8" d="M801.5 432.5s71.1 112.5 74.3 107.1c3.2-5.3-35.8-62.8-74.3-107.1zM780.9 479.4s32.8 13.1 63.2 39.5c30.5 26.4 42.2 39.4 42.2 39.4S854 545 834.2 528.7c-19.7-16.2-53.3-49.3-53.3-49.3zM769.6 525.3s52.3 15.2 72.9 25.4c20.6 10.2 53.2 24.1 53.2 24.1s-37.1-7-57-14.1c-19.9-7-69.1-35.4-69.1-35.4zM766.5 570.7s47.9-1.2 73.1 3.6c25.2 4.7 59.7 16.8 59.7 16.8s-40.8 1.3-61.9-2.2c-21-3.6-70.9-18.2-70.9-18.2zM776 609.7s61.7-11.8 84.2-11.2c22.5.6 53.7 8.3 53.7 8.3s-26.6 8-53.5 6.4c-27-1.6-84.4-3.5-84.4-3.5zM794.7 642.7s42-16.8 78.8-20.8 57.4-2.3 57.4-2.3-41 13.4-66.1 15c-25.2 1.6-70.1 8.1-70.1 8.1zM819 670.5s27.3-17.6 76.2-27.1c48.9-9.4 55.6-7.6 55.6-7.6s-46.3 22.7-61.8 24.5c-15.6 1.8-70 10.2-70 10.2zM843.1 696.9s38.1-27.2 66-33.9 63.6-17.1 63.6-17.1-37.7 22.8-61.4 31.4c-23.8 8.5-68.2 19.6-68.2 19.6zM869.3 725.7s22.9-29.2 62.6-46.1c39.7-16.9 56.3-27.3 56.3-27.3s-37 29-52.4 39.2c-15.4 10.1-66.5 34.2-66.5 34.2zM899.7 740.8s26.7-29.9 50.8-45.7c24.1-15.8 55.4-31.4 55.4-31.4s-21.2 24.7-44.4 42.1c-23.2 17.4-61.8 35-61.8 35zM929.1 756.5s12.3-26.7 49-53.8c36.7-27.2 53.1-37.9 53.1-37.9s-28.4 33-46.8 49.1c-18.3 16-55.3 42.6-55.3 42.6zM963.8 770s10.6-27.9 32.8-48.2c22.2-20.4 58.3-53.5 58.3-53.5s-25.1 38.2-42.4 56.5c-17.2 18.1-48.7 45.2-48.7 45.2zM995.3 773.9s3-15.8 33-51.1 51.6-51.8 51.6-51.8-24.2 35.6-38.6 57.9c-14.6 22.3-46 45-46 45zM1032.7 780.2s-.6-12.3 23.8-47.3c24.5-35 50.6-66 50.6-66s-19.8 35.9-37.7 65.1c-18 29.1-36.7 48.2-36.7 48.2zM1072.8 771.5s-6.8-14.5 17.5-48.6c24.3-34.2 38.5-59.9 38.5-59.9s-16.6 50.2-27.5 67c-10.9 16.7-28.5 41.5-28.5 41.5zM1105.6 769.8s1.9-31.4 13.6-59.1c11.7-27.8 28.9-50.9 28.9-50.9s-7.3 42.9-16.1 64.1c-8.8 21.1-26.4 45.9-26.4 45.9zM1169.7 653.1s-12.4 15.5-23.9 50.9-5.2 51.6-5.2 51.6 8.7-21.9 18.8-53.7c10.1-31.8 10.3-48.8 10.3-48.8zM1194.6 642.5s-21.3 33.2-19.8 57c1.5 23.8.2 40 .2 40s14.2-38.3 13.1-47.6c-1-9.3 6.5-49.4 6.5-49.4zM881.3 536.5s22-44.9 27.1-63.3c5.1-18.4 15-68.4 15-68.4S904 453.2 896.5 474s-15.2 62.5-15.2 62.5zM886.4 558.3s23.2-53.3 28.3-65.4c5.1-12.1 22.3-45.1 30.3-50.3 8-5.2-16 51.9-20.4 61.5-4.5 9.7-38.2 54.2-38.2 54.2zM894.2 572.1s7.6-19.8 31-50.7c23.3-30.9 45.7-58.4 45.7-58.4s-26.2 57.2-37.1 68.2c-10.8 11.2-39.6 40.9-39.6 40.9zM909.1 594s4.7-21.7 27.8-57.4c23.2-35.7 46.4-58 46.4-58s-31.5 63.6-41.8 74.7c-10.2 11.2-32.4 40.7-32.4 40.7zM928.2 614.8c2.5-14.1 11.7-44 18.8-55 7.1-11.1 40.9-66.9 40.9-66.9s-19 49.5-30.9 73.9c-11.9 24.4-28.8 48-28.8 48zM947.4 630s6-31.6 22.8-67.9c16.7-36.3 26.2-54.3 26.2-54.3s-19 60.8-27.3 80.3c-8.4 19.5-21.7 41.9-21.7 41.9zM972.6 645.9s-2.6-28.1 8.3-61.1c10.9-32.9 25-72.6 25-72.6s-8.3 77.2-13.8 92.3c-5.5 15.2-19.5 41.4-19.5 41.4zM1002.6 657.8s-8.4-24.8-2.8-57.6c5.7-32.8 16.8-79.6 16.8-79.6s-2.4 67.2-4.5 84.6c-2 17.4-9.5 52.6-9.5 52.6zM1024.7 661.9s-11.4-26.4-7.8-60.8c3.7-34.5 5-71.2 5-71.2s13.3 69.9 11.8 78.5-9 53.5-9 53.5zM1052.5 664.7s-12.6-37.9-12.5-57c.1-19.1-.5-72.3-.5-72.3s11.4 59.5 12.3 74.9c1 15.5.7 54.4.7 54.4zM1052.8 537.7s.6 59.4 7.8 83.2c7.2 23.8 16.6 45.3 16.6 45.3s-.2-27.6-5.1-51.8c-5-24.2-19.3-76.7-19.3-76.7zM1064.1 544s10 58.6 16.5 76.3c6.5 17.7 19.7 44 19.7 44s-6.3-52.7-36.2-120.3zM1074.2 545.7s16.3 50.3 33 88 20.1 26.6 20.1 26.6-20.7-63.7-53.1-114.6zM1089.7 556.9s12.5 32.6 22.7 55.2 36 43.2 36 43.2-15.8-36.6-24.1-49.9c-8.3-13.4-34.6-48.5-34.6-48.5zM1106 558.2s9.9 24.9 29 51c19 26.1 41.2 40.3 41.2 40.3s-29.7-42.3-36.6-49.6c-7.1-7.4-33.6-41.7-33.6-41.7zM1133.6 567.2s9.4 27.8 21 44.4 36.3 29.4 36.3 29.4-22-28.5-29.4-36.5c-12.2-13.3-27.9-37.3-27.9-37.3zM589.8 975s21.3-76-41.6-148.3c-63-72.3-102.3-85-108.1-88.5-5.8-3.4-36.2-51.3-71.9-59.3s-122.6-61.8-148.6-19.8 20.7 86.5 37 105.2c16.3 18.7 34.1 24 51.8 44.8 17.7 20.8 57.1-4.1 76.8 24.4 19.7 28.5-15.6 61.9 130.9 144.9 38.1 21.7 71.3 10.7 73.7-3.4z" class="colorc7d9f8 svgShape"></path><path fill="#e0f0ff" d="M211.9 687.1c.1 2.5.3 5 .7 7.5 12.4-5.4 23.7-11.6 23.1-15.7-.7-4.1-11.8 1.2-23.8 8.2zM277.9 696.2c-5.9-1.2-34.4 11.5-56.8 22.1 3 5.7 6.6 11.2 10.4 16.4 23.3-13.9 53.3-37.1 46.4-38.5zM297.3 711.2c-.9-1.5-30 26.6-48.4 44.6 2.9 3.3 5.6 6.2 7.7 8.6 1.9 2.2 3.8 4.1 5.7 6 16.1-20.1 35.9-57.7 35-59.2zM318.8 716.2c-7.6-5.4-28.2 36.7-44.6 64.1 5.2 3.9 10.5 7.6 15.9 11.7 14.7-27 34.2-71.9 28.7-75.8zM302.4 802.8c1.9 1.9 3.9 4 5.8 6.3 20.6-21.8 48.1-68.3 43.8-67.4-3.5.7-34.3 38.5-49.6 61.1zM371.8 822.3c1.3.6 2.5 1.2 3.7 2 11.8-18.2 34.6-55.5 24.1-59.7-10.5-4.1-22.5 36.9-27.8 57.7zM353.1 818.7c.8 0 1.6.1 2.4.1 6.9-14 24.7-51.8 16.4-56.5-8.8-5-17.2 40.1-18.8 56.4zM391.1 846.9c1.5 5.4 2.4 11.2 3.9 17.5 26.3-19.1 67-50.5 61.9-58.1-5.2-7.8-43.2 21.9-65.8 40.6zM405.7 890.2c2.5 4.1 5.6 8.5 9.5 13.2 20-23.6 57.5-68.9 54.9-74.5-2.5-5.5-41.9 36.5-64.4 61.3zM444 931c7.2 5.8 15.5 12 25.1 18.5 10.8-25 31-75.4 22.6-83.6-8.9-8.6-34.6 35.6-47.7 65.1zM527.7 984.1c9.8 4 19.1 6 27.4 6.5-7.9-32.1-20.8-77-31.8-78.7-13-2.1-1.9 47.5 4.4 72.2zM529.6 848.5c3.4 18.1 35.6 31.7 54 38-2.8-8-6.4-16.3-11-24.7-22.8-14.9-45.7-27.2-43-13.3zM523.2 799.8c-2.3-2.4-4.7-4.7-6.9-6.8-32.8-3.6-38.1-6.8-34.5.8 2.6 5.6 22.5 3.8 41.4 6zM461.6 749.6c-17.9.9-34.1 2.5-26.1 5.4 12.1 4.4 25.6 3.7 37 1.6-4-2.8-7.6-5.1-10.9-7zM429.9 726.9c-19.5.9-38.8 2.5-30.2 5.6 11.9 4.3 25.1 3.7 36.3 1.7-1.7-2-3.7-4.5-6.1-7.3zM390.8 689.2c-6.5 5.2-12.4 11.7-8.4 15.9 4.4 4.6 11.5-2.9 16.6-9.9-2.7-2.1-5.4-4.1-8.2-6zM362.5 677.5c-5.1-1.5-11-3.7-17.3-6.2-3 8.6-4.7 19.5 1.9 21.6 6.3 2 11.9-7.3 15.4-15.4zM277.2 646.7c-4.9-1.2-9.7-2.1-14.3-2.7 5.1 11 11.1 20.9 13.9 21.7 3.2.9 3.1-8.1.4-19zM321.7 682.1c2.9-2.6-4.1-14.2-11.4-24.7-2.9-1.1-5.8-2.2-8.7-3.2 7.1 19.1 15.7 31.8 20.1 27.9z" class="colore0eaff svgShape"></path><linearGradient id="SVGID_5_" x1="303.925" x2="303.925" y1="905.314" y2="384.439" gradientTransform="rotate(-30.209 777.768 491.324)" gradientUnits="userSpaceOnUse"><stop offset="0" stop-color="#629ed2" class="stopColor628cd2 svgShape"></stop><stop offset="1" stop-color="#a7d6ff" stop-opacity=".5" class="stopColora7c1ff svgShape"></stop></linearGradient><path fill="url(#SVGID_5_)" d="M634 1054.1c-.2.1-.3.2-.5.2-1.7.7-3.7-.2-4.4-1.9-64.2-166.8-164-258.7-236.5-306.4-78.4-51.6-142.2-64-142.8-64.1-1.8-.3-3-2.1-2.7-3.9.3-1.8 2.1-3 3.9-2.7.6.1 65.8 12.8 145.3 65.1 73.2 48.3 174.2 141.1 239.1 309.6.6 1.5 0 3.2-1.4 4.1z"></path><path fill="#b5d6f4" d="M1851.9 883.1c-23.4 14.2-63.2 22-67.9 22.3-6.3.5-7.9-6.6-5.4-10.7 2.5-4.2 14.9-4.7 38.3-19.3 12.1-7.6 20-21.6 25-33.5-10.1-19.5-24.6-43.6-25.6-61.6 0 0-18.9 5.9-37.6 7.7-3.5 20.2-13 67.4-25.1 62-10.5-4.7-6.9-40.8-3.6-63.1-7.8-.5-16.5 0-26.8 3.2-1.9 10.3-5.2 30.9-3.5 41.3 2.2 14.2 8.5 36.2 8.5 36.2s-5.4 11.7-16.5-23c-5.6-17.5-3.8-35.7-.7-49.5-14.2 6.9-31.1 19.1-52.1 40.2-1.5 1.5-2.9 3-4.3 4.5-1.3 11.5-1 25.4 5.6 35.4 13 19.8 33.4 30.3 33.4 30.3s8.8 14.3-6.1 9.3c-13.9-4.7-41.3-12.3-43.3-60.9-27.9 46 11.3 85 25.6 95.1 16.2 11.5 38.1-10.6 52.3-4.9 14.2 5.7.8 35.4 19.3 51 18.5 15.6 56.1 6.7 81.6-28.5 19.8-27.4 27.7-60.1 28.9-83.5zm-41.5-49.7c3.4-4.5 16.5-11.6 11.9 0-4.7 11.6-13.6 23-16.1 14.1-2.6-8.8.8-9.6 4.2-14.1zm7.8 99c-18.6 14.8-39.4 14.8-39 9.3.4-5.5 13.1-5.9 22-9.7 8.9-3.8 20.3-25.3 28.8-23.2 0 0 6.8 8.8-11.8 23.6z" class="colorb5caf4 svgShape"></path><path fill="#a7d6ff" d="M544 411.1c16.9.5 30.1 15.2 30.1 15.2s-14.1 14-30.9 13.5c-16.9-.5-30.1-15.2-30.1-15.2s14-13.9 30.9-13.5zM569 444.5c16.9.5 30.1 15.2 30.1 15.2s-14.1 14-30.9 13.5C551.3 472.7 538 458 538 458s14.1-14 31-13.5zM584.2 479c16.4-4.1 33.1 6.6 33.1 6.6s-9.8 17.2-26.2 21.3c-16.4 4.1-33.1-6.6-33.1-6.6s9.9-17.2 26.2-21.3zM609.1 514.1c13.1-3.3 26.6 5.3 26.6 5.3s-7.9 13.8-21 17.1c-13.1 3.3-26.6-5.3-26.6-5.3s7.9-13.8 21-17.1zM628.5 549.2c13.1-3.3 26.6 5.3 26.6 5.3s-7.9 13.8-21 17.1c-13.1 3.3-26.6-5.3-26.6-5.3s7.8-13.8 21-17.1zM583.9 380.6c.1 16.9-14.2 30.6-14.2 30.6s-14.5-13.6-14.6-30.4c-.1-16.9 14.2-30.6 14.2-30.6s14.5 13.6 14.6 30.4zM611.3 412.9c-4.4 16.3-21.8 25.8-21.8 25.8s-10.3-16.9-5.9-33.2c4.4-16.3 21.8-25.8 21.8-25.8s10.3 16.9 5.9 33.2zM637.7 448.1c-4.4 16.3-21.8 25.8-21.8 25.8s-10.3-16.9-5.9-33.2c4.4-16.3 21.8-25.8 21.8-25.8s10.3 17 5.9 33.2zM662 487.9c-9.7 13.8-29.3 16.8-29.3 16.8s-4-19.4 5.7-33.3c9.7-13.8 29.3-16.8 29.3-16.8s3.9 19.4-5.7 33.3zM680.9 526.2c-12 11.9-31.8 11.3-31.8 11.3s-.4-19.8 11.6-31.7c12-11.9 31.8-11.3 31.8-11.3s.4 19.9-11.6 31.7z" class="colora7c1ff svgShape"></path><path fill="#a7d6ff" d="M668.3 602.9c-.5.4-1.2.5-2 .4-1.7-.4-3.1-2.1-3.2-4 0-.5-1.2-37.7-42.3-102.9-41.6-66.1-78-102.1-78.4-102.4-1.4-1.4-1.7-3.5-.7-4.8 1-1.3 3-1.2 4.4.2.4.4 37.5 37 79.7 104.1 42.6 67.6 43.6 105.6 43.6 107.1 0 1-.5 1.8-1.1 2.3z" class="colora7c1ff svgShape"></path><path fill="#a7d6ff" d="M535.7 362.2c11.6 12.3 10.5 32.1 10.5 32.1s-19.8-.1-31.4-12.4c-11.6-12.3-10.5-32.1-10.5-32.1s19.9.1 31.4 12.4z" class="colora7c1ff svgShape"></path><path fill="#e0f0ff" d="M449.5 1314.7c-2-.2-3.5-1.9-3.4-3.9 2.6-166.1-60.2-246.3-113.2-284.2-53.3-38.1-115.9-45.7-150.2-33.4-2 .7-4.2-.3-4.9-2.3-.7-2 .3-4.2 2.3-4.9 35.1-12.6 99.3-7.2 157.3 34.3 54.6 39 119.1 121.2 116.5 290.6 0 2.1-1.8 3.8-3.9 3.8-.3.1-.4 0-.5 0z" class="colore0eaff svgShape"></path><path fill="#e0f0ff" d="M68.1 1019.8s122.6-52.8 136.4-37.6c14.3 15.6-136.4 37.6-136.4 37.6z" class="colore0eaff svgShape"></path><path fill="#e0f0ff" d="M78.9 953.6s138 22.4 134.2 27.7c-3.9 5.3-75.5-8.7-134.2-27.7zM115.7 914.4s26.2 26.3 64.2 44.9c38 18.6 55.5 24.6 55.5 24.6s-26.2-25.8-50.1-38.2c-23.8-12.5-69.6-31.3-69.6-31.3zM155.4 884.6s36.2 44.3 54.6 60c18.4 15.7 45.2 41.5 45.2 41.5s-22.1-33-37.1-49.3c-15-16.3-62.7-52.2-62.7-52.2zM198 862.9s18.6 46.8 33.6 69.2c14.9 22.4 40.9 50.8 40.9 50.8s-15.5-40-27.6-58.9c-12.2-18.9-46.9-61.1-46.9-61.1zM239.6 856s14 64.5 23.9 86c9.9 21.5 30.1 48.5 30.1 48.5s-3.2-29-15.8-54.4c-12.7-25.4-38.2-80.1-38.2-80.1zM279.3 860.5s1.1 47.5 12.4 84.7 21.4 56.5 21.4 56.5-3.9-45.1-12.8-70.1c-8.8-25-21-71.1-21-71.1zM316.1 872.4s-5.8 33.7 5.3 84.8c11 51.1 15.6 56.8 15.6 56.8s2.9-54.1-1.8-69.8c-4.7-15.7-19.1-71.8-19.1-71.8zM351.6 884.9s-10.6 48-5.6 77.7c5 29.7 9.7 68.5 9.7 68.5s6.5-45.9 5-72.3-9.1-73.9-9.1-73.9zM390.3 898.4s-18.8 34.1-18.8 79.5c0 45.3-3.2 65.7-3.2 65.7s12.8-47.8 16.2-66.8 5.8-78.4 5.8-78.4zM417.4 921.5s-17.9 38.1-23.3 68c-5.3 29.8-7.6 66.5-7.6 66.5s15.1-30.7 22.4-60.3c7.3-29.6 8.5-74.2 8.5-74.2zM444.7 943.5s-20.7 22.8-31.9 69.5c-11.1 46.7-14.7 67-14.7 67s20.2-41.1 28.2-65.5c7.9-24.4 18.4-71 18.4-71zM472 971.4s-22.5 21.7-33.1 51.6c-10.5 29.9-27.7 78.5-27.7 78.5s26.6-40.1 37.1-64.3c10.5-24.2 23.7-65.8 23.7-65.8zM488.8 1000.2s-14 9.4-35.8 52.9c-21.8 43.5-28.8 71.2-28.8 71.2s24.4-38 40-61.2 24.6-62.9 24.6-62.9zM510.2 1033.8s-12.2 4.4-35.9 42.5c-23.8 38.1-43 76.1-43 76.1s26.5-33.9 47.4-63.3c20.8-29.4 31.5-55.3 31.5-55.3zM518.4 1076.1s-16.8-.6-39.8 36.9c-23.1 37.5-42 61.9-42 61.9s41.7-36.7 53.4-54.2c11.7-17.3 28.4-44.6 28.4-44.6zM530.2 1108.6s-29.5 14.8-51.6 37.5c-22 22.8-37.3 48.9-37.3 48.9s38.4-24.8 55.3-42 33.6-44.4 33.6-44.4zM443.9 1218.6s9.9-18.3 39.3-44.1c29.5-25.8 47.7-26.3 47.7-26.3s-17.5 17.4-44.1 40.3-42.9 30.1-42.9 30.1zM443.9 1247.1s23.3-34.3 46.9-42.6c23.6-8.3 38.8-16.3 38.8-16.3s-31.2 29.5-40.6 32.3c-9.4 2.8-45.1 26.6-45.1 26.6zM212.4 987.9s-34.4 39.8-50 52.3c-15.7 12.5-59.9 42.7-59.9 42.7s38.8-38.7 55.8-54.5c16.9-15.9 54.1-40.5 54.1-40.5z" class="colore0eaff svgShape"></path><path fill="#e0f0ff" d="M235.4 983.8s-42 44.3-51.5 54.3c-9.5 9.9-34.4 40.1-36.1 50-1.8 9.8 43.5-36.8 51-45 7.5-8.3 36.6-59.3 36.6-59.3zM252.1 985.7s-16 15.6-36.2 50.8c-20.2 35.3-37.6 68.3-37.6 68.3s44.4-48.9 50.7-64c6.2-15 23.1-55.1 23.1-55.1zM279.3 991s-19 13.4-44 50.5c-24.9 37.1-36.9 68.8-36.9 68.8s48.5-56.7 55-71.1c6.5-14.5 25.9-48.2 25.9-48.2zM307.3 1001c-12.6 8.3-37.7 29.4-45.4 40.8-7.8 11.4-47.8 67.1-47.8 67.1s40-38.8 58.7-60.4c18.6-21.5 34.5-47.5 34.5-47.5zM329.9 1013.3s-28 18.8-56.2 50c-28.2 31.1-41.7 47.7-41.7 47.7s50.9-43.4 66.3-59.5c15.5-16.1 31.6-38.2 31.6-38.2zM355.7 1031.1s-28.2 9.1-55.6 33.2c-27.4 24.1-59.9 54.1-59.9 54.1s71.2-39.8 83.6-51.4c12.3-11.6 31.9-35.9 31.9-35.9zM379.5 1055.2s-27.4 2.1-56.8 21.1-70 49-70 49 64-30 79.9-39.2c16-9.2 46.9-30.9 46.9-30.9zM392.6 1074.8s-30.2-.2-62 17.6-66.7 34.2-66.7 34.2 73.1-16 80.8-20.9c7.6-5 47.9-30.9 47.9-30.9zM406.8 1100.5s-41.8 3.5-60.2 11.4c-18.4 8-70 29.3-70 29.3s62.2-13.5 77.5-19c15.2-5.4 52.7-21.7 52.7-21.7zM284.1 1153.1s57.7-23.9 83.7-26.8c26-2.9 50.6-2.7 50.6-2.7s-26.7 11.2-52.2 16.4c-25.4 5.3-82.1 13.1-82.1 13.1zM294.9 1161.5s60.8-14.5 80.6-15.5c19.8-1 50.6.9 50.6.9s-53.6 15.6-131.2 14.6zM300.6 1170.6s55.4-5 98.7-4.3c43.3.6 34 8.4 34 8.4s-70.1 6.2-132.7-4.1zM318 1181s36.6-1.4 62.7-.8c26.1.5 56.6 17 56.6 17s-41.9-.2-58.2-2.7c-16.4-2.6-61.1-13.5-61.1-13.5zM325.9 1196.1s28.2-.7 61.2 7c33 7.6 55.9 23.2 55.9 23.2s-53.1-11.2-63.1-14.9c-9.9-3.8-54-15.3-54-15.3zM346 1219.1s30.7-2.3 51.6 2c20.9 4.3 43.4 22.9 43.4 22.9s-36.6-9.5-47.4-13.3c-18-6.3-47.6-11.6-47.6-11.6z" class="colore0eaff svgShape"></path><path fill="#a7d6ff" d="M1908.8 1063.9c-21.2-4.4-42.2 10-42.2 10s13.4 21.7 34.6 26.1c21.2 4.4 42.2-10 42.2-10s-13.4-21.6-34.6-26.1zM1867.6 1098.1c-21.2-4.4-42.2 10-42.2 10s13.4 21.7 34.6 26.1c21.2 4.4 42.2-10 42.2-10s-13.4-21.6-34.6-26.1zM1838.2 1136.7c-19.2-10-43.3-1.7-43.3-1.7s7.1 24.5 26.3 34.5c19.2 10 43.3 1.7 43.3 1.7s-7.1-24.5-26.3-34.5zM1796.6 1173.1c-15.4-8-34.8-1.4-34.8-1.4s5.7 19.7 21.1 27.7c15.4 8 34.8 1.4 34.8 1.4s-5.7-19.6-21.1-27.7zM1762 1211.2c-15.4-8-34.8-1.4-34.8-1.4s5.7 19.7 21.1 27.7c15.4 8 34.8 1.4 34.8 1.4s-5.7-19.7-21.1-27.7zM1868 1013.9c-5.2 21 8.6 42.5 8.6 42.5s22.1-12.6 27.3-33.7c5.2-21-8.6-42.5-8.6-42.5s-22.1 12.7-27.3 33.7zM1824.1 1046c.6 21.7 19.5 38.7 19.5 38.7s18-18.1 17.4-39.7c-.6-21.7-19.5-38.7-19.5-38.7s-18 18.1-17.4 39.7zM1780.6 1082.2c.6 21.7 19.5 38.7 19.5 38.7s18-18.1 17.4-39.7c-.6-21.7-19.5-38.7-19.5-38.7s-18 18-17.4 39.7zM1738.4 1124.6c7.9 20.2 31.5 29.7 31.5 29.7s10.8-23.1 2.8-43.3c-7.9-20.2-31.5-29.7-31.5-29.7s-10.7 23.1-2.8 43.3zM1703.3 1166.8c11.4 18.4 36.4 23.6 36.4 23.6s6.4-24.7-5-43.1c-11.4-18.4-36.4-23.6-36.4-23.6s-6.4 24.7 5 43.1z" class="colora7c1ff svgShape"></path><path fill="#a7d6ff" d="M1696.2 1266.4c.6.6 1.4 1 2.4 1 2.3.1 4.6-1.7 5.1-4 .2-.6 12.8-46.7 83.6-115.9 71.7-70.1 128-104.2 128.5-104.6 2.2-1.3 3.2-3.9 2.3-5.8-.9-1.9-3.3-2.3-5.5-1-.6.3-57.9 35-130.6 106.2-73.4 71.8-86 118.9-86.5 120.8-.3 1.4 0 2.5.7 3.3z" class="colora7c1ff svgShape"></path><path fill="#a7d6ff" d="M1933.7 1005.3c-18.1 11.9-22.7 37-22.7 37s24.8 5.8 42.9-6.1c18.1-11.9 22.7-37 22.7-37s-24.8-5.8-42.9 6.1z" class="colora7c1ff svgShape"></path></g><g id="Layer_2" fill="#000000" class="color000000 svgShape"><ellipse cx="1030.9" cy="1683.3" fill="#fcfeff" opacity=".056" rx="554.9" ry="77.5" class="colorfcfdff svgShape"></ellipse><ellipse cx="1030.9" cy="1683.3" fill="#f9fcfe" opacity=".111" rx="527.7" ry="73.7" class="colorf9fbfe svgShape"></ellipse><ellipse cx="1030.9" cy="1683.3" fill="#f6fafe" opacity=".167" rx="500.4" ry="69.9" class="colorf6f9fe svgShape"></ellipse><ellipse cx="1030.9" cy="1683.3" fill="#f3f8fd" opacity=".222" rx="473.2" ry="66" class="colorf3f7fd svgShape"></ellipse><ellipse cx="1030.9" cy="1683.3" fill="#eff6fd" opacity=".278" rx="445.9" ry="62.2" class="coloreff4fd svgShape"></ellipse><ellipse cx="1030.9" cy="1683.3" fill="#ecf5fd" opacity=".333" rx="418.7" ry="58.4" class="colorecf2fd svgShape"></ellipse><ellipse cx="1030.9" cy="1683.3" fill="#e9f3fc" opacity=".389" rx="391.4" ry="54.6" class="colore9f0fc svgShape"></ellipse><ellipse cx="1030.9" cy="1683.3" fill="#e6f2fc" opacity=".444" rx="364.2" ry="50.8" class="colore6eefc svgShape"></ellipse><ellipse cx="1030.9" cy="1683.3" fill="#e3f0fc" opacity=".5" rx="336.9" ry="47" class="colore3ecfc svgShape"></ellipse><ellipse cx="1030.9" cy="1683.3" fill="#e0eefb" opacity=".556" rx="309.7" ry="43.2" class="colore0eafb svgShape"></ellipse><ellipse cx="1030.9" cy="1683.3" fill="#ddedfb" opacity=".611" rx="282.4" ry="39.4" class="colordde8fb svgShape"></ellipse><ellipse cx="1030.9" cy="1683.3" fill="#daebfa" opacity=".667" rx="255.2" ry="35.6" class="colordae6fa svgShape"></ellipse><ellipse cx="1030.9" cy="1683.3" fill="#d7eafa" opacity=".722" rx="227.9" ry="31.8" class="colord7e4fa svgShape"></ellipse><ellipse cx="1030.9" cy="1683.3" fill="#d3e8fa" opacity=".778" rx="200.7" ry="28" class="colord3e1fa svgShape"></ellipse><ellipse cx="1030.9" cy="1683.3" fill="#d0e6f9" opacity=".833" rx="173.4" ry="24.2" class="colord0dff9 svgShape"></ellipse><ellipse cx="1030.9" cy="1683.3" fill="#cde4f9" opacity=".889" rx="146.2" ry="20.4" class="colorcdddf9 svgShape"></ellipse><ellipse cx="1030.9" cy="1683.3" fill="#cae2f8" opacity=".944" rx="118.9" ry="16.6" class="colorcadbf8 svgShape"></ellipse><ellipse cx="1030.9" cy="1683.3" fill="#c7e1f8" rx="91.7" ry="12.8" class="colorc7d9f8 svgShape"></ellipse><path fill="#0583f2" d="M1510.8 1481.2H494.5c-22.2 0-37.3-16.7-33.8-37.3l146.4-858.5c3.5-20.6 24.3-37.3 46.5-37.3h1016.2c22.2 0 37.3 16.7 33.8 37.3l-146.4 858.5c-3.4 20.6-24.3 37.3-46.4 37.3z" class="color628cd2 svgShape"></path><path fill="#ffffff" d="M1481 1451.9H464.8c-22.2 0-37.3-16.7-33.8-37.3l146.4-858.5c3.5-20.6 24.3-37.3 46.5-37.3h1016.2c22.2 0 37.3 16.7 33.8 37.3l-146.4 858.5c-3.5 20.6-24.3 37.3-46.5 37.3z" class="colorffffff svgShape"></path><path fill="#a7d6ff" d="m1662.8 621.8 12.5-73.2c2.8-16.5-17.4-29.8-45.2-29.8H634c-27.8 0-52.6 13.3-55.4 29.8l-12.5 73.2h1096.7z" class="colora7c1ff svgShape"></path><path fill="#2c6aa2" d="M658.5 568.5c-1.1 6.4-7.6 11.5-14.6 11.5s-11.8-5.1-10.7-11.5c1.1-6.4 7.6-11.5 14.6-11.5s11.8 5.2 10.7 11.5zM699.9 568.5c-1.1 6.4-7.6 11.5-14.6 11.5s-11.8-5.1-10.7-11.5c1.1-6.4 7.6-11.5 14.6-11.5s11.8 5.2 10.7 11.5zM741.3 568.5c-1.1 6.4-7.6 11.5-14.6 11.5s-11.8-5.1-10.7-11.5c1.1-6.4 7.6-11.5 14.6-11.5s11.8 5.2 10.7 11.5z" class="color2c49a2 svgShape"></path><path fill="#8dc8fc" d="m1772.5 751.9 4.9-28.6c-20.9-7.7-45.4-10.7-71.6-8.1-51.2 5-96 29.8-119.9 66.3l-64.7 98.9c-15.4 23.6-43 41-75.8 47.9-32.7 6.9-64.8 1.9-88-13.5l-34.6-23c-28-18.6-66.8-25.8-106.6-19.6-39.8 6.2-76 25-99.5 51.6l-61.4 69.6c-18.3 20.7-46.6 35.1-77.6 39.4-31 4.3-60.7-2.1-81.5-17.4l-74-54.6c-11-8.1-23.9-14.2-38-18.2l-4.6 27.3c6.6 2.7 12.7 6 18.2 10l74 54.6c27.5 20.3 66.7 28.6 107.7 23 41-5.7 78.3-24.6 102.5-52l61.4-69.6c17.8-20.1 45.2-34.4 75.3-39 30.1-4.7 59.5.7 80.7 14.9l34.6 23c30.7 20.4 73.1 26.9 116.3 17.9 43.2-9.1 79.7-32.1 100.1-63.2l64.7-98.9c18.1-27.6 52-46.4 90.8-50.2 25.3-2.8 48.5 1.5 66.6 11.5z" class="color8da4fc svgShape"></path><path fill="#319eff" d="M918.1 985c-25.1 0-48.4-6.8-65.7-19.6l-74-54.6c-10.3-7.6-22.6-13.5-36.6-17.6l4.5-7.2c15 4.4 28.3 10.7 39.4 18.9l74 54.6c19.8 14.6 48.1 20.6 77.7 16.6 29.5-4.1 56.5-17.7 73.9-37.5l61.4-69.6c24.3-27.6 61.9-47.1 103.1-53.4 41.2-6.4 81.4 1 110.4 20.3l34.6 23c22.1 14.7 52.7 19.4 83.9 12.9 31.1-6.5 57.4-23.1 72.1-45.5l64.7-98.9c24.8-37.8 71.2-63.5 124.3-68.7 26.6-2.6 52.2.3 74.1 8.4l-5.1 7c-20.4-7.5-44.2-10.2-69-7.8-49.3 4.8-92.6 28.7-115.6 63.9l-64.7 98.9c-16.2 24.7-45.1 43-79.4 50.2-34.2 7.2-67.8 2-92.1-14.2l-34.6-23c-27-18-64.5-24.9-102.8-18.9-38.3 5.9-73.3 24-95.9 49.7l-61.4 69.6c-19.2 21.7-48.8 36.8-81.3 41.3-6.9.8-13.5 1.2-19.9 1.2z" class="colorffac31 svgShape"></path><path fill="#0583f2" d="M1377.8 1239.7H1037c-25.2 0-42.4-16.7-38.4-37.2l34.8-178.8c4-20.5 27.7-37.2 52.9-37.2H1427c25.2 0 42.4 16.7 38.4 37.2l-34.8 178.8c-3.9 20.5-27.6 37.2-52.8 37.2z" class="color628cd2 svgShape"></path><path fill="#c7e1f8" d="M1360.8 1218.9H1020c-25.2 0-42.4-16.7-38.4-37.2l34.8-178.8c4-20.5 27.7-37.2 52.9-37.2H1410c25.2 0 42.4 16.7 38.4 37.2l-34.8 178.8c-3.9 20.5-27.6 37.2-52.8 37.2z" class="colorc7d9f8 svgShape"></path><path fill="#319eff" d="m1126.9 1071.6-74.4-25.5c16.8-34.7 51-57 87.5-57l-13.1 82.5z" class="colorffac31 svgShape"></path><path fill="#0583f2" d="m1137 1088.6-37.9 78.5c-41.1-14.1-57.4-60.6-36.5-104l74.4 25.5z" class="color628cd2 svgShape"></path><path fill="#1a4d7a" d="m1137 1088.6 13.1-82.5c45.6 0 76.6 36.9 69.4 82.5-7.2 45.6-50 82.5-95.6 82.5-9.1 0-16.6-1.2-24.9-4l38-78.5z" class="color1a317a svgShape"></path><path fill="#ffffff" d="M1115.1 1198.7c-62 0-104.5-50.5-94.7-112.5s68.3-112.5 130.3-112.5c62 0 104.5 50.5 94.7 112.5-9.8 62-68.3 112.5-130.3 112.5zm35-221c-59.8 0-116.2 48.7-125.7 108.5s31.5 108.5 91.3 108.5 116.2-48.7 125.7-108.5c9.5-59.9-31.5-108.5-91.3-108.5z" class="colorffffff svgShape"></path><path fill="#1a4d7a" d="M1368.4 1079.5h-64.1c-3.3 0-5.5-2.7-5-5.9.5-3.3 3.6-5.9 6.9-5.9h64.1c3.3 0 5.5 2.7 5 5.9s-3.6 5.9-6.9 5.9zM1372.9 1051.1h-44.7c-3.3 0-5.5-2.7-5-5.9.5-3.3 3.6-5.9 6.9-5.9h44.7c3.3 0 5.5 2.7 5 5.9-.5 3.3-3.6 5.9-6.9 5.9zM1377.4 1022.7h-26.1c-3.3 0-5.5-2.7-5-5.9.5-3.3 3.6-5.9 6.9-5.9h26.1c3.3 0 5.5 2.7 5 5.9-.5 3.3-3.6 5.9-6.9 5.9z" class="color1a317a svgShape"></path><path fill="#0583f2" d="M767 1182.5H583.2c-16.4 0-27.6-13.3-25-29.7l27.6-174.1c2.6-16.4 18-29.7 34.4-29.7H804c16.4 0 27.6 13.3 25 29.7l-27.6 174.1c-2.6 16.4-18 29.7-34.4 29.7z" class="color628cd2 svgShape"></path><path fill="#c7e1f8" d="M760.4 1172.9H576.6c-16.4 0-27.6-13.3-25-29.7l27.6-174.1c2.6-16.4 18-29.7 34.4-29.7h183.8c16.4 0 27.6 13.3 25 29.7l-27.6 174.1c-2.6 16.4-18 29.7-34.4 29.7z" class="colorc7d9f8 svgShape"></path><path fill="#1a4d7a" d="M749.8 1013.6h15.7c6.3 0 10.6 5.1 9.6 11.4L757 1139.3h-38.4l18.1-114.2c.9-6.4 6.8-11.5 13.1-11.5z" class="color1a317a svgShape"></path><path fill="#2c6aa2" d="M703.8 1034.6h15.7c6.3 0 10.6 5.1 9.6 11.4l-14.8 93.3h-38.4l14.8-93.3c.9-6.3 6.8-11.4 13.1-11.4z" class="color2c49a2 svgShape"></path><path fill="#178ffa" d="M657.8 1055.5h15.7c6.3 0 10.6 5.1 9.6 11.4l-11.5 72.4h-38.4l11.5-72.4c.9-6.3 6.8-11.4 13.1-11.4z" class="colorfa8b17 svgShape"></path><path fill="#319eff" d="M611.7 1076.4h15.7c6.3 0 10.6 5.1 9.6 11.4l-8.1 51.4h-38.4l8.1-51.4c.9-6.3 6.8-11.4 13.1-11.4z" class="colorffac31 svgShape"></path><path fill="#2c6aa2" d="M762.3 1002.5h-.4c-2-.2-3.2-2.1-2.7-4.2l8.5-31.1-31.5 8.6c-2.1.6-4-.6-4.3-2.6-.3-2 1.3-4.1 3.4-4.7l42.9-11.7-11.6 42.4c-.5 1.9-2.4 3.3-4.3 3.3z" class="color2c49a2 svgShape"></path><path fill="#2c6aa2" d="M622.5 1047.4c-1.8 0-3.1-1.2-3.2-3-.1-2.1 1.5-4.1 3.6-4.5l9.3-1.9c48.9-10.3 96.4-36.3 133.5-73.2 1.6-1.6 4-1.8 5.4-.4 1.4 1.4 1.2 3.8-.4 5.4-38.5 38.2-87.5 65-138.1 75.7l-9.3 1.9c-.2-.1-.5 0-.8 0z" class="color2c49a2 svgShape"></path><path fill="#2c6aa2" d="M761.5 1156.1H569.4L599 968.8c.3-1.8 2-3.3 3.8-3.3s3 1.5 2.8 3.3L577 1149.5h185.5c1.8 0 3 1.5 2.8 3.3-.3 1.8-2 3.3-3.8 3.3z" class="color2c49a2 svgShape"></path><path fill="#0583f2" d="M1262.2 1408.9h-217.5c-13 0-21.9-10.5-19.8-23.5l8-50.5c2.1-13 14.3-23.5 27.3-23.5h217.5c13 0 21.9 10.5 19.8 23.5l-8 50.5c-2.1 12.9-14.3 23.5-27.3 23.5z" class="color628cd2 svgShape"></path><path fill="#a7d6ff" d="M1254.4 1398.8h-217.5c-13 0-21.9-10.5-19.8-23.5l8-50.5c2.1-13 14.3-23.5 27.3-23.5h217.5c13 0 21.9 10.5 19.8 23.5l-8 50.5c-2.1 12.9-14.3 23.5-27.3 23.5z" class="colora7c1ff svgShape"></path><path fill="#1a4d7a" d="M1178.2 1341.9h-125.8c-4 0-6.7-3.2-6-7.2l.1-.8c.6-4 4.4-7.2 8.3-7.2h125.8c4 0 6.7 3.2 6 7.2l-.1.8c-.6 3.9-4.4 7.2-8.3 7.2zM1240.4 1370.4h-192.5c-4 0-6.7-3.2-6-7.2l.1-.8c.6-4 4.4-7.2 8.3-7.2h192.5c4 0 6.7 3.2 6.1 7.2l-.1.8c-.7 4-4.5 7.2-8.4 7.2z" class="color1a317a svgShape"></path><path fill="#0583f2" d="M1416.2 672.4c-38.1 0-73.9 23.3-91.4 59.6-8.8 18.1-11.5 35.2-8.4 53.3 7.5 45.3 52.3 70.1 99.9 55.4 38.1-11.8 66.5-43.9 72.6-82 7.4-47.7-25.1-86.3-72.7-86.3zm35.3 86.2c-3.4 21.7-20.6 40.1-41.2 46.5-5 1.5-10.2 2.4-15.5 2.4-27 0-45.5-21.9-41.2-48.9.8-5.3 2.5-10.4 4.8-15.1 9.5-19.6 30.1-33.8 51.9-33.8 27 0 45.5 21.9 41.2 48.9z" class="color628cd2 svgShape"></path><path fill="#2c6aa2" d="M1381.1 797.3c-27 0-45.5-21.9-41.2-48.9.8-5.3 2.5-10.4 4.8-15.1l-33.6-11.5c-8.8 18.1-11.5 35.2-8.4 53.3 7.5 45.3 52.3 70.1 99.9 55.4l-5.9-35.5c-5.1 1.5-10.3 2.3-15.6 2.3z" class="color2c49a2 svgShape"></path><path fill="#a7d6ff" d="m1402.5 662.2-5.9 37.3c27 0 45.5 21.9 41.2 48.9-3.4 21.7-20.6 40.1-41.2 46.5l5.9 35.5c38.1-11.8 66.5-43.9 72.6-82 7.5-47.6-25-86.2-72.6-86.2z" class="colora7c1ff svgShape"></path><path fill="#178ffa" d="m1396.6 699.5 5.9-37.3c-38.1 0-73.9 23.3-91.4 59.6l33.6 11.5c9.5-19.6 30.2-33.8 51.9-33.8z" class="colorfa8b17 svgShape"></path><path fill="#0583f2" d="M913.8 1555.9H575c-23.3 0-39.1-18.9-35.4-42.1l29.4-185.7c3.7-23.3 25.5-42.1 48.8-42.1h338.7c23.3 0 39.1 18.9 35.4 42.1l-29.4 185.7c-3.7 23.2-25.5 42.1-48.7 42.1z" class="color628cd2 svgShape"></path><path fill="#0583f2" d="M938.5 1527.7H555.4l11.2-70.5c1.3-8 5.6-15.8 12.3-21.9l60.3-55.7c10.7-9.9 27.3-11.7 37.7-4.2l28.4 20.5c11.7 8.4 30.5 5 40.6-7.3l43.3-52.9c13.8-16.8 41.5-15.6 47.8 2.2l20.9 58.8c6.7 18.8 36.8 18.8 49.5 0 15.8-23.6 54.4-15.9 50.3 10l-19.2 121z" class="color628cd2 svgShape"></path><path fill="#0583f2" d="M938.5 1527.7H555.4l3.7-23.3c1-6.2 5.2-12 11.4-15.6l62.2-36.6c7.9-4.6 17.2-6.2 25.5-4.4l45.3 10.1c9.7 2.2 20.7-.4 29.2-6.8l44.5-33.8c15.2-11.6 36.8-9.6 45.1 4l28.8 47.1c8.4 13.7 29.9 15.6 45.1 4 21.6-16.5 51.7-4.5 48 19.1l-5.7 36.2z" class="color628cd2 svgShape"></path><path fill="#ebf6ff" d="M903.3 1537.8H564.5c-23.3 0-39.1-18.9-35.4-42.1l29.4-185.7c3.7-23.3 25.5-42.1 48.8-42.1H946c23.3 0 39.1 18.9 35.4 42.1L952 1495.7c-3.6 23.2-25.5 42.1-48.7 42.1z" class="colorebf2ff svgShape"></path><linearGradient id="SVGID_6_" x1="544.883" x2="947.487" y1="1407.706" y2="1407.706" gradientUnits="userSpaceOnUse"><stop offset=".003" stop-color="#2c6aa2" class="stopColor2c49a2 svgShape"></stop><stop offset=".076" stop-color="#3673a9" class="stopColor3653a9 svgShape"></stop><stop offset=".71" stop-color="#87bae7" class="stopColor87a2e7 svgShape"></stop><stop offset="1" stop-color="#a7d6ff" class="stopColora7c1ff svgShape"></stop></linearGradient><path fill="url(#SVGID_6_)" d="M928 1509.6H544.9l11.2-70.5c1.3-8 5.6-15.8 12.3-21.9l60.3-55.7c10.7-9.9 27.3-11.7 37.7-4.2l28.4 20.5c11.7 8.4 30.5 5 40.6-7.3l43.3-52.9c13.8-16.8 41.5-15.6 47.8 2.2l20.9 58.8c6.7 18.8 36.8 18.8 49.5 0 15.8-23.6 54.4-15.9 50.3 10l-19.2 121z"></path><linearGradient id="SVGID_7_" x1="544.883" x2="934.071" y1="1450.64" y2="1450.64" gradientUnits="userSpaceOnUse"><stop offset="0" stop-color="#1892ff" class="stopColorff5f18 svgShape"></stop><stop offset=".238" stop-color="#1992ff" class="stopColorff6319 svgShape"></stop><stop offset=".462" stop-color="#1d94ff" class="stopColorff6e1d svgShape"></stop><stop offset=".679" stop-color="#2397ff" class="stopColorff8123 svgShape"></stop><stop offset=".892" stop-color="#2c9bff" class="stopColorff9b2c svgShape"></stop><stop offset="1" stop-color="#319eff" class="stopColorffac31 svgShape"></stop></linearGradient><path fill="url(#SVGID_7_)" d="M928 1509.6H544.9l3.7-23.3c1-6.2 5.2-12 11.4-15.6l62.2-36.6c7.9-4.6 17.2-6.2 25.5-4.4l45.3 10.1c9.7 2.2 20.7-.4 29.2-6.8l44.5-33.8c15.2-11.6 36.8-9.6 45.1 4l28.8 47.1c8.4 13.7 29.9 15.6 45.1 4 21.6-16.5 51.7-4.5 48 19.1l-5.7 36.2z"></path><path fill="#a7d6ff" d="M663.2 1295h-66.5c-2.1 0-3.5-1.8-3.2-4.1l.1-.5c.3-2.3 2.3-4.1 4.4-4.1h66.5c2.1 0 3.5 1.8 3.2 4.1l-.1.5c-.4 2.3-2.3 4.1-4.4 4.1zM696 1311.4H594.3c-2.1 0-3.5-1.8-3.2-4.1l.1-.5c.3-2.3 2.3-4.1 4.4-4.1h101.7c2.1 0 3.5 1.8 3.2 4.1l-.1.5c-.3 2.2-2.3 4.1-4.4 4.1z" class="colora7c1ff svgShape"></path><path fill="#0583f2" d="M1249.8 735.2h-55.3c-2.8 0-4.8-2.3-4.3-5.1.4-2.8 3.1-5.1 5.9-5.1h55.3c2.8 0 4.8 2.3 4.3 5.1-.4 2.8-3 5.1-5.9 5.1zM1246 759.7h-55.3c-2.8 0-4.8-2.3-4.3-5.1.4-2.8 3.1-5.1 5.9-5.1h55.3c2.8 0 4.8 2.3 4.3 5.1s-3.1 5.1-5.9 5.1zM1242.1 784.2h-55.3c-2.8 0-4.8-2.3-4.3-5.1.4-2.8 3.1-5.1 5.9-5.1h55.3c2.8 0 4.8 2.3 4.3 5.1-.4 2.8-3.1 5.1-5.9 5.1z" class="color628cd2 svgShape"></path><ellipse cx="896.9" cy="1178.4" fill="#0583f2" rx="57.9" ry="49.4" transform="rotate(-42.735 896.906 1178.402)" class="color628cd2 svgShape"></ellipse><ellipse cx="891" cy="1172.1" fill="#2c6aa2" rx="57.9" ry="49.4" transform="rotate(-42.735 891.09 1172.098)" class="color2c49a2 svgShape"></ellipse><path fill="#178ffa" d="m882.8 1202.1-26.5-41.7c-2-3.2-1.1-8.3 2-11.4 3.2-3.1 7.4-2.9 9.5.3l17.1 26.9 41.8-60c2.6-3.7 6.9-4.8 9.7-2.4 2.7 2.4 2.9 7.4.3 11.1l-53.9 77.2z" class="colorfa8b17 svgShape"></path><path fill="#023563" d="M1126 738.5c-.1.9-1.2 1.6-2.3 1.6H922.8c-1.1 0-1.9-.7-1.8-1.6.1-.9 1.2-1.6 2.3-1.6h200.9c1.1 0 1.9.7 1.8 1.6z" class="color023e63 svgShape"></path><path fill="#0583f2" d="M1120.8 771.9H930c-15.5 0-26-12.5-23.6-28L930 595.1c2.5-15.5 17-28 32.5-28h190.8c15.5 0 26 12.5 23.6 28l-23.6 148.8c-2.5 15.5-17.1 28-32.5 28z" class="color628cd2 svgShape"></path><path fill="#ebf6ff" d="M1112.9 759.1H922.1c-15.5 0-26-12.5-23.6-28l23.6-148.8c2.5-15.5 17-28 32.5-28h190.8c15.5 0 26 12.5 23.6 28l-23.6 148.8c-2.5 15.4-17.1 28-32.5 28z" class="colorebf2ff svgShape"></path><path fill="#319eff" d="M1019.2 669.8h10c4.4 0 7.4 3.6 6.7 8l-8.2 51.5h-26l8.2-51.5c.8-4.4 4.9-8 9.3-8zM1120.1 580.6h10c4.4 0 7.4 3.6 6.7 8l-22.3 140.7h-26l22.3-140.7c.8-4.4 4.9-8 9.3-8z" class="colorffac31 svgShape"></path><path fill="#2c6aa2" d="M1004.5 580.6h10c4.4 0 7.4 3.6 6.7 8l-22.3 140.7h-26l22.3-140.7c.7-4.4 4.9-8 9.3-8zM1077.2 669.8h10c4.4 0 7.4 3.6 6.7 8l-8.2 51.5h-26l8.2-51.5c.7-4.4 4.8-8 9.3-8z" class="color2c49a2 svgShape"></path><path fill="#a7d6ff" d="M966.2 640.1h10c4.4 0 7.4 3.6 6.7 8L970 729.3h-26l12.9-81.2c.8-4.4 4.9-8 9.3-8zM1057.7 610.4h10c4.4 0 7.4 3.6 6.7 8l-17.6 111h-26l17.6-111c.8-4.5 4.9-8 9.3-8z" class="colora7c1ff svgShape"></path><path fill="#2c6aa2" d="M957.7 821.2H946c-1.1 0-1.7-1-1.4-2l4.3-12.3c.3-.8 1.1-1.4 1.9-1.4h7c.8 0 1.4.6 1.5 1.4l.4 12.3c.1 1-.9 2-2 2zM937.6 822.9l-11.5 4.5c-1.1.4-2.1-.2-2.1-1.2l-.6-12.2c0-.8.5-1.6 1.3-1.9l6.9-2.7c.8-.3 1.6 0 2 .6l5.2 10.5c.4.8-.2 2-1.2 2.4zM918.4 832.1l-9.5 8.2c-.9.8-2.1.6-2.6-.2l-5.4-10.3c-.4-.7-.1-1.6.5-2.2l5.7-4.9c.7-.6 1.6-.7 2.2-.2l9.2 7c.9.6.8 1.9-.1 2.6zM903.2 847.4l-6.2 10.8c-.6 1-1.8 1.4-2.6.8l-9.4-6.9c-.6-.4-.7-1.3-.3-2.1l3.7-6.4c.4-.8 1.3-1.2 2.1-1l11.8 2.5c1.1.2 1.5 1.3.9 2.3zM894.2 866.4l-1.8 11.7c-.2 1.1-1.3 1.9-2.3 1.7l-11.9-2.3c-.8-.2-1.3-.9-1.1-1.7l1.1-7c.1-.8.8-1.5 1.7-1.7l12.7-2.3c.9-.2 1.8.6 1.6 1.6zM892.8 886.3l2.8 10.8c.3 1-.5 2.1-1.6 2.3l-12.7 2.5c-.8.2-1.6-.3-1.8-1l-1.6-6.4c-.2-.8.2-1.6 1-2.1l11.5-6.9c1-.6 2.1-.2 2.4.8zM899.2 904l6.9 8.2c.6.8.3 2-.7 2.6l-11.5 7c-.8.5-1.6.4-2.1-.2l-4.1-4.9c-.5-.6-.4-1.5.1-2.2l8.7-10.3c.8-.9 2-1 2.7-.2zM912.4 916.8l10.1 4.5c.9.4 1.1 1.6.4 2.5l-8.5 10.5c-.6.7-1.5 1-2.2.6l-6-2.7c-.7-.3-1-1.1-.7-1.9l4.5-12.2c.3-1.1 1.5-1.7 2.4-1.3zM930.5 922.8h11.7c1.1 0 1.7 1 1.4 2l-4.3 12.3c-.3.8-1.1 1.4-1.9 1.4h-7c-.8 0-1.4-.6-1.5-1.4l-.4-12.3c0-1 .9-2 2-2zM950.6 921.1l11.5-4.5c1.1-.4 2.1.2 2.1 1.2l.6 12.2c0 .8-.5 1.6-1.3 1.9l-6.9 2.7c-.8.3-1.6 0-2-.6l-5.2-10.5c-.4-.8.2-2 1.2-2.4zM969.8 911.9l9.5-8.2c.9-.8 2.1-.6 2.6.2l5.4 10.3c.4.7.1 1.6-.5 2.2l-5.7 4.9c-.7.6-1.6.7-2.2.2l-9.2-7c-.9-.6-.8-1.9.1-2.6zM985 896.6l6.2-10.8c.6-1 1.8-1.4 2.6-.8l9.4 6.9c.6.4.7 1.3.3 2.1l-3.7 6.4c-.4.8-1.3 1.2-2.1 1l-11.8-2.5c-1-.2-1.5-1.3-.9-2.3zM994 877.6l1.8-11.7c.2-1.1 1.3-1.9 2.3-1.7l11.9 2.3c.8.2 1.3.9 1.1 1.7l-1.1 7c-.1.8-.8 1.5-1.7 1.7l-12.7 2.3c-.9.3-1.7-.5-1.6-1.6zM995.4 857.7l-2.8-10.8c-.3-1 .5-2.1 1.6-2.3l12.7-2.5c.8-.2 1.6.3 1.8 1l1.6 6.4c.2.8-.2 1.6-1 2.1l-11.5 6.9c-1 .6-2.1.2-2.4-.8zM989 840l-6.9-8.2c-.6-.8-.3-2 .7-2.6l11.5-7c.8-.5 1.6-.4 2.1.2l4.1 4.9c.5.6.4 1.5-.1 2.2l-8.7 10.3c-.8.9-2 1-2.7.2z" class="color2c49a2 svgShape"></path><path fill="#2c6aa2" d="M957.6 926c-30.3 11.8-60.8-1.8-68.1-30.2s11.4-61.1 41.7-72.8c30.3-11.8 60.8 1.8 68.1 30.2 7.3 28.3-11.4 61-41.7 72.8zM935 837.6c-21.7 8.4-35 31.8-29.8 52.1 5.2 20.3 27 30 48.7 21.6 21.7-8.4 35-31.8 29.8-52.1-5.2-20.3-27-30-48.7-21.6z" class="color2c49a2 svgShape"></path><path fill="#2c6aa2" d="m975.8 827.2-10.1-4.5c-.9-.4-1.1-1.6-.4-2.5l8.5-10.5c.6-.7 1.5-1 2.2-.6l6 2.7c.7.3 1 1.1.7 1.9l-4.5 12.2c-.3 1.1-1.5 1.7-2.4 1.3z" class="color2c49a2 svgShape"></path><path fill="#5badf7" d="m1362.6 1356.7-1.8 11.1c-.2 1-1.2 1.8-2.2 1.6l-11.4-2.2c-.7-.1-1.2-.8-1.1-1.6l1.1-6.7c.1-.8.8-1.5 1.6-1.6l12.1-2.2c1.1-.2 1.9.6 1.7 1.6zM1412.9 1324.2h-11.1c-1 0-1.6-.9-1.3-1.9l4.1-11.7c.3-.8 1-1.3 1.8-1.3h6.7c.8 0 1.4.6 1.4 1.3l.4 11.7c-.1 1-1 1.9-2 1.9zM1392.3 1326.3l-10.5 5.6c-1 .5-2 .1-2.2-.9l-2.1-11.3c-.1-.7.3-1.6 1-1.9l6.3-3.3c.7-.4 1.6-.2 2 .3l6.4 9c.5.8.1 1.9-.9 2.5zM1373.9 1338.1l-7.1 9.6c-.7.9-1.9 1.1-2.5.4l-7.8-7.8c-.5-.5-.5-1.4 0-2l4.2-5.8c.5-.7 1.4-1 2.1-.7l10.7 3.9c.8.4 1.1 1.6.4 2.4zM1361.5 1376.9l4 9.6c.4.9-.2 2-1.2 2.4l-11.9 3.9c-.8.3-1.5 0-1.8-.7l-2.4-5.8c-.3-.7 0-1.5.7-2l10.3-7.8c.7-.7 1.9-.4 2.3.4zM1370.7 1393.5l8.8 5.6c.8.5.8 1.7 0 2.5l-9.2 9c-.6.6-1.5.7-2.1.3l-5.2-3.3c-.6-.4-.8-1.2-.4-1.9l5.7-11.3c.4-1 1.6-1.5 2.4-.9zM1387.9 1401.8h11.1c1 0 1.6.9 1.3 1.9l-4.1 11.7c-.3.8-1 1.3-1.8 1.3h-6.7c-.8 0-1.4-.6-1.4-1.3l-.4-11.7c.1-1 1-1.9 2-1.9zM1408.5 1399.8l10.5-5.6c1-.5 2-.1 2.2.9l2.1 11.3c.1.7-.3 1.6-1 1.9l-6.3 3.3c-.7.4-1.6.2-2-.3l-6.4-9c-.4-.8-.1-2 .9-2.5zM1426.9 1387.9l7.1-9.6c.7-.9 1.9-1.1 2.5-.4l7.8 7.8c.5.5.5 1.4 0 2l-4.2 5.8c-.5.7-1.4 1-2.1.7l-10.7-3.9c-.8-.4-1-1.5-.4-2.4zM1438.2 1369.4l1.8-11.1c.2-1 1.2-1.8 2.2-1.6l11.4 2.2c.7.1 1.2.8 1.1 1.6l-1.1 6.7c-.1.8-.8 1.5-1.6 1.6l-12.1 2.2c-1 .1-1.8-.6-1.7-1.6zM1439.4 1349.1l-4-9.6c-.4-.9.2-2 1.2-2.4l11.9-3.9c.8-.3 1.5 0 1.8.7l2.4 5.8c.3.7 0 1.5-.7 2l-10.3 7.8c-.8.7-1.9.5-2.3-.4zM1430.1 1332.6l-8.8-5.6c-.8-.5-.8-1.7 0-2.5l9.2-9c.6-.6 1.5-.7 2.1-.3l5.2 3.3c.6.4.8 1.2.4 1.9l-5.7 11.3c-.4 1-1.6 1.4-2.4.9z" class="colorf7c15b svgShape"></path><path fill="#5badf7" d="M1410.4 1402c-22.9 8.9-46-1.3-51.5-22.8s8.7-46.3 31.6-55.2c22.9-8.9 46 1.3 51.5 22.8 5.5 21.6-8.7 46.3-31.6 55.2zm-17.1-66.9c-16.4 6.4-26.5 24.1-22.6 39.5 3.9 15.4 20.5 22.7 36.9 16.4 16.4-6.4 26.5-24.1 22.6-39.5-4-15.4-20.5-22.8-36.9-16.4z" class="colorf7c15b svgShape"></path><path fill="#0781ef" d="M1405.4 1331.8c-17.3 0-33.5 14-36.2 31.3-2.7 17.3 9 31.3 26.3 31.3s33.5-14 36.2-31.3c2.7-17.3-9.1-31.3-26.3-31.3zm-8.5 53.3c-12.2 0-20.5-9.9-18.6-22.1 1.9-12.2 13.4-22.1 25.6-22.1s20.5 9.9 18.6 22.1c-1.9 12.2-13.4 22.1-25.6 22.1z" class="coloref9607 svgShape"></path><path fill="#0583f2" d="M807.9 883.8H493.8c-18.8 0-31.7-15.3-28.7-34.1l20.3-127.9c3-18.8 20.7-34.1 39.5-34.1H839c18.8 0 31.7 15.3 28.7 34.1l-20.3 127.9c-2.9 18.8-20.6 34.1-39.5 34.1z" class="color628cd2 svgShape"></path><path fill="#a7d6ff" d="M799.8 872H485.6c-18.8 0-31.7-15.3-28.7-34.1L477.2 710c3-18.8 20.7-34.1 39.5-34.1h314.1c18.8 0 31.7 15.3 28.7 34.1l-20.3 127.9c-2.9 18.8-20.6 34.1-39.4 34.1z" class="colora7c1ff svgShape"></path><path fill="#e0f0ff" d="M619.8 754.6H517.3c-4.6 0-7.7-3.7-7-8.3.7-4.6 5-8.3 9.6-8.3h102.5c4.6 0 7.7 3.7 7 8.3-.7 4.5-5 8.3-9.6 8.3zM643.1 816.8H507.4c-4.6 0-7.7-3.7-7-8.3.7-4.6 5-8.3 9.6-8.3h135.7c4.6 0 7.7 3.7 7 8.3-.7 4.6-5 8.3-9.6 8.3zM668.4 847.9H502.5c-4.6 0-7.7-3.7-7-8.3.7-4.6 5-8.3 9.6-8.3H671c4.6 0 7.7 3.7 7 8.3-.7 4.6-5 8.3-9.6 8.3zM596.6 723h-74.7c-4.3 0-7.3-3.5-6.6-7.8.7-4.3 4.8-7.8 9.1-7.8H599c4.3 0 7.3 3.5 6.6 7.8-.6 4.3-4.7 7.8-9 7.8zM607.4 785.7h-95.1c-4.6 0-7.7-3.7-7-8.3.7-4.6 5-8.3 9.6-8.3H610c4.6 0 7.7 3.7 7 8.3-.7 4.6-5 8.3-9.6 8.3z" class="colore0eaff svgShape"></path><path fill="#319eff" d="m811.4 727.2-27.6 18c4.1 6.6 5.9 14.9 4.5 23.9-3.4 21.4-23.5 38.8-44.9 38.8l-4.4 27.9c15.1 0 28.6-4.2 42.2-13.1 34-22.2 47.5-65 30.2-95.5z" class="colorffac31 svgShape"></path><path fill="#2c6aa2" d="m783.8 745.2 27.6-18C801 708.8 783.2 699 760.5 699l-4.9 31.2c12.4 0 22.5 5.9 28.2 15z" class="color2c49a2 svgShape"></path><path fill="#1a4d7a" d="M710.6 769c3.4-21.4 23.5-38.8 44.9-38.8l4.9-31.2c-37.8 0-73.2 30.6-79.2 68.4-6 37.8 19.8 68.4 57.5 68.4l4.4-27.9c-21.2-.1-35.9-17.4-32.5-38.9z" class="color1a317a svgShape"></path><ellipse cx="1607.7" cy="1846.8" fill="#fcfeff" opacity=".056" rx="429" ry="59.9" class="colorfcfdff svgShape"></ellipse><ellipse cx="1607.7" cy="1846.8" fill="#f9fcfe" opacity=".111" rx="407.9" ry="56.9" class="colorf9fbfe svgShape"></ellipse><ellipse cx="1607.7" cy="1846.8" fill="#f6fafe" opacity=".167" rx="386.8" ry="54" class="colorf6f9fe svgShape"></ellipse><ellipse cx="1607.7" cy="1846.8" fill="#f3f8fd" opacity=".222" rx="365.8" ry="51.1" class="colorf3f7fd svgShape"></ellipse><ellipse cx="1607.7" cy="1846.8" fill="#eff6fd" opacity=".278" rx="344.7" ry="48.1" class="coloreff4fd svgShape"></ellipse><ellipse cx="1607.7" cy="1846.8" fill="#ecf5fd" opacity=".333" rx="323.6" ry="45.2" class="colorecf2fd svgShape"></ellipse><ellipse cx="1607.7" cy="1846.8" fill="#e9f3fc" opacity=".389" rx="302.6" ry="42.2" class="colore9f0fc svgShape"></ellipse><ellipse cx="1607.7" cy="1846.8" fill="#e6f2fc" opacity=".444" rx="281.5" ry="39.3" class="colore6eefc svgShape"></ellipse><ellipse cx="1607.7" cy="1846.8" fill="#e3f0fc" opacity=".5" rx="260.4" ry="36.4" class="colore3ecfc svgShape"></ellipse><ellipse cx="1607.7" cy="1846.8" fill="#e0eefb" opacity=".556" rx="239.4" ry="33.4" class="colore0eafb svgShape"></ellipse><ellipse cx="1607.7" cy="1846.8" fill="#ddedfb" opacity=".611" rx="218.3" ry="30.5" class="colordde8fb svgShape"></ellipse><ellipse cx="1607.7" cy="1846.8" fill="#daebfa" opacity=".667" rx="197.2" ry="27.5" class="colordae6fa svgShape"></ellipse><ellipse cx="1607.7" cy="1846.8" fill="#d7eafa" opacity=".722" rx="176.2" ry="24.6" class="colord7e4fa svgShape"></ellipse><ellipse cx="1607.7" cy="1846.8" fill="#d3e8fa" opacity=".778" rx="155.1" ry="21.7" class="colord3e1fa svgShape"></ellipse><ellipse cx="1607.7" cy="1846.8" fill="#d0e6f9" opacity=".833" rx="134.1" ry="18.7" class="colord0dff9 svgShape"></ellipse><ellipse cx="1607.7" cy="1846.8" fill="#cde4f9" opacity=".889" rx="113" ry="15.8" class="colorcdddf9 svgShape"></ellipse><path fill="#cae2f8" d="M1699.6 1846.8c0 7.1-41.2 12.8-91.9 12.8-50.8 0-91.9-5.7-91.9-12.8s41.2-12.8 91.9-12.8 91.9 5.7 91.9 12.8z" opacity=".944" class="colorcadbf8 svgShape"></path><path fill="#c7e1f8" d="M1678.5 1846.8c0 5.5-31.7 9.9-70.9 9.9-39.1 0-70.9-4.4-70.9-9.9s31.7-9.9 70.9-9.9 70.9 4.5 70.9 9.9z" class="colorc7d9f8 svgShape"></path><path fill="#178ffa" d="M1385.6 1234.4c2-.6 102.6-35.2 116.8-47.1 14.2-11.9 31.8-175.4 77.4-170.7 30.8 3.2 43.8 168.8-18.8 201.7-62.6 32.8-125.6 42-125.6 42s-58.9-23.2-49.8-25.9z" class="colorfa8b17 svgShape"></path><path fill="#1892ff" d="m1594.7 1119.8-23.4-102c-4.7 1.7-9 5.3-13.1 10.3-13.5 30.4-35.1 92.1-35.1 176.1 0 20.9-80.4 39.6-112 46.1 12.3 5.4 24.3 10.1 24.3 10.1s63-9.2 125.6-42c18.8-9.9 30.8-31.7 37.5-57.5l-3.8-41.1z" opacity=".82" class="colorff5f18 svgShape"></path><path fill="#b6dafa" d="m1556.8 1737.6 5 40.3 44.1-3.2 2.6-37.1z" class="colorfac4b6 svgShape"></path><linearGradient id="SVGID_8_" x1="1453.687" x2="1704.201" y1="1643.999" y2="1393.485" gradientUnits="userSpaceOnUse"><stop offset="0" stop-color="#2c6aa2" class="stopColor2c49a2 svgShape"></stop><stop offset=".321" stop-color="#28649a" class="stopColor28449a svgShape"></stop><stop offset=".824" stop-color="#1e5383" class="stopColor1e3783 svgShape"></stop><stop offset="1" stop-color="#1a4d7a" class="stopColor1a317a svgShape"></stop></linearGradient><path fill="url(#SVGID_8_)" d="M1535.4 1305.1s-22.8 132.6-6.2 239.3c5.7 36.9 28.5 199.3 29.2 204 .3 2.4 17.6 5.9 28.1 4.9s21.3-6.3 21.3-6.3 7.4-92.2 9.5-124.1c2-31.9-10.7-82.9-10.7-82.9s32.1-217.4 9.9-234.4c-23.9-18-81.1-.5-81.1-.5z"></path><linearGradient id="SVGID_9_" x1="1692.406" x2="1488.464" y1="1349.374" y2="1702.612" gradientUnits="userSpaceOnUse"><stop offset="0"></stop><stop offset=".132" stop-color="#020406" class="stopColor020306 svgShape"></stop><stop offset=".308" stop-color="#070f17" class="stopColor070b17 svgShape"></stop><stop offset=".509" stop-color="#0f2233" class="stopColor0f1833 svgShape"></stop><stop offset=".729" stop-color="#1a3c5a" class="stopColor1a2a5a svgShape"></stop><stop offset=".962" stop-color="#285c8b" class="stopColor28418b svgShape"></stop><stop offset="1" stop-color="#2b6294" class="stopColor2b4594 svgShape"></stop></linearGradient><path fill="url(#SVGID_9_)" d="M1616.4 1305.8c-9.6-7.3-24.6-8.9-39.1-8.1 10 .6 19.4 2.9 26.2 8.1 22.2 16.9-9.9 234.4-9.9 234.4s12.8 51 10.7 82.9c-2 31.9-9.5 124.1-9.5 124.1s-9.3 4.5-19 6c3.2.5 6.9.7 10.7.3 10.5-1 21.3-6.3 21.3-6.3s7.4-92.2 9.5-124.1c2-31.9-10.7-82.9-10.7-82.9s32-217.5 9.8-234.4z"></path><linearGradient id="SVGID_10_" x1="1125.282" x2="1257.833" y1="1541.498" y2="1541.498" gradientTransform="rotate(-25.338 1962.243 864.718)" gradientUnits="userSpaceOnUse"><stop offset="0"></stop><stop offset=".204" stop-color="#0a1824" class="stopColor0a1124 svgShape"></stop><stop offset=".579" stop-color="#1c4060" class="stopColor1c2d60 svgShape"></stop><stop offset=".855" stop-color="#275986" class="stopColor273e86 svgShape"></stop><stop offset="1" stop-color="#2b6294" class="stopColor2b4594 svgShape"></stop></linearGradient><path fill="url(#SVGID_10_)" d="M1606.9 1760.4s7.9 13.6 10.9 41.7c.3 2.9-1.2 5.6-3.7 6.9-17.6 9.1-85.5 44.2-95.4 47.5-5.5 1.9-9.8.3-12.7-1.8-3.2-2.3-3.8-6.7-1.5-9.8l23.9-25.6c7.8-8.3 14.5-17.5 20.2-27.3l12.4-21.7c15.7 3.1 31.9-.2 45.1-9.3l.8-.6z"></path><path fill="#b6dafa" d="m1683.3 1766.9 1.1 20 47.9 5.2-2.4-28.6z" class="colorfac4b6 svgShape"></path><path fill="#2c6aa2" d="M1729.9 1764.4c-12.8 6.5-27.4 8.6-41.5 5.8l-4.2-.8s-13.1-41.1-26-100.9c-14.4-67.1-7.6-87.4-14.4-111.8-3.2-11.3-75-230.2-28.7-270.6 30-26.3 47.5-8.7 47.5-8.7s68-44.4 53.1 275.2c-.6 11.9 10.6 68.6 14 97.1s.2 114.7.2 114.7z" class="color2c49a2 svgShape"></path><linearGradient id="SVGID_11_" x1="1630.124" x2="1731.194" y1="1520.973" y2="1520.973" gradientUnits="userSpaceOnUse"><stop offset="0"></stop><stop offset=".204" stop-color="#0a1824" class="stopColor0a1124 svgShape"></stop><stop offset=".579" stop-color="#1c4060" class="stopColor1c2d60 svgShape"></stop><stop offset=".855" stop-color="#275986" class="stopColor273e86 svgShape"></stop><stop offset="1" stop-color="#2b6294" class="stopColor2b4594 svgShape"></stop></linearGradient><path fill="url(#SVGID_11_)" d="M1729.6 1649.7c-3.4-28.5-14.6-85.2-14-97.1 14.9-319.7-53.1-275.2-53.1-275.2s-11.7-11.8-32.4-1.6c12.1-1.1 18.8 5.6 18.8 5.6s68-44.4 53.1 275.2c-.6 11.9 10.6 68.6 14 97.1 3.4 28.5.3 114.7.3 114.7-1.4.7-2.7 1.3-4.1 1.9 6.1-1.1 12.1-3.1 17.8-5.9-.1 0 3-86.2-.4-114.7z"></path><linearGradient id="SVGID_12_" x1="2272.068" x2="2358.458" y1="1836.9" y2="1836.9" gradientTransform="scale(-1 1) rotate(-1.072 -13.377 217915.618)" gradientUnits="userSpaceOnUse"><stop offset="0"></stop><stop offset=".204" stop-color="#0a1824" class="stopColor0a1124 svgShape"></stop><stop offset=".579" stop-color="#1c4060" class="stopColor1c2d60 svgShape"></stop><stop offset=".855" stop-color="#275986" class="stopColor273e86 svgShape"></stop><stop offset="1" stop-color="#2b6294" class="stopColor2b4594 svgShape"></stop></linearGradient><path fill="url(#SVGID_12_)" d="M1731.3 1780.4s43.4 100.6 36 101.8-17.7 1.7-21.5 1.6c-3.8-.1-28-27-35.3-34.6-7.3-7.6-26.7-24.8-27.2-32.3-.5-7.5.6-39.1.6-39.1 4.4 4.9 14.6 7.7 25.4 8.4 11.2.9 22-5.8 22-5.8z"></path><linearGradient id="SVGID_13_" x1="1543.168" x2="1721.774" y1="1330.847" y2="1021.494" gradientUnits="userSpaceOnUse"><stop offset="0" stop-color="#1892ff" class="stopColorff5f18 svgShape"></stop><stop offset=".438" stop-color="#2296ff" class="stopColorff7e22 svgShape"></stop><stop offset="1" stop-color="#319eff" class="stopColorffac31 svgShape"></stop></linearGradient><path fill="url(#SVGID_13_)" d="M1713.2 1016.6s-23.7-15.1-93.2-12c-22.8 1-57.7 15.2-59.7 21-30.4 90.2-26.2 123.6-24.5 189.7 1.4 55-.2 111.4-.2 111.4l56 9.1c34 5.5 68.9 2.8 101.6-8l13.4-4.4s-12.6-60.7-9.9-106.9c1.7-29.6 13.5-66.5 13.5-66.5l3-133.4z"></path><path fill="#1892ff" d="M1693.4 1009.6c-38.2 12.4-25.3 71.2-22.1 85.5 1.8 8 4.7 17.4 8.2 26.9 4.4 12.4 4.3 25.8.1 38.3-3.7 10.8-6.3 23.2-5.2 34.8 3 30 15.1 124.1 15.1 124.1l15.6-4.7c-.3-1.5-.6-3.2-.9-5.1-.1-.3-.1-.7-.2-1-.1-.4-.1-.9-.2-1.3-.1-.5-.2-.9-.2-1.4-.1-.4-.1-.8-.2-1.2-.1-.7-.2-1.5-.4-2.2 0-.2-.1-.4-.1-.6-.2-1-.3-2-.5-3 0-.3-.1-.6-.1-.9-.1-.8-.2-1.5-.3-2.3-.1-.4-.1-.7-.2-1.1-.1-.9-.3-1.9-.4-2.8 0-.2-.1-.4-.1-.5-.2-1.2-.3-2.4-.5-3.6 0-.2-.1-.4-.1-.6-.1-1-.3-2-.4-3.1 0-.3-.1-.6-.1-1-.1-1.1-.3-2.1-.4-3.2 0-.2 0-.4-.1-.6-.2-1.3-.3-2.7-.5-4v-.1c-.1-1.3-.3-2.5-.4-3.8 0-.3-.1-.6-.1-.9l-.3-3.3c0-.3-.1-.6-.1-.9-.3-2.8-.5-5.5-.7-8.3 0-.3 0-.6-.1-.9-.1-1.1-.2-2.2-.2-3.3 0-.4 0-.7-.1-1.1-.1-1.2-.2-2.5-.2-3.7v-.5c-.1-1.4-.1-2.8-.2-4.3v-.9c0-1.1-.1-2.2-.1-3.3v-1.2c0-1.1-.1-2.2-.1-3.2V1224.7c0-1 0-1.9.1-2.9v-1.2c.1-1.3.1-2.7.2-4 1.7-29.6 13.5-66.5 13.5-66.5l.2-9.1-1.9-1.2 4.5-122.9c0-.3-5.7-4-19.8-7.3z" opacity=".6" class="colorff5f18 svgShape"></path><ellipse cx="1138.6" cy="1093" fill="#e0f0ff" opacity=".1" rx="169" ry="175.9" transform="rotate(-15.819 1138.367 1092.911)" class="colore0eaff svgShape"></ellipse><path fill="#ffffff" d="M1074.4 1003.5c89.8-25.4 184 29.7 210.5 123.2 4 14 6.2 28 6.8 41.9 16.8-37 21.1-80.5 8.9-123.4-26.5-93.5-120.7-148.6-210.5-123.2-76.4 21.6-124.9 94.6-121.4 173.4 19.8-43.6 57.2-78.1 105.7-91.9z" opacity=".4" class="colorffffff svgShape"></path><path fill="#2c6aa2" d="M1672.2 1437.6c-7.8 2.2-16.5 1.3-24.3-3.2l-318.3-195.7c-15.5-9-24-17.9-15.6-33.7 8.4-15.8 22.8-11.9 38.3-2.9l326.1 175c15.5 9 21.2 29.2 12.8 45-4.3 8-11.2 13.3-19 15.5z" class="color2c49a2 svgShape"></path><path fill="#1a4d7a" d="M1691.8 1392.1c.3 5.9-.9 12-3.8 17.5-4.2 7.9-11.2 13.2-19 15.5-7.8 2.2-16.5 1.3-24.3-3.2l-318.3-195.7c-6.8-4-12.3-7.9-15.5-12.4-1.6 10.7 6.3 17.8 18.6 25.1l318.3 195.7c7.7 4.5 16.4 5.4 24.3 3.2 7.8-2.2 14.8-7.5 19-15.5 5.2-9.7 5-20.9.7-30.2z" class="color1a317a svgShape"></path><path fill="#2c6aa2" d="M1349.4 1180.9c-6.4-22.7-25.4-38.3-46.6-40.9-8.2 33-25.7 62.8-50.3 85.4 12.8 20.2 37 30.7 60.4 24.1 28.6-8.1 45-38.8 36.5-68.6z" class="color2c49a2 svgShape"></path><path fill="#1a4d7a" d="M1188.1 1268c-93.6 26.5-192.3-31.2-219.9-128.7-27.6-97.5 26.1-198.3 119.7-224.9 93.6-26.5 192.3 31.2 219.9 128.7 27.7 97.5-26 198.4-119.7 224.9zm-95.9-338.4c-85.6 24.3-134.8 116.5-109.5 205.7 25.3 89.2 115.5 142 201.1 117.7 85.6-24.3 134.8-116.5 109.5-205.7-25.2-89.2-115.4-142-201.1-117.7z" class="color1a317a svgShape"></path><path fill="#0583f2" d="M1245.6 1010c-3.8 1.1-8.1-.2-10.8-3.5-32.8-39.7-85-56.7-132.9-43.1-19.9 5.6-37.5 15.8-52.3 30.2-4.2 4-10.8 3.7-14.8-.6-4-4.4-3.9-11.2.3-15.3 17-16.5 38.1-28.7 60.9-35.1 55.8-15.8 116.5 3.9 154.6 50.1 3.8 4.6 3.3 11.4-1 15.2-1.3 1-2.6 1.7-4 2.1z" class="color628cd2 svgShape"></path><path fill="#b6dafa" d="m1664.6 949-3.4 77.2s-.6 17.9-32.3 25.6c-40.5 9.8-34.8-31.7-30-36.2 10.6-9.9 6.4-31.2 6.4-31.2l59.3-35.4z" class="colorfac4b6 svgShape"></path><path fill="#1892ff" d="M1606.1 1034.8c-7.6-4.8-7.6-13.8-6.7-19.7l-.5.5c-4.8 4.5-10.5 46.1 30 36.2 31.7-7.7 32.3-25.6 32.3-25.6l.1-2.1c-8 11.4-38.9 21-55.2 10.7z" opacity=".82" class="colorff5f18 svgShape"></path><path fill="#a6d0f5" d="M1605.2 984.5s.7 9.1.4 17c15.5.1 41.5-18.4 58.3-36.1l.7-16.2-59.4 35.3z" class="colorf5b3a6 svgShape"></path><path fill="#b6dafa" d="M1687.5 927.3c-9.9 37.1-71.3 71.2-91.4 61.7-12.8-6-19.1-35.3-15-73.4 4-37.8 21.6-56.4 61.9-55.4 25 .6 54.4 30.1 44.5 67.1z" class="colorfac4b6 svgShape"></path><linearGradient id="SVGID_14_" x1="1558.006" x2="1694.079" y1="909.454" y2="909.454" gradientUnits="userSpaceOnUse"><stop offset="0" stop-color="#2c6aa2" class="stopColor2c49a2 svgShape"></stop><stop offset=".131" stop-color="#2b6497" class="stopColor2b4597 svgShape"></stop><stop offset=".706" stop-color="#164773" class="stopColor26376d svgShape"></stop><stop offset="1" stop-color="#24425d" class="stopColor24325d svgShape"></stop></linearGradient><path fill="url(#SVGID_14_)" d="M1689.5 888.7c-21.3-47.6-74.9-28.6-97.6-24.9-15 2.5-16.9-9.5-28.7.5-19.4 16.6 19.9 46.8 41.3 41.5 26-6.5 43.2-10.7 46.5 6.7.6 3.2 1.2 6.2 1.7 9.1 5.1-5.1 12-6.4 16-2.9 4.2 3.7 3.4 11.3-1.7 17.1-3 3.4-6.8 5.3-10.3 5.6 4.1 8.4 7.4 20.6 7.4 20.6s44-31.7 25.4-73.3z"></path><path fill="#b6dafa" d="M1603.2 1410c-1.2 1.1-.7 3.1 1 3.4 8.3 1.5 27.3 4.7 33.2 3 7.7-2.1 43.9-35.6 46.7-44.6 2.8-9-20.5-22.6-20.5-22.6l-21.7 6.1c-1.8.4-2.8 2.5-1.8 4.1 1.4 2.2 3.1 3.7 0 10.1-5.1 10.3-28.6 33.2-36.9 40.5z" class="colorfac4b6 svgShape"></path><path fill="#a6d0f5" d="M1684.1 1371.9c.1-.2.1-.5.2-.7l-4.2-7.7s-11.3 18.4-30.8 33.8c-11.1 8.8-22 15-29.3 18.7 7.1.9 14.1 1.4 17.3.5 7.8-2.2 44.1-35.6 46.8-44.6z" class="colorf5b3a6 svgShape"></path><path fill="#319eff" d="M1681.9 1376.3s36.2-29.5 63-65.3c23.7-31.7 43.8-63.8 49-76.2 9.5-22.5-51.7-240.6-96.4-219.6-70.1 32.9 38.6 211.3 33 217.8-5.6 6.5-72.1 118.1-72.1 118.1l23.5 25.2z" class="colorffac31 svgShape"></path><path fill="#178ffa" d="M1697.5 1015.1c-1.4.7-2.7 1.4-4 2.2 42.3 8.2 97.2 177.4 81.5 217.1-13.3 33.6-75.3 108.9-100.7 133.8l7.5 8.1s18.7-15.2 39.2-37.1c8-8.6 16.3-18.1 23.8-28.2 23.7-31.7 43.8-63.8 49-76.2.3-.7.5-1.6.7-2.7 5-33.5-53.7-237.3-97-217z" opacity=".4" class="colorfa8b17 svgShape"></path><path fill="#1892ff" d="M1681.9 1376.3s2.4-2 6.4-5.5c-4-2.7-10.2-7-14-10.1-4.2-3.4-10.3-10-13.6-13.6-1.5 2.5-2.3 3.9-2.3 3.9l23.5 25.3z" opacity=".55" class="colorff5f18 svgShape"></path><path fill="#b6dafa" d="M1341.9 1257c-3.4-3.5-3.7-8.9-.8-12.7 5-6.5 13.2-14.2 21.3-7.7 12.8 10.2 20 29.2 20 34.1 0 2.8-5.4 6-9.9 8.2-3.7 1.8-8.2 1-11.2-2l-19.4-19.9z" class="colorfac4b6 svgShape"></path><path fill="#a6d0f5" d="M1364.4 1265.9c-2.7-4.2-12.9-17.9-23.6-21.1-2.5 3.8-2.1 8.9 1.1 12.2l19.4 19.8c2.7 2.8 6.9 3.7 10.5 2.2-2.5-4.6-5.7-10.5-7.4-13.1z" class="colorf5b3a6 svgShape"></path><ellipse cx="516.4" cy="1865.6" fill="#fcfeff" opacity=".056" rx="375" ry="52.3" class="colorfcfdff svgShape"></ellipse><ellipse cx="516.4" cy="1865.6" fill="#f9fcfe" opacity=".111" rx="356.6" ry="49.8" class="colorf9fbfe svgShape"></ellipse><ellipse cx="516.4" cy="1865.6" fill="#f6fafe" opacity=".167" rx="338.2" ry="47.2" class="colorf6f9fe svgShape"></ellipse><ellipse cx="516.4" cy="1865.6" fill="#f3f8fd" opacity=".222" rx="319.8" ry="44.6" class="colorf3f7fd svgShape"></ellipse><ellipse cx="516.4" cy="1865.6" fill="#eff6fd" opacity=".278" rx="301.3" ry="42.1" class="coloreff4fd svgShape"></ellipse><ellipse cx="516.4" cy="1865.6" fill="#ecf5fd" opacity=".333" rx="282.9" ry="39.5" class="colorecf2fd svgShape"></ellipse><ellipse cx="516.4" cy="1865.6" fill="#e9f3fc" opacity=".389" rx="264.5" ry="36.9" class="colore9f0fc svgShape"></ellipse><ellipse cx="516.4" cy="1865.6" fill="#e6f2fc" opacity=".444" rx="246.1" ry="34.4" class="colore6eefc svgShape"></ellipse><ellipse cx="516.4" cy="1865.6" fill="#e3f0fc" opacity=".5" rx="227.7" ry="31.8" class="colore3ecfc svgShape"></ellipse><ellipse cx="516.4" cy="1865.6" fill="#e0eefb" opacity=".556" rx="209.3" ry="29.2" class="colore0eafb svgShape"></ellipse><ellipse cx="516.4" cy="1865.6" fill="#ddedfb" opacity=".611" rx="190.9" ry="26.6" class="colordde8fb svgShape"></ellipse><ellipse cx="516.4" cy="1865.6" fill="#daebfa" opacity=".667" rx="172.4" ry="24.1" class="colordae6fa svgShape"></ellipse><ellipse cx="516.4" cy="1865.6" fill="#d7eafa" opacity=".722" rx="154" ry="21.5" class="colord7e4fa svgShape"></ellipse><ellipse cx="516.4" cy="1865.6" fill="#d3e8fa" opacity=".778" rx="135.6" ry="18.9" class="colord3e1fa svgShape"></ellipse><ellipse cx="516.4" cy="1865.6" fill="#d0e6f9" opacity=".833" rx="117.2" ry="16.4" class="colord0dff9 svgShape"></ellipse><path fill="#cde4f9" d="M615.2 1865.6c0 7.6-44.2 13.8-98.8 13.8-54.6 0-98.8-6.2-98.8-13.8s44.2-13.8 98.8-13.8c54.5 0 98.8 6.1 98.8 13.8z" opacity=".889" class="colorcdddf9 svgShape"></path><path fill="#cae2f8" d="M596.7 1865.6c0 6.2-36 11.2-80.4 11.2-44.4 0-80.4-5-80.4-11.2s36-11.2 80.4-11.2c44.5-.1 80.4 5 80.4 11.2z" opacity=".944" class="colorcadbf8 svgShape"></path><path fill="#c7e1f8" d="M578.3 1865.6c0 4.8-27.7 8.6-62 8.6-34.2 0-62-3.9-62-8.6s27.7-8.6 62-8.6c34.3-.1 62 3.8 62 8.6z" class="colorc7d9f8 svgShape"></path><path fill="#b6dafa" d="M478.8 990.2s-5.5 46.4-10.9 52.7c-5.4 6.3 9 56.5 14.7 62.3s48.4-24.8 39.8-49.9c-3.6-10.3-6.7-22.2-6.4-40.6.2-18.3-37.2-24.5-37.2-24.5z" class="colorfac4b6 svgShape"></path><path fill="#a6d0f5" d="M516 1014.7c0-1-.1-2-.3-3l-26.2-14.3s-10.6 11.6 6.1 22.7c7.7 5.1 15.1 7 20.8 7.4-.3-3.9-.5-8.1-.4-12.8z" class="colorf5b3a6 svgShape"></path><path fill="#b6dafa" d="M534.4 951.9c6.9 25.1 10.7 62.8-6.2 67-21.9 5.5-57.3-7-64.3-32.1-6.9-25.1 2.3-52.5 19.1-57.1 16.9-4.7 44.5-3 51.4 22.2zM453.1 1760.4l-2.3 37.2 33.6 18.5.5-64.8z" class="colorfac4b6 svgShape"></path><linearGradient id="SVGID_15_" x1="432.288" x2="524.88" y1="1535.271" y2="1535.271" gradientUnits="userSpaceOnUse"><stop offset=".003" stop-color="#2c6aa2" class="stopColor2c49a2 svgShape"></stop><stop offset=".076" stop-color="#3673a9" class="stopColor3653a9 svgShape"></stop><stop offset=".71" stop-color="#87bae7" class="stopColor87a2e7 svgShape"></stop><stop offset="1" stop-color="#a7d6ff" class="stopColora7c1ff svgShape"></stop></linearGradient><path fill="url(#SVGID_15_)" d="M458.9 1292.4s-7.1 12.8-23.7 40.1c-7.9 12.9 2.1 40.4 6.3 55.1 7.8 27.7 5.3 44.7 10.9 99 4.3 42.1 12.5 94.5 12.5 94.5l-10.1 47.1c-2.6 18.6-3.8 37.3-3.5 56.1l.7 94h34.9l30.1-209.5 7.9-253.1-66-23.3z"></path><linearGradient id="SVGID_16_" x1="447.7" x2="554.363" y1="1823.557" y2="1823.557" gradientUnits="userSpaceOnUse"><stop offset="0"></stop><stop offset=".204" stop-color="#0a1824" class="stopColor0a1124 svgShape"></stop><stop offset=".579" stop-color="#1c4060" class="stopColor1c2d60 svgShape"></stop><stop offset=".855" stop-color="#275986" class="stopColor273e86 svgShape"></stop><stop offset="1" stop-color="#2b6294" class="stopColor2b4594 svgShape"></stop></linearGradient><path fill="url(#SVGID_16_)" d="M450.6 1795.7s8.6 7.7 17.3 9.6c8.8 1.9 17.6-2 17.7-2.5.1-1 67.2 37.3 67.2 37.3s6.3 7.1-5.5 10.1c-11.7 3-96.7 0-96.7 0s-6.5-22.3 0-54.5z"></path><path fill="#b6dafa" d="M419 1153.9c-8.5 32.7-7.5 67.1 2.4 99.4 10 32.8 22.1 72.5 23 75.1 1 3 17.2-46.4 17.2-46.4s-11.5-119.2-13.1-137c-.5-5.7-7.8-21.9-24.7-4.3-1.3 1.4-3 6.5-4.8 13.2z" class="colorfac4b6 svgShape"></path><path fill="#a6d0f5" d="M443.1 1152.1c-8.5 32.7-7.5 67.1 2.4 99.4 10 32.8 22.1 72.5 23 75.1 1 3 17.2-46.4 17.2-46.4s-11.5-119.2-13.1-137c-.5-5.7-7.8-21.9-24.7-4.3-1.3 1.4-3 6.5-4.8 13.2z" class="colorf5b3a6 svgShape"></path><linearGradient id="SVGID_17_" x1="412.238" x2="491.653" y1="1148.666" y2="1148.666" gradientUnits="userSpaceOnUse"><stop offset="0" stop-color="#ffffff" class="stopColorffffff svgShape"></stop><stop offset=".173" stop-color="#eaf5ff" class="stopColoreaf1ff svgShape"></stop><stop offset=".529" stop-color="#c6e4ff" class="stopColorc6d7ff svgShape"></stop><stop offset=".817" stop-color="#afdaff" class="stopColorafc7ff svgShape"></stop><stop offset="1" stop-color="#a7d6ff" class="stopColora7c1ff svgShape"></stop></linearGradient><path fill="url(#SVGID_17_)" d="M442.6 1068.4c15.9-23.7 42.4-12.5 38.8 15.8-1 7.7-12.8 38.4-14.1 43-4.5 16.1 29.9 111.8 23.6 111.6-9-.3-71.7 7.2-73.3 0-20.6-90.4 24.8-170.2 25-170.4z"></path><path fill="#c7e1f8" d="M471 1068.4c15.9-23.7 42.4-12.5 38.8 15.8-1 7.7-12.8 38.4-14.1 43-4.5 16.1 29.9 111.8 23.6 111.6-9-.3-69.2 6.1-73.3 0-29.8-44.4 24.8-170.2 25-170.4z" class="colorc7d9f8 svgShape"></path><path fill="#2c6aa2" d="M458.9 1240.6c5.1-.9 8.5-1.8 10.7-3.3-3.8-4-15.8-34.5-18.2-34.9 0 0-14.7 9.2-24.6 11.2-5.5 1.1-9.7.7-13.3.2.9 8.2 2.2 16.5 4.1 24.9 2.3 3.5 22.5 2.9 41.3 1.9z" opacity=".55" class="color2c49a2 svgShape"></path><path fill="#c7e1f8" d="M438.4 1243.3c-10.6 1.2-16 7.4-19.9 6.9-3.2-.9-6.2 0-9.3-15-1.1-5.4-.8-15.9 1.9-18.2 4.3 0 9 1.7 16.5.2 8.8-1.7 21.7-9.9 21.7-9.9 2.1.3 12.7 27.4 16.1 30.9-3.9 2.5-11.8 3.5-27 5.1z" class="colorc7d9f8 svgShape"></path><path fill="#b6dafa" d="m479.4 1775.5-3.6 28 19.5 26.1 15.6-18.6 2-28.5z" class="colorfac4b6 svgShape"></path><linearGradient id="SVGID_18_" x1="461.999" x2="574.585" y1="1553.536" y2="1553.536" gradientUnits="userSpaceOnUse"><stop offset=".003" stop-color="#2c6aa2" class="stopColor2c49a2 svgShape"></stop><stop offset=".076" stop-color="#3673a9" class="stopColor3653a9 svgShape"></stop><stop offset=".71" stop-color="#87bae7" class="stopColor87a2e7 svgShape"></stop><stop offset="1" stop-color="#a7d6ff" class="stopColora7c1ff svgShape"></stop></linearGradient><path fill="url(#SVGID_18_)" d="M468.6 1337.8s4.6 47.4 9.9 74.6c5.2 27.2 13.1 168.4 16.1 176.6 1.3 3.5-14.1 33.2-16.5 73.8-3.1 54 .6 119.8.6 119.8H513s31.3-174.9 31.5-188c.1-6 13.9-51.5 21.9-106.5 9.6-65.6 12.8-142.6-1.7-154.7-26.7-22.2-102.6 4.4-102.6 4.4h6.5z"></path><linearGradient id="SVGID_19_" x1="472.532" x2="579.195" y1="1829.608" y2="1829.608" gradientUnits="userSpaceOnUse"><stop offset="0"></stop><stop offset=".204" stop-color="#0a1824" class="stopColor0a1124 svgShape"></stop><stop offset=".579" stop-color="#1c4060" class="stopColor1c2d60 svgShape"></stop><stop offset=".855" stop-color="#275986" class="stopColor273e86 svgShape"></stop><stop offset="1" stop-color="#2b6294" class="stopColor2b4594 svgShape"></stop></linearGradient><path fill="url(#SVGID_19_)" d="M475.4 1801.7s9.3 7.3 18.9 9.3c7.5 1.6 16-1.8 16-2.3.1-1 67.2 37.3 67.2 37.3s6.3 7.1-5.5 10.1c-11.7 3-96.7 0-96.7 0s-6.4-22.1.1-54.4z"></path><path fill="#ffffff" d="M450.7 1051.6s73.4 4.7 86.2 25c12.9 20.4 33.3 78.2 24.2 126.1-9.1 47.8 10.6 138.6 15.9 143.1s-30.2 23.4-76 21.2c-45.8-2.3-69.2-13.6-69.2-24.2s25-39.3 21.9-93-27.2-114.7-21.9-148.1c5.2-33.4 18.9-50.1 18.9-50.1z" class="colorffffff svgShape"></path><path fill="#c7e1f8" d="M577 1345.9c-5.3-4.5-25-95.3-15.9-143.1 3.1-16.1 2.8-33.4.5-50l-24.7-30c1.5 3 19.8 54.6 10.3 91.2s13.4 101.8 15.4 110.6c2 8.8-2.3 24.4-29.5 28.1-10.5 1.5-90.5 1.1-93.8-10.6-1.3-4.8-2.2-8.8-3.2-11.9-2.6 5.6-4.4 9.8-4.4 12.6 0 10.6 23.4 21.9 69.2 24.2 45.9 2.3 81.4-16.6 76.1-21.1z" opacity=".65" class="colorc7d9f8 svgShape"></path><path fill="#b6dafa" d="M585.2 1147.4s27-16.4 49.6-30.4c13.3-8.2 23.3-14 29.4-17.4 3.9-2.2 6.3-6.4 6.1-10.9-.3-7.6-.6-18.7.7-20.9 1.5-2.6 26.8-20 39.5-28.6 1.7-1.2 3.8.8 2.7 2.6l-11.5 19.2s6 19.8.8 26.3c-5.1 6.5-19.6 22.3-19.6 22.3s-66.6 76.6-82 80.7c-15.4 3.9-22.3-38.9-15.7-42.9z" class="colorfac4b6 svgShape"></path><path fill="#c7e1f8" d="M501 1078.8c-4.2-28.2 22.9-37.9 39.3-14.5 4.5 6.4 16.4 37 18.6 41.3 7.5 15 20 46.4 23.8 50.4 3.8 4 25.9 28.8 21.2 32.9-6.8 5.9-19.1 17.5-26.3 15.9-40.2-8.9-76.6-125.7-76.6-126z" class="colorc7d9f8 svgShape"></path><path fill="#a6d0f5" d="m701.7 1060.9 11.4-19.1c-8.4 6.5-21.9 20.9-20.2 24.2 2.2 4 5 14.6 3 17.1-2 2.5 2.5 4-16.1 18.7-12.5 9.8-52 50.4-75.3 68.1-5 3.7-9.9 11.3-13 16.4 2.6 3.1 5.8 4.8 9.4 3.8 15.4-4.1 82-80.7 82-80.7s14.5-15.8 19.6-22.3c5.2-6.4-.8-26.2-.8-26.2z" class="colorf5b3a6 svgShape"></path><path fill="#2c6aa2" d="M582.7 1156c-1.1-1.1-2.8-4.4-5-8.9-1.2 6.4 0 18.4 3.8 22.7 5.2 5.9 3.1 14.8 6.4 28.4.2 1 .7 1.9 1.2 2.6 5.4-3.6 11-8.6 14.8-12 4.7-4-17.4-28.8-21.2-32.8z" opacity=".55" class="color2c49a2 svgShape"></path><path fill="#c7e1f8" d="M593.7 1190.1c-4.6-11-3.7-18.7-9.1-23-5.4-4.3-8.3-21.9-4.1-22.4 4.2-.4 2.5 3.4 5.2 1.9s2.9-5.7 7.8-5.9c4.9-.2 5.2 11.4 12.6 20.5 15.4 19 14.3 22.7 9.9 27.2-7.3 7.3-19.6 8.1-22.3 1.7z" class="colorc7d9f8 svgShape"></path><linearGradient id="SVGID_20_" x1="498.841" x2="542.023" y1="913.638" y2="956.82" gradientUnits="userSpaceOnUse"><stop offset="0" stop-color="#2c6aa2" class="stopColor2c49a2 svgShape"></stop><stop offset="1"></stop></linearGradient><path fill="url(#SVGID_20_)" d="M501.6 926.2s-8.4-20.3 11.1-18.9c39.9 2.9 34.9 40.7 33.4 45.3-10.2-2.1-20.9.2-29.4 6.2l-4.5 3.2-10.6-35.8z"></path><linearGradient id="SVGID_21_" x1="418.276" x2="535.202" y1="958.916" y2="1075.842" gradientUnits="userSpaceOnUse"><stop offset="0" stop-color="#2c6aa2" class="stopColor2c49a2 svgShape"></stop><stop offset="1"></stop></linearGradient><path fill="url(#SVGID_21_)" d="M507.1 907.3c-40.4-3.4-53 15.3-63.3 27.4-23 27.1-1.9 82.9-8.3 115.1-6.1 30.9-11.5 47.1-14.4 54.6-1.1 2.7.9 5.7 3.8 5.8l54.8 2.5c28 1.3 48.9-25.5 40.9-52.3l-6.3-21.3c-5.3-17.9-7.6-36.5-6.2-55.1.8-10.2 2.6-20.1 6.8-30.7 0-.1 19.1-43.8-7.8-46z"></path><path fill="#2c6aa2" d="M449.6 1076.3c-1.3 3.6-11.3 27.7-13.8 34.3l4.5.2c3.2-11.5 10.4-37.6 9.3-34.5zM498.6 1044.5l.6 1.6c7 17.9 3.9 38.2-8.3 53.1l1.3-3.9c5.1-15.5 7.3-31.9 6.5-48.2l-.1-2.6zM468.6 1112.1l6.5-49.1-17.9 48.6z" opacity=".55" class="color2c49a2 svgShape"></path></g></svg>