<svg xmlns="http://www.w3.org/2000/svg" enable-background="new 0 0 2100 2100" viewBox="-35.865 246.903 2203.63 1667.387" id="FreelancerWorkingWhileSittingOnChair"><g id="Layer_1" fill="#000000" class="color000000 svgShape"><path fill="#ebf6ff" d="M762 1664.9c-205.5-13.4-631.5 39.5-652.6-520.2-13-343.4 419.1-523.4 519.9-577.7 100.8-54.3 242.5-298.6 602.5-233.3 320.5 58.1 367.3 266.7 450.4 615.7 50.4 211.6 342.1 234.5 320.9 465.8-19.7 215.3-360.8 306.9-1241.1 249.7z" class="colorebf2ff svgShape"></path><path fill="#c7e1f8" d="M1521.5 784.5s-31.7-66.1 14.2-142.3c45.9-76.2 79.9-94.2 84.6-98.3 4.8-4.1 24.9-52.7 56.2-65.8 31.3-13.1 102.1-76.2 132.7-42 30.6 34.2-5 82.4-16.9 102.1-11.9 19.8-27.3 27.4-40.1 49.3s-52.9 5.4-66.3 34.7c-13.4 29.2 24.3 54.1-96.4 153.5-31.4 25.9-63.5 21.2-68 8.8z" class="colorc7d9f8 svgShape"></path><path fill="#e0f0ff" d="M1820.7 460.4c.3 2.3.5 4.6.6 6.9-12.2-3-23.5-6.8-23.6-10.6-.2-3.8 10.9-.8 23 3.7zM1761.8 479.3c5.2-2 33.3 5 55.5 11.1-1.9 5.7-4.2 11.3-6.8 16.6-23.6-8.9-54.7-25.3-48.7-27.7zM1746.5 496.1c.6-1.5 31.7 19.5 51.5 33-2.2 3.5-4.1 6.5-5.7 9.1-1.4 2.3-2.8 4.4-4.3 6.4-17.9-15.7-42.1-47-41.5-48.5zM1727.7 504.2c6.1-6.1 31.7 29 51.1 51.5-4.1 4.4-8.4 8.6-12.6 13.2-17.9-22.4-42.9-60.3-38.5-64.7zM1756.5 580.7c-1.5 2.1-2.9 4.3-4.3 6.7-22.4-16.6-55-54.7-50.9-54.5 3.5.1 37.6 29.6 55.2 47.8zM1696.3 609.8c-1.1.7-2.1 1.5-3.1 2.4-13.8-14.7-40.6-45.2-31.6-50.7 8.9-5.5 26.4 30 34.7 48.3zM1712.8 603.4c-.7.2-1.4.3-2.2.5-8.6-11.7-30.9-43.4-24.1-49 7.2-6 22.2 33.9 26.3 48.5zM1682.6 635.3c-.5 5.2-.4 10.6-.8 16.6-27.1-13.2-69.4-35.3-65.9-43.2 3.5-7.9 43 13.1 66.7 26.6zM1676.2 677.2c-1.6 4.2-3.8 8.7-6.5 13.6-22.1-18.3-63.6-53.7-62.2-59.3 1.4-5.4 44.1 26.7 68.7 45.7zM1647.8 720.8c-5.7 6.5-12.3 13.5-20 21-13.9-21.1-40.5-64-34.1-72.8 6.7-9.4 37.4 26.8 54.1 51.8zM1579.8 782.8c-8.3 5.3-16.5 8.6-24 10.3 2.1-30.6 6.7-73.7 16.4-77.1 11.5-4 9.4 43.1 7.6 66.8zM1556.2 659.1c-.2 17.1-27.5 34.7-43.2 43.5 1.3-7.8 3.3-15.9 6-24.4 18.5-17.3 37.4-32.3 37.2-19.1zM1554.2 613.5c1.8-2.5 3.5-5 5.2-7.4 29.4-8.5 33.7-12.4 31.7-4.8-1.5 5.6-20 7.2-36.9 12.2zM1602.4 557.7c16.6-2.1 31.6-3.2 24.7.7-10.4 5.9-22.8 7.5-33.5 7.4 3.2-3.1 6.1-5.8 8.8-8.1zM1627.8 531.8c17.9-2.3 35.9-4 28.6.2-10.2 5.8-22.3 7.5-32.9 7.4 1.1-2 2.6-4.6 4.3-7.6zM1657.5 491.1c6.7 3.7 13.3 8.7 10.3 13.1-3.3 4.9-11-.8-16.8-6.4 2-2.3 4.2-4.6 6.5-6.7zM1681.4 475.8c4.4-2.2 9.4-5.1 14.8-8.4 4.1 7.4 7.4 17.1 1.8 20.1-5.4 2.8-12-4.8-16.6-11.7zM1754.5 434c4.3-1.9 8.5-3.5 12.7-4.8-2.9 10.9-6.8 20.9-9.2 22-2.8 1.4-4.2-6.9-3.5-17.2zM1719.5 473.5c-3-1.9 1.5-13.7 6.5-24.4 2.5-1.5 4.9-2.9 7.4-4.3-3.4 18.5-9.3 31.6-13.9 28.7z" class="colore0eaff svgShape"></path><linearGradient id="SVGID_1_" x1="689.072" x2="689.072" y1="823.309" y2="339.8" gradientTransform="scale(-1 1) rotate(-20.218 -310.96 7163.154)" gradientUnits="userSpaceOnUse"><stop offset="0" stop-color="#629ed2" class="stopColor628cd2 svgShape"></stop><stop offset="1" stop-color="#a7d6ff" stop-opacity=".5" class="stopColora7c1ff svgShape"></stop></linearGradient><path fill="url(#SVGID_1_)" d="M1505.7 847c.2.1.3.1.5.1 1.7.3 3.3-.8 3.7-2.5 31.9-162.8 108.4-262.9 166.9-318.2 63.3-59.8 119.7-81.4 120.2-81.6 1.6-.6 2.4-2.4 1.8-4-.6-1.6-2.4-2.4-4-1.8-.6.2-58.1 22.3-122.3 82.9-59.2 55.9-136.5 157.1-168.7 321.5-.4 1.6.5 3.1 1.9 3.6z"></path><path fill="#c7e1f8" d="M1468.4 583.2s36.2-57.1-19-97.3c-55.2-40.2-94-22-94-22s-1.9 132.7 113 119.3z" class="colorc7d9f8 svgShape"></path><linearGradient id="SVGID_2_" x1="972.298" x2="1065.966" y1="1016.792" y2="1016.792" gradientTransform="scale(-1 1) rotate(.837 31696.202 -167617.03)" gradientUnits="userSpaceOnUse"><stop offset="0" stop-color="#629ed2" class="stopColor628cd2 svgShape"></stop><stop offset="1" stop-color="#a7d6ff" class="stopColora7c1ff svgShape"></stop></linearGradient><path fill="url(#SVGID_2_)" d="M1485.4 613.2c.2 0 .3 0 .5-.1 1-.3 1.6-1.4 1.4-2.4-13.4-47.6-88.9-118.5-92.1-121.5-.8-.7-2-.7-2.8.1-.7.8-.7 2 .1 2.8.8.7 77.9 73.2 91 119.7.3.9 1.1 1.4 1.9 1.4z"></path><path fill="#e0f0ff" d="M676.9 594.4s-61.1-28.2-36.6-91.5 66.7-69.1 66.7-69.1 73.2 109.8-30.1 160.6z" class="colore0eaff svgShape"></path><linearGradient id="SVGID_3_" x1="671.443" x2="691.212" y1="551.898" y2="551.898" gradientUnits="userSpaceOnUse"><stop offset="0" stop-color="#629ed2" class="stopColor628cd2 svgShape"></stop><stop offset="1" stop-color="#a7d6ff" class="stopColora7c1ff svgShape"></stop></linearGradient><path fill="url(#SVGID_3_)" d="M678.8 628.6c-.1.1-.3.2-.5.2-1 .3-2.1-.3-2.4-1.3-14.5-47 10.4-147 11.4-151.2.3-1 1.3-1.7 2.4-1.4 1 .3 1.7 1.3 1.4 2.4-.3 1-25.6 103.2-11.5 149.1.3.9 0 1.8-.8 2.2z"></path><path fill="#b5d6f4" d="M1608.1 1326.3c.1.5.3.9.5 1.3 1.4 2.7 4.7 3.7 7.4 2.2 122.4-65.5 271.2-315.5 277.5-326.1 1.5-2.6.7-6-1.9-7.5-2.6-1.5-6-.7-7.5 1.9-1.5 2.6-153.5 257.9-273.2 322-2.2 1.3-3.3 3.8-2.8 6.2z" class="colorb5caf4 svgShape"></path><path fill="#c7e1f8" d="M1680.1 1261.4s178.6 64.8 255.3-111 3.5-271.1 3.5-271.1-365.1 75.1-258.8 382.1zM382.9 1142.2s110.8-109.6 5.9-226.6S187 819.9 187 819.9s-71.2 295.3 195.9 322.3z" class="colorc7d9f8 svgShape"></path><path fill="#0583f2" d="M279.9 995.8c-67.1-90.4-83.4-151.8-87.4-176.7-3.6.4-5.6.8-5.6.8s-.6 2.7-1.6 7.5c5.8 29.3 24.9 88.5 87.8 173.3 55.5 74.7 89.3 118.5 107.2 141.3.9.1 1.7.2 2.6.3 0 0 1.7-1.7 4.4-4.8-17.6-22.6-51.5-66.4-107.4-141.7z" opacity=".5" class="color628cd2 svgShape"></path><path fill="#b5d6f4" d="M584.4 1352.8s29.6-212-182.1-255.4C190.6 1054 102.7 1157 102.7 1157s168.2 384.9 481.7 195.8z" class="colorb5caf4 svgShape"></path><path fill="#0583f2" d="M350.3 1275.3c-148.3-44.9-217.2-99.4-242.3-123.8-3.6 3.4-5.4 5.5-5.4 5.5s1.5 3.5 4.5 9.6c30.7 27.7 100.7 77.5 239.8 119.6 122.6 37.1 195.9 57.8 234.3 68.3 1-.6 2-1.2 3.1-1.8 0 0 .4-3.2.8-9-37.9-10.2-111.3-30.9-234.8-68.4z" opacity=".5" class="color628cd2 svgShape"></path><linearGradient id="SVGID_4_" x1="-204.814" x2="99.415" y1="1505.335" y2="1505.335" gradientTransform="scale(1 -1) rotate(-60.415 -1263.662 -470.827)" gradientUnits="userSpaceOnUse"><stop offset="0" stop-color="#629ed2" class="stopColor628cd2 svgShape"></stop><stop offset=".413" stop-color="#85bae9" class="stopColor85a7e9 svgShape"></stop><stop offset=".777" stop-color="#9ecef9" class="stopColor9ebaf9 svgShape"></stop><stop offset="1" stop-color="#a7d6ff" class="stopColora7c1ff svgShape"></stop></linearGradient><path fill="url(#SVGID_4_)" d="M1256.8 602.9c-.9-1.7-3-2.4-4.8-1.6-148.5 66.1-244.7 40.4-299.3 7.2-54.8-33.3-85.6-86.8-87.7-122.4-.1-2.1-1.9-3.7-4-3.6-2.1.1-3.7 1.9-3.6 4 2.1 36.4 31.6 92.1 91.3 128.4 56.1 34.1 154.7 60.7 306.3-6.7 1.9-.8 2.8-3.1 1.9-5 0 0-.1-.2-.1-.3z"></path><path fill="#c7e1f8" d="M843.3 366s-.4 130.6 18.5 137.2C881.4 510 843.3 366 843.3 366z" class="colorc7d9f8 svgShape"></path><path fill="#c7e1f8" d="M787.9 401.1s73.1 115.6 76.4 110.1c3.3-5.5-36.7-64.6-76.4-110.1zM766.8 449.3s33.7 13.5 65 40.6c31.3 27.1 43.4 40.5 43.4 40.5S842 516.7 821.6 500c-20.3-16.7-54.8-50.7-54.8-50.7zM755.2 496.4s53.8 15.6 74.9 26.1c21.2 10.5 54.7 24.8 54.7 24.8s-38.1-7.2-58.6-14.5c-20.4-7.2-71-36.4-71-36.4zM752 543.1s49.3-1.2 75.2 3.6c25.9 4.8 61.4 17.3 61.4 17.3s-41.9 1.4-63.6-2.2c-21.7-3.6-73-18.7-73-18.7zM761.7 583.2s63.5-12.1 86.6-11.5c23.1.6 55.2 8.5 55.2 8.5s-27.3 8.3-55 6.6c-27.7-1.6-86.8-3.6-86.8-3.6zM781 617.2s43.2-17.3 81-21.4 59-2.4 59-2.4-42.1 13.8-68 15.4c-25.8 1.7-72 8.4-72 8.4zM805.9 645.7s28.1-18.1 78.3-27.8c50.2-9.7 57.1-7.8 57.1-7.8s-47.6 23.4-63.5 25.2c-15.9 1.8-71.9 10.4-71.9 10.4zM830.8 672.9s39.1-28 67.8-34.9 65.3-17.5 65.3-17.5-38.8 23.5-63.2 32.2c-24.3 8.8-69.9 20.2-69.9 20.2zM857.7 702.5s23.5-30 64.3-47.4 57.9-28.1 57.9-28.1-38.1 29.8-53.9 40.3c-15.8 10.4-68.3 35.2-68.3 35.2zM889 718.1s27.4-30.8 52.2-47 56.9-32.3 56.9-32.3-21.8 25.4-45.7 43.3c-23.8 17.8-63.4 36-63.4 36zM919.2 734.2s12.6-27.4 50.3-55.4c37.7-27.9 54.6-39 54.6-39s-29.2 34-48.1 50.5c-18.8 16.5-56.8 43.9-56.8 43.9zM954.8 748s10.9-28.6 33.8-49.6c22.9-20.9 60-55 60-55s-25.8 39.3-43.6 58.1c-17.8 18.7-50.2 46.5-50.2 46.5zM987.2 752.1s3.1-16.2 33.9-52.5c30.8-36.3 53-53.3 53-53.3s-24.9 36.6-39.7 59.5c-14.9 22.9-47.2 46.3-47.2 46.3zM1025.6 758.5s-.7-12.7 24.5-48.7 52-67.9 52-67.9-20.3 36.9-38.8 66.9c-18.4 30.1-37.7 49.7-37.7 49.7zM1066.9 749.6s-7-14.9 17.9-50 39.6-61.6 39.6-61.6-17 51.7-28.2 68.9c-11.2 17.2-29.3 42.7-29.3 42.7zM1100.6 747.8s2-32.2 14-60.8c12-28.6 29.7-52.3 29.7-52.3s-7.5 44.1-16.5 65.9c-9.1 21.7-27.2 47.2-27.2 47.2zM1166.5 627.9s-12.7 15.9-24.6 52.3c-11.9 36.4-5.4 53-5.4 53s9-22.5 19.4-55.2c10.4-32.7 10.6-50.1 10.6-50.1zM1192.1 616.9s-21.9 34.1-20.3 58.6c1.6 24.4.2 41.2.2 41.2s14.6-39.4 13.5-48.9c-1.1-9.6 6.6-50.9 6.6-50.9zM870 508s22.6-46.2 27.8-65.1c5.2-18.9 15.5-70.3 15.5-70.3s-19.9 49.7-27.7 71.1C877.9 465.1 870 508 870 508zM875.2 530.4s23.8-54.8 29.1-67.2c5.3-12.4 22.9-46.3 31.1-51.7 8.2-5.4-16.4 53.3-21 63.2-4.5 9.9-39.2 55.7-39.2 55.7zM883.3 544.6s7.8-20.4 31.8-52.1c24-31.7 47-60 47-60s-27 58.8-38.1 70.2-40.7 41.9-40.7 41.9zM898.5 567.1s4.8-22.3 28.6-59 47.7-59.6 47.7-59.6-32.4 65.4-42.9 76.8c-10.5 11.4-33.4 41.8-33.4 41.8zM918.2 588.5c2.6-14.5 12-45.2 19.3-56.6 7.3-11.4 42.1-68.8 42.1-68.8s-19.6 50.9-31.8 76-29.6 49.4-29.6 49.4zM937.9 604.1s6.2-32.5 23.4-69.8 27-55.8 27-55.8-19.5 62.5-28.1 82.5c-8.5 20.1-22.3 43.1-22.3 43.1zM963.9 620.5s-2.7-28.9 8.5-62.8 25.7-74.7 25.7-74.7-8.5 79.4-14.2 94.9c-5.6 15.6-20 42.6-20 42.6zM994.7 632.7s-8.7-25.5-2.8-59.2c5.8-33.7 17.3-81.8 17.3-81.8s-2.4 69.1-4.6 87c-2.2 17.8-9.9 54-9.9 54zM1017.4 636.9s-11.8-27.1-8-62.6c3.8-35.4 5.2-73.2 5.2-73.2s13.7 71.9 12.1 80.7c-1.5 8.9-9.3 55.1-9.3 55.1zM1046 639.8s-12.9-39-12.8-58.6c.1-19.6-.5-74.3-.5-74.3s11.7 61.1 12.7 77c.9 15.9.6 55.9.6 55.9zM1046.3 509.2s.6 61.1 8 85.6c7.4 24.5 17 46.6 17 46.6s-.2-28.3-5.2-53.2c-5.1-25-19.8-79-19.8-79zM1057.9 515.7s10.3 60.3 17 78.4c6.7 18.2 20.2 45.2 20.2 45.2s-6.4-54.2-37.2-123.6zM1068.3 517.4s16.8 51.7 34 90.4 20.6 27.4 20.6 27.4-21.3-65.5-54.6-117.8zM1084.3 529s12.8 33.5 23.3 56.7c10.5 23.2 37 44.4 37 44.4s-16.3-37.6-24.8-51.3c-8.5-13.7-35.5-49.8-35.5-49.8zM1101 530.3s10.2 25.6 29.8 52.4c19.6 26.8 42.3 41.4 42.3 41.4s-30.5-43.5-37.7-51c-7.2-7.5-34.4-42.8-34.4-42.8zM1129.4 539.6s9.7 28.5 21.6 45.7c11.9 17.1 37.3 30.2 37.3 30.2s-22.6-29.3-30.2-37.5c-12.6-13.8-28.7-38.4-28.7-38.4zM472.2 1020.2s38.7-51.1 12.6-124.4c-26.1-73.3-52.1-94.6-55.5-99-3.4-4.3-12.1-49.5-36.7-66.2-24.6-16.6-74.3-83.1-106.4-59.1-32.1 24-10 71.5-3.2 90.5s18.6 28.2 25.8 49.2c7.2 21 44.4 13.9 50.8 41.3 6.4 27.4-30.2 42.2 55.9 148.4 22.4 27.7 50.7 29.2 56.7 19.3z" class="colorc7d9f8 svgShape"></path><path fill="#e0f0ff" d="M272 690.4c-.7 1.9-1.3 3.9-1.7 5.8 11-.4 21.3-1.7 22.1-5 .8-3.2-9.2-2.5-20.4-.8zM319.2 716.9c-4.1-2.6-29.4-1.5-49.5-.1.6 5.2 1.7 10.4 3 15.4 21.8-3.5 51.3-12.2 46.5-15.3zM329.5 734c-.2-1.4-30.5 11.2-49.9 19.3 1.3 3.3 2.4 6.3 3.3 8.8.8 2.2 1.6 4.3 2.5 6.2 18.2-10.3 44.3-32.9 44.1-34.3zM344.2 744.2c-4.1-6.3-32.2 19.4-52.7 35.2 2.8 4.5 5.7 8.8 8.5 13.5 19.1-16 47.2-44.2 44.2-48.7zM306.1 804.8c.9 2 1.7 4.2 2.5 6.4 22.1-10.3 56.6-37.3 53.1-37.9-2.9-.5-37.3 18.9-55.6 31.5zM352.7 840.1c.8.8 1.5 1.7 2.2 2.6 14.3-10.2 42.6-31.7 35.9-37.9-6.6-6.3-27.8 21.1-38.1 35.3zM339.7 831.8c.6.3 1.2.5 1.8.8 9.4-8.5 34-31.9 29.2-37.8-5.2-6.4-24.9 25.2-31 37zM360.1 864.4c-.5 4.5-1.5 9.1-2.2 14.4 25.5-6.6 65.6-18.2 64-25.6-1.7-7.4-39.2 3.8-61.8 11.2zM358.2 901.5c.7 3.9 1.7 8.1 3.3 12.8 22.1-11.9 63.9-35 63.6-40-.3-5-42.5 15.1-66.9 27.2zM375 943.7c3.7 6.5 8.2 13.7 13.5 21.5 15.5-15.7 45.8-47.8 41.9-56.5-4.1-9.2-36.7 16.5-55.4 35zM422.6 1008.7c6.2 6 12.6 10.2 18.8 13 3.6-26.6 7.1-64.4-.7-68.9-9.2-5.4-15.6 35.3-18.1 55.9zM464.2 906.8c-2.8 14.7 17.5 34.5 29.5 44.8.2-6.9 0-14.2-1-21.9-12.7-18.1-26.3-34.3-28.5-22.9zM473.9 868c-1.1-2.5-2.1-4.9-3.2-7.2-23.7-12.4-26.7-16.5-26.3-9.6.3 5 15.9 9.5 29.5 16.8zM442.2 811.8c-13.8-4.6-26.5-8.2-21.3-3.7 7.9 6.9 18.2 10.4 27.5 12.2-2.2-3.2-4.3-6-6.2-8.5zM425 785.2c-15-5.1-30.1-9.6-24.5-4.8 7.7 6.8 17.9 10.3 27 12.1-.8-1.9-1.6-4.4-2.5-7.3zM406.6 745.1c-6.4 2-12.9 5.2-11.1 9.5 2 4.8 9.5 1.2 15.5-2.5-1.3-2.4-2.8-4.7-4.4-7zM388.8 727.9c-3.4-2.7-7.2-6-11.3-9.8-4.8 5.6-9.4 13.3-5 16.9 4.1 3.4 11.1-2 16.3-7.1zM333.4 679.3c-3.3-2.3-6.7-4.5-10-6.3.6 9.8 2.2 19.1 4 20.5 2.2 1.6 4.8-5.2 6-14.2zM356.6 719.3c2.9-1.1 1.1-12-1.3-22.1-1.9-1.7-3.7-3.4-5.6-5-.4 16.6 2.3 28.7 6.9 27.1z" class="colore0eaff svgShape"></path><linearGradient id="SVGID_5_" x1="463.03" x2="463.03" y1="1074.098" y2="651.16" gradientTransform="rotate(-8.761 725.151 1276.152)" gradientUnits="userSpaceOnUse"><stop offset="0" stop-color="#629ed2" class="stopColor628cd2 svgShape"></stop><stop offset="1" stop-color="#a7d6ff" stop-opacity=".5" class="stopColora7c1ff svgShape"></stop></linearGradient><path fill="url(#SVGID_5_)" d="M488.6 1108.1h-.4c-1.5 0-2.7-1.2-2.7-2.8.9-145.1-47.2-244.2-87.8-301.8-43.9-62.3-88.4-90.6-88.9-90.9-1.3-.8-1.7-2.5-.9-3.8.8-1.3 2.5-1.7 3.8-.9.5.3 45.9 29.2 90.5 92.3 41 58.2 89.7 158.4 88.8 305-.1 1.6-1.1 2.7-2.4 2.9z"></path><path fill="#b5d6f4" d="M1890.3 946.6c-29.2 17.6-78.8 27.4-84.6 27.8-7.8.6-9.8-8.2-6.7-13.3 3.1-5.2 18.6-5.8 47.7-24.1 15-9.4 25-26.9 31.1-41.7-12.6-24.3-30.7-54.3-31.8-76.7 0 0-23.5 7.4-46.9 9.6-4.3 25.1-16.2 84-31.3 77.2-13.1-5.9-8.6-50.9-4.4-78.6-9.7-.6-20.6 0-33.4 4-2.3 12.8-6.4 38.4-4.4 51.4 2.8 17.7 10.6 45 10.6 45s-6.7 14.6-20.6-28.6c-7-21.8-4.8-44.5-.9-61.7-17.6 8.6-38.7 23.8-64.9 50.1-1.9 1.9-3.6 3.8-5.3 5.6-1.7 14.3-1.2 31.6 6.9 44 16.2 24.7 41.6 37.7 41.6 37.7s11 17.8-7.6 11.6c-17.4-5.8-51.5-15.3-54-75.9-34.7 57.3 14.1 105.9 31.9 118.5 20.1 14.3 47.4-13.2 65.1-6.1 17.7 7.1 1 44 24.1 63.5s69.9 8.3 101.7-35.4c24.8-34.1 34.6-74.8 36.1-103.9zm-51.8-61.9c4.2-5.6 20.6-14.5 14.8 0-5.8 14.5-16.9 28.7-20 17.6-3.2-11.1 1-12 5.2-17.6zm9.8 123.3c-23.2 18.5-49.1 18.5-48.5 11.6.5-6.9 16.4-7.4 27.4-12.1 11.1-4.7 25.3-31.5 35.9-28.9 0-.1 8.4 10.9-14.8 29.4z" class="colorb5caf4 svgShape"></path><path fill="#a7d6ff" d="M539.6 447.3c17.3.5 31 15.7 31 15.7s-14.5 14.4-31.8 13.9-31-15.7-31-15.7 14.4-14.4 31.8-13.9zM565.2 481.5c17.3.5 31 15.7 31 15.7s-14.5 14.4-31.8 13.9-31-15.7-31-15.7 14.5-14.4 31.8-13.9zM580.9 517c16.8-4.2 34 6.8 34 6.8s-10.1 17.7-26.9 21.9c-16.8 4.2-34-6.8-34-6.8s10.1-17.7 26.9-21.9zM606.6 553.1c13.5-3.4 27.3 5.4 27.3 5.4s-8.1 14.2-21.6 17.6c-13.5 3.4-27.3-5.4-27.3-5.4s8-14.2 21.6-17.6zM626.4 589.2c13.5-3.4 27.3 5.4 27.3 5.4s-8.1 14.2-21.6 17.6c-13.5 3.4-27.3-5.4-27.3-5.4s8.1-14.2 21.6-17.6zM580.6 415.9c.1 17.3-14.6 31.5-14.6 31.5s-14.9-14-15-31.3c-.1-17.3 14.6-31.5 14.6-31.5s14.9 14 15 31.3zM608.8 449.1c-4.5 16.7-22.4 26.5-22.4 26.5s-10.6-17.4-6.1-34.2c4.5-16.7 22.4-26.5 22.4-26.5s10.6 17.4 6.1 34.2zM635.9 485.3c-4.5 16.7-22.4 26.5-22.4 26.5s-10.6-17.4-6.1-34.2c4.5-16.7 22.4-26.5 22.4-26.5s10.6 17.5 6.1 34.2zM660.9 526.2c-9.9 14.2-30.1 17.3-30.1 17.3s-4.1-20 5.9-34.2c9.9-14.2 30.1-17.3 30.1-17.3s4 19.9-5.9 34.2zM680.3 565.6c-12.3 12.2-32.7 11.6-32.7 11.6s-.4-20.4 11.9-32.6c12.3-12.2 32.7-11.6 32.7-11.6s.5 20.4-11.9 32.6z" class="colora7c1ff svgShape"></path><path fill="#a7d6ff" d="M667.3 644.4c-.6.4-1.3.5-2 .4-1.8-.4-3.2-2.2-3.3-4.1 0-.5-1.2-38.7-43.5-105.8C575.8 467 538.4 430 538 429.6c-1.4-1.4-1.8-3.6-.7-4.9 1-1.3 3-1.2 4.5.2.4.4 38.5 38 81.9 107 43.8 69.5 44.8 108.5 44.8 110.1 0 1.1-.5 1.9-1.2 2.4z" class="colora7c1ff svgShape"></path><path fill="#a7d6ff" d="M531.1 397c11.9 12.6 10.7 33 10.7 33s-20.4-.1-32.3-12.7c-11.9-12.6-10.7-33-10.7-33s20.4 0 32.3 12.7z" class="colora7c1ff svgShape"></path><path fill="#e0f0ff" d="M451.9 1397.7c-2-.2-3.5-1.9-3.5-4 2.6-170.8-61.8-253.2-116.4-292.2-54.8-39.2-119.2-46.9-154.4-34.3-2.1.7-4.3-.3-5.1-2.4-.7-2.1.3-4.3 2.4-5.1 36.1-12.9 102.1-7.4 161.7 35.3 56.1 40.1 122.4 124.6 119.7 298.8 0 2.2-1.8 3.9-4 3.9h-.4z" class="colore0eaff svgShape"></path><path fill="#e0f0ff" d="M64.3 1100.7s126-54.3 140.2-38.7c14.7 16.2-140.2 38.7-140.2 38.7z" class="colore0eaff svgShape"></path><path fill="#e0f0ff" d="M75.4 1032.7s141.9 23 137.9 28.5c-3.9 5.4-77.6-9-137.9-28.5zM113.2 992.4s26.9 27 66 46.1 57.1 25.3 57.1 25.3-27-26.5-51.5-39.3c-24.5-12.7-71.6-32.1-71.6-32.1zM154.1 961.8s37.2 45.5 56.1 61.7c18.9 16.1 46.5 42.7 46.5 42.7s-22.7-33.9-38.1-50.7c-15.5-16.9-64.5-53.7-64.5-53.7zM197.8 939.4s19.2 48.1 34.5 71.2c15.4 23.1 42 52.2 42 52.2s-16-41.1-28.4-60.6c-12.4-19.4-48.1-62.8-48.1-62.8zM240.6 932.3s14.4 66.3 24.6 88.4c10.1 22.1 31 49.9 31 49.9s-3.3-29.8-16.3-55.9c-13.1-26.1-39.3-82.4-39.3-82.4zM281.4 937s1.1 48.9 12.7 87.1c11.6 38.2 22 58 22 58s-4-46.4-13.1-72.1c-9-25.7-21.6-73-21.6-73zM319.3 949.3s-5.9 34.6 5.4 87.2 16 58.4 16 58.4 3-55.6-1.8-71.8c-4.9-16.2-19.6-73.8-19.6-73.8zM355.8 962.1s-10.9 49.4-5.8 79.9c5.2 30.6 10 70.4 10 70.4s6.7-47.2 5.1-74.3c-1.6-27.2-9.3-76-9.3-76zM395.5 975.9s-19.3 35.1-19.3 81.7-3.3 67.6-3.3 67.6 13.1-49.1 16.7-68.7c3.6-19.6 5.9-80.6 5.9-80.6zM423.4 999.7s-18.4 39.2-23.9 69.9c-5.5 30.7-7.8 68.4-7.8 68.4s15.6-31.5 23-62c7.5-30.5 8.7-76.3 8.7-76.3zM451.5 1022.3s-21.3 23.5-32.8 71.5c-11.4 48-15.2 68.9-15.2 68.9s20.8-42.3 29-67.3c8.2-25.1 19-73.1 19-73.1zM479.5 1051s-23.2 22.3-34 53.1c-10.8 30.7-28.5 80.7-28.5 80.7s27.3-41.2 38.1-66.1 24.4-67.7 24.4-67.7zM496.8 1080.6s-14.4 9.7-36.8 54.4-29.6 73.2-29.6 73.2 25.1-39.1 41.1-62.9 25.3-64.7 25.3-64.7zM518.8 1115.1s-12.5 4.6-36.9 43.7c-24.4 39.2-44.2 78.2-44.2 78.2s27.3-34.9 48.7-65c21.4-30.2 32.4-56.9 32.4-56.9zM527.2 1158.7s-17.2-.6-40.9 38-43.2 63.7-43.2 63.7 42.9-37.7 54.9-55.7 29.2-46 29.2-46zM539.4 1192s-30.4 15.2-53 38.6c-22.6 23.4-38.3 50.2-38.3 50.2s39.5-25.5 56.8-43.1c17.3-17.7 34.5-45.7 34.5-45.7zM450.6 1305.1s10.1-18.8 40.4-45.3c30.3-26.5 49-27.1 49-27.1s-18 17.9-45.3 41.5c-27.3 23.5-44.1 30.9-44.1 30.9zM450.6 1334.4s24-35.2 48.3-43.8c24.3-8.6 39.9-16.8 39.9-16.8s-32.1 30.3-41.7 33.2c-9.8 3-46.5 27.4-46.5 27.4zM212.6 1068s-35.3 40.9-51.4 53.7c-16.1 12.8-61.6 43.9-61.6 43.9s39.9-39.7 57.3-56.1c17.5-16.2 55.7-41.5 55.7-41.5zM236.3 1063.8s-43.1 45.6-53 55.8c-9.8 10.2-35.3 41.3-37.1 51.4-1.8 10.1 44.8-37.9 52.5-46.3 7.7-8.5 37.6-60.9 37.6-60.9zM253.4 1065.7s-16.5 16-37.2 52.2c-20.8 36.3-38.6 70.2-38.6 70.2s45.7-50.3 52.1-65.8c6.4-15.4 23.7-56.6 23.7-56.6zM281.4 1071.2s-19.5 13.8-45.2 52-37.9 70.7-37.9 70.7 49.9-58.3 56.5-73.1c6.7-15 26.6-49.6 26.6-49.6zM310.2 1081.4c-13 8.5-38.7 30.2-46.7 42s-49.1 69-49.1 69 41.2-39.9 60.3-62c19.2-22.2 35.5-49 35.5-49zM333.4 1094s-28.8 19.4-57.8 51.4c-28.9 32-42.8 49.1-42.8 49.1s52.3-44.6 68.2-61.2c15.9-16.5 32.4-39.3 32.4-39.3z" class="colore0eaff svgShape"></path><path fill="#e0f0ff" d="M360 1112.4s-29 9.4-57.2 34.1c-28.1 24.8-61.6 55.6-61.6 55.6s73.2-40.9 85.9-52.8c12.7-11.9 32.9-36.9 32.9-36.9zM384.5 1137.1s-28.2 2.1-58.4 21.7c-30.2 19.5-72 50.4-72 50.4s65.8-30.8 82.2-40.3c16.3-9.4 48.2-31.8 48.2-31.8zM397.9 1157.3s-31.1-.2-63.8 18.1c-32.7 18.3-68.6 35.1-68.6 35.1s75.1-16.4 83-21.5c8-5.1 49.4-31.7 49.4-31.7zM412.4 1183.8s-43 3.6-61.9 11.8c-18.9 8.2-72 30.1-72 30.1s63.9-13.9 79.7-19.5c15.7-5.7 54.2-22.4 54.2-22.4zM286.4 1237.8s59.3-24.6 86-27.5c26.7-3 52-2.7 52-2.7s-27.5 11.5-53.6 16.9c-26.2 5.3-84.4 13.3-84.4 13.3zM297.4 1246.4s62.5-14.9 82.8-15.9c20.3-1 52.1.9 52.1.9s-55.1 16.1-134.9 15zM303.3 1255.8s56.9-5.1 101.4-4.4c44.5.7 35 8.6 35 8.6s-72 6.4-136.4-4.2zM321.1 1266.4s37.7-1.4 64.5-.8c26.8.6 58.2 17.4 58.2 17.4s-43-.2-59.8-2.8c-16.9-2.5-62.9-13.8-62.9-13.8zM329.3 1282s29-.7 62.9 7.2c34 7.9 57.4 23.8 57.4 23.8s-54.6-11.5-64.8-15.4c-10.2-3.8-55.5-15.6-55.5-15.6zM350 1305.7s31.6-2.4 53 2c21.5 4.4 44.6 23.6 44.6 23.6s-37.6-9.8-48.7-13.7c-18.5-6.5-48.9-11.9-48.9-11.9z" class="colore0eaff svgShape"></path><path fill="#a7d6ff" d="M1954.7 1119.5c-21.8-4.6-43.4 10.3-43.4 10.3s13.8 22.3 35.6 26.8c21.8 4.6 43.4-10.3 43.4-10.3s-13.8-22.2-35.6-26.8zM1912.4 1154.7c-21.8-4.6-43.4 10.3-43.4 10.3s13.8 22.3 35.6 26.8c21.8 4.6 43.4-10.3 43.4-10.3s-13.8-22.2-35.6-26.8zM1882.2 1194.3c-19.8-10.3-44.5-1.7-44.5-1.7s7.3 25.2 27.1 35.4c19.8 10.3 44.5 1.7 44.5 1.7s-7.3-25.1-27.1-35.4zM1839.4 1231.8c-15.9-8.2-35.8-1.4-35.8-1.4s5.9 20.2 21.7 28.4c15.9 8.2 35.8 1.4 35.8 1.4s-5.8-20.2-21.7-28.4zM1803.8 1270.9c-15.9-8.2-35.8-1.4-35.8-1.4s5.9 20.2 21.7 28.4c15.9 8.2 35.8 1.4 35.8 1.4s-5.8-20.1-21.7-28.4zM1912.8 1068.1c-5.3 21.6 8.8 43.7 8.8 43.7s22.7-13 28.1-34.6c5.3-21.6-8.8-43.7-8.8-43.7s-22.8 13-28.1 34.6zM1867.7 1101.1c.6 22.3 20.1 39.8 20.1 39.8s18.5-18.6 17.8-40.8c-.6-22.3-20.1-39.8-20.1-39.8s-18.5 18.6-17.8 40.8zM1823 1138.3c.6 22.3 20.1 39.8 20.1 39.8s18.5-18.6 17.8-40.8c-.6-22.3-20.1-39.8-20.1-39.8s-18.5 18.5-17.8 40.8zM1779.6 1181.9c8.2 20.7 32.4 30.6 32.4 30.6s11.1-23.8 2.9-44.5-32.4-30.6-32.4-30.6-11.1 23.7-2.9 44.5zM1743.5 1225.3c11.7 18.9 37.4 24.3 37.4 24.3s6.6-25.4-5.1-44.3-37.4-24.3-37.4-24.3-6.7 25.4 5.1 44.3z" class="colora7c1ff svgShape"></path><path fill="#a7d6ff" d="M1736.2 1327.7c.6.6 1.4 1 2.4 1.1 2.3.1 4.7-1.8 5.3-4.1.2-.6 13.1-48 85.9-119.2 73.7-72.1 131.6-107.2 132.1-107.5 2.2-1.3 3.3-4 2.4-5.9-.9-1.9-3.4-2.4-5.7-1.1-.6.4-59.5 36-134.3 109.2-75.5 73.8-88.4 122.2-88.9 124.2-.2 1.3.1 2.5.8 3.3z" class="colora7c1ff svgShape"></path><path fill="#a7d6ff" d="M1980.3 1059.2c-18.6 12.2-23.3 38-23.3 38s25.5 5.9 44.1-6.3 23.3-38 23.3-38-25.4-5.9-44.1 6.3z" class="colora7c1ff svgShape"></path><path fill="#95c5ef" d="M1453.4 744.2c1.6 0 2.9-1.2 3-2.8 11.3-131.4 67.3-189.7 112.3-215.4 45.2-25.8 95.2-26.7 121.3-14.3 1.5.7 3.4.1 4.1-1.4.7-1.5.1-3.4-1.4-4.1-26.7-12.8-77.8-13.7-127 14.5-46.2 26.4-103.8 86.1-115.3 220.2-.1 1.7 1.1 3.2 2.8 3.3h.2z" class="color95baef svgShape"></path><path fill="#95c5ef" d="M1783.9 543.4s-92.6-51.5-104.7-40.7c-12.6 11.3 104.7 40.7 104.7 40.7z" class="color95baef svgShape"></path><path fill="#95c5ef" d="M1780.7 490.3s-110.8 6.6-108.2 11.1 60.3-.8 108.2-11.1zM1754.7 456.4s-22.8 18.7-54.3 30.3c-31.5 11.6-45.8 14.9-45.8 14.9s22.8-18.2 42.6-26.1c19.9-7.9 57.5-19.1 57.5-19.1zM1725.8 429.7s-32.2 32.1-47.9 43c-15.8 10.9-39.1 29.2-39.1 29.2s20.1-24.3 33.3-35.9c13.1-11.9 53.7-36.3 53.7-36.3zM1693.9 409.1s-18.5 35.5-32.1 52c-13.6 16.5-36.4 36.9-36.4 36.9s15.5-30.3 26.6-44.3c11.1-14.1 41.9-44.6 41.9-44.6zM1661.6 400.3s-16.3 49.8-25.8 66c-9.5 16.2-27.7 35.9-27.7 35.9s4.8-22.6 16.9-41.7c12-19.1 36.6-60.2 36.6-60.2zM1629.9 400.6s-4.7 37.4-16.6 65.9-21.5 42.9-21.5 42.9 6.7-35.3 15.7-54.3 22.4-54.5 22.4-54.5zM1599.8 407.1s1.9 27.1-11 66.6c-12.8 39.5-16.9 43.6-16.9 43.6s2-42.9 7-55c5.1-12.1 20.9-55.2 20.9-55.2zM1570.8 414.1s4.5 38.8-1.8 61.8c-6.4 23.1-13.2 53.3-13.2 53.3s-1.5-36.8 1.9-57.5c3.3-20.7 13.1-57.6 13.1-57.6zM1539.2 421.6s12.1 28.5 8.4 64.3c-3.7 35.8-2.8 52.2-2.8 52.2s-6.3-38.8-7.5-54.1c-1.1-15.3 1.9-62.4 1.9-62.4zM1515.9 437.8s11.1 31.5 12.9 55.5c1.8 24 .6 53.1.6 53.1s-9.5-25.4-12.8-49.4c-3.4-24-.7-59.2-.7-59.2zM1492.6 452.9s14.5 19.7 19.6 57.5c5 37.8 6.3 54.1 6.3 54.1s-12.7-34.1-17-54c-4.4-19.9-8.9-57.6-8.9-57.6zM1468.8 472.8s16.1 19 22 43.4c5.9 24.5 15.6 64.2 15.6 64.2s-17.8-33.8-24.1-53.7c-6.5-20-13.5-53.9-13.5-53.9zM1453.2 494.2s10.3 8.6 24 44.7 17 58.6 17 58.6-16.2-32-26.7-51.5c-10.3-19.7-14.3-51.8-14.3-51.8zM1433.6 519s9.3 4.5 25 36.5 27.8 63.5 27.8 63.5-18.2-28.9-32.3-53.8c-14.1-24.9-20.5-46.2-20.5-46.2zM1423.7 551.8s13.3.9 28.5 32.4 28.2 52.3 28.2 52.3-30-32.3-37.9-47.1c-7.8-14.8-18.8-37.6-18.8-37.6zM1411.8 576.4s22.1 14 37.7 33.8c15.6 19.7 25.5 41.6 25.5 41.6s-28.4-22.7-40.3-37.6c-11.9-14.9-22.9-37.8-22.9-37.8zM1471.1 670.3s-6.3-15.3-27.5-38-35.5-24.6-35.5-24.6 12.4 15.2 31.6 35.4 31.4 27.2 31.4 27.2zM1468.8 692.8s-15.7-28.9-33.7-37.4c-18-8.5-29.3-16-29.3-16s22.3 25.8 29.5 28.8c7.2 2.9 33.5 24.6 33.5 24.6zM1672.5 506.7s24 34.2 35.3 45.3c11.4 11.1 43.9 38.6 43.9 38.6s-27.5-33.7-39.7-47.6c-12.1-13.9-39.5-36.3-39.5-36.3zM1654.6 501.6s29.6 38.4 36.3 47 23.9 34.5 24.5 42.4c.6 7.9-31.4-32.6-36.7-39.7-5.2-7.1-24.1-49.7-24.1-49.7zM1641.3 501.8s11.4 13.6 24.5 43.1 24.2 56.9 24.2 56.9-31.2-42.2-34.9-54.6c-3.7-12.4-13.8-45.4-13.8-45.4zM1619.4 503.8s13.9 12.1 30.7 43.5c16.7 31.3 23.6 57.3 23.6 57.3S1640 555.9 1636 544c-4-12.1-16.6-40.2-16.6-40.2zM1596.4 509.4c9.3 7.6 27.4 26.2 32.6 35.9 5.2 9.6 32.4 56.8 32.4 56.8s-28.5-33.9-41.5-52.4-23.5-40.3-23.5-40.3zM1577.6 517.2s20.6 17.1 40.4 44c19.7 26.8 29.1 41 29.1 41s-36.7-38.4-47.6-52.3c-10.9-13.9-21.9-32.7-21.9-32.7zM1555.8 529.3s21.6 9.5 41.2 30.7c19.7 21.2 43 47.5 43 47.5s-53.1-37.2-61.9-47.3c-8.8-10.2-22.3-30.9-22.3-30.9zM1535.1 546.4s21.5 3.8 43.2 21.2 51.4 44.4 51.4 44.4-48.1-28.8-60-37.4c-11.9-8.6-34.6-28.2-34.6-28.2zM1523.1 560.8s23.9 2.3 47.6 18.9 49.9 32.4 49.9 32.4-56.4-18.5-62.1-23c-5.6-4.6-35.4-28.3-35.4-28.3zM1509.9 580s32.8 6.1 46.7 13.9c13.9 7.8 53 28.8 53 28.8s-48-15.7-59.7-21.2c-11.7-5.6-40-21.5-40-21.5zM1602.5 631.4s-43.6-23.5-63.9-27.9c-20.3-4.4-39.7-6.2-39.7-6.2s20.2 11 39.9 17.2c19.6 6.2 63.7 16.9 63.7 16.9zM1593.4 637.1s-46.9-16.3-62.4-18.7-40.1-3.4-40.1-3.4 41.1 16.7 102.5 22.1zM1588.1 643.8s-43.3-8.4-77.6-11.3c-34.2-3-27.5 3.9-27.5 3.9s54.8 10.6 105.1 7.4zM1573.6 650.7s-28.8-4-49.5-5.7c-20.6-1.7-46.1 8.9-46.1 8.9s33.1 3.2 46.2 2.5c13.2-.7 49.4-5.7 49.4-5.7zM1566.1 662s-22.2-2.8-48.9.6-46 13.8-46 13.8 42.9-4.6 51-6.7c8.2-2.2 43.9-7.7 43.9-7.7zM1548.4 678.5s-24.1-4.3-40.9-2.6c-16.8 1.7-36.1 14.6-36.1 14.6s29.6-4.6 38.5-6.7c14.7-3.5 38.5-5.3 38.5-5.3z" class="color95baef svgShape"></path></g><g id="Layer_2" fill="#000000" class="color000000 svgShape"><linearGradient id="SVGID_6_" x1="1006.595" x2="1006.595" y1="1584.539" y2="1421.999" gradientTransform="translate(69.6)" gradientUnits="userSpaceOnUse"><stop offset="0" stop-color="#2c6aa1" class="stopColor2c49a1 svgShape"></stop><stop offset="1"></stop></linearGradient><path fill="url(#SVGID_6_)" d="M1290.5 1584.5H887.7L861.9 1422h402.8z"></path><path fill="#1a4d7a" d="M1683.8 1436.5H375.6c-13.5 0-25.6-5.4-34-15.1-8.4-9.7-12.1-22.9-10.3-36.3l116.2-826.8c3.7-26.5 27.5-47.3 54.1-47.3h1308.2c13.5 0 25.6 5.4 34 15.1 8.4 9.7 12.1 22.9 10.3 36.3l-116.2 826.8c-3.8 26.5-27.5 47.3-54.1 47.3zM501.6 540.1c-12 0-23.6 10.2-25.3 22.3l-116.2 826.8c-.7 5.1.5 9.8 3.4 13.2 2.8 3.3 7.2 5.1 12.1 5.1h1308.2c12 0 23.6-10.2 25.3-22.3l116.2-826.8c.7-5.1-.5-9.8-3.4-13.2-2.8-3.3-7.2-5.1-12.1-5.1H501.6z" class="color1a317a svgShape"></path><path fill="#2c6aa1" d="M1324.6 1600h-489c-9.3 0-16.9-6-17-13.4-.1-7.5 7.5-13.6 17-13.6h489c9.3 0 16.9 6 17 13.4.1 7.5-7.6 13.6-17 13.6z" class="color2c49a1 svgShape"></path><path fill="#c6e0f7" d="M1683.8 1422H375.6c-19.2 0-32.6-15.6-29.9-34.8l116.2-826.8c2.7-19.2 20.5-34.8 39.7-34.8h1308.2c19.2 0 32.6 15.6 29.9 34.8l-116.2 826.8c-2.7 19.2-20.5 34.8-39.7 34.8z" class="colorc6d8f7 svgShape"></path><path fill="#8dc8fc" d="M1809.7 525.6H501.6c-19.2 0-37 15.6-39.7 34.8l-7.2 51h1377.8l7.2-51c2.7-19.2-10.7-34.8-30-34.8z" class="color8da4fc svgShape"></path><ellipse cx="510.9" cy="563.2" fill="#3875ac" rx="13.6" ry="11.6" transform="rotate(-39.122 510.973 563.201)" class="color3863ac svgShape"></ellipse><path fill="#3875ac" d="M565.2 563.2c-1.1 6.9-7.7 12.4-14.7 12.4-7 0-11.8-5.6-10.7-12.4 1.1-6.9 7.7-12.4 14.7-12.4 7 0 11.8 5.5 10.7 12.4z" class="color3863ac svgShape"></path><ellipse cx="594.1" cy="563.2" fill="#3875ac" rx="13.6" ry="11.6" transform="rotate(-39.122 594.079 563.186)" class="color3863ac svgShape"></ellipse><path fill="#ffffff" d="M1047.4 1119.8h-608c-15.3 0-26-12.4-23.9-27.8 2.2-15.3 16.3-27.8 31.7-27.8h608c15.3 0 26 12.4 23.9 27.8-2.2 15.4-16.4 27.8-31.7 27.8z" opacity=".5" class="colorffffff svgShape"></path><g opacity=".85" fill="#000000" class="color000000 svgShape"><path fill="#b5d6f4" d="M1563 1030.9H771.6c-23.5 0-39.9-19.1-36.6-42.5l38.8-275.8c3.3-23.5 25-42.5 48.5-42.5h791.4c23.5 0 39.9 19.1 36.6 42.5l-38.8 275.8c-3.2 23.4-25 42.5-48.5 42.5z" class="colorb5caf4 svgShape"></path></g><g opacity=".85" fill="#000000" class="color000000 svgShape"><path fill="#b5d6f4" d="m621.3 833.5-149.9-.3c-15.4 0-26.1-11.3-23.9-25.2l17.2-108.4c2.2-13.9 16.5-25.1 31.9-25.1l149.9.3c15.4 0 26.1 11.3 23.9 25.2l-17.2 108.4c-2.3 13.9-16.5 25.1-31.9 25.1z" class="colorb5caf4 svgShape"></path></g><g opacity=".85" fill="#000000" class="color000000 svgShape"><path fill="#b5d6f4" d="m602.1 1026.3-149.9-.3c-15.4 0-26.1-11.3-23.9-25.2l17.2-108.4c2.2-13.9 16.5-25.1 31.9-25.1l149.9.3c15.4 0 26.1 11.3 23.9 25.2L634 1001.3c-2.2 13.9-16.5 25.1-31.9 25z" class="colorb5caf4 svgShape"></path></g><ellipse cx="905.3" cy="788" fill="#e4f2ff" rx="51.7" ry="44.9" transform="rotate(-41.875 905.385 788.005)" class="colore4eeff svgShape"></ellipse><path fill="#e4f2ff" d="M953.5 834.5c-1.9-2.3-5.6-1.9-7.9.6-12.8 13.9-31 22.8-50 22.8s-34.7-8.9-43.6-22.8c-1.6-2.5-5.2-2.8-7.7-.6-19.7 17.6-34.2 43.5-38.3 72.3-1.2 8.3-1.4 16.3-.8 24 .2 2.4 2.1 4.1 4.5 4.1h150.1c2.5 0 4.8-1.7 5.7-4.1 2.8-7.7 4.8-15.7 6-24 3.9-28.8-3.3-54.7-18-72.3zM1381.3 854.4h-319.9c-10.1 0-17.1-8.2-15.7-18.3l.9-6.4c1.4-10.1 10.8-18.3 20.8-18.3h319.9c10.1 0 17.1 8.2 15.7 18.3l-.9 6.4c-1.4 10.1-10.7 18.3-20.8 18.3zM1225.3 772.7h-152.5c-10.1 0-17.1-8.2-15.7-18.3l.6-4c1.4-10.1 10.8-18.3 20.8-18.3H1231c10.1 0 17.1 8.2 15.7 18.3l-.6 4c-1.3 10.1-10.7 18.3-20.8 18.3zM1539.6 934.8h-489.5c-10.1 0-17.1-8.2-15.7-18.3l.9-6.4c1.4-10.1 10.8-18.3 20.8-18.3h489.5c10.1 0 17.1 8.2 15.7 18.3l-.9 6.4c-1.3 10.1-10.7 18.3-20.8 18.3z" class="colore4eeff svgShape"></path><path fill="#0583f2" d="M1087.5 1172H634.3c-18.7 0-31.7-15.2-29.1-33.9l10.5-74.8c2.6-18.7 19.9-33.9 38.6-33.9h453.2c18.7 0 31.7 15.2 29.1 33.9l-10.5 74.8c-2.6 18.7-19.9 33.9-38.6 33.9z" class="color628cd2 svgShape"></path><path fill="#a7d6ff" d="M1074 1155.1H620.8c-18.7 0-31.7-15.2-29.1-33.9l10.5-74.8c2.6-18.7 19.9-33.9 38.6-33.9H1094c18.7 0 31.7 15.2 29.1 33.9l-10.5 74.8c-2.6 18.8-19.9 33.9-38.6 33.9z" class="colora7c1ff svgShape"></path><path fill="#319eff" d="m1073.3 1051.9-21.7 14.3c3.4 5.2 4.9 11.8 3.9 19-2.4 17-18.2 30.9-35.2 30.9l-3.1 22.2c12 0 22.7-3.3 33.4-10.4 26.8-17.7 36.9-51.7 22.7-76z" class="colorffac31 svgShape"></path><path fill="#2c6aa2" d="m1051.6 1066.2 21.7-14.3c-8.5-14.6-22.8-22.4-40.8-22.4l-3.5 24.8c9.8.1 18 4.7 22.6 11.9z" class="color2c49a2 svgShape"></path><path fill="#1a4d7a" d="M993.8 1085.2c2.4-17 18.2-30.9 35.2-30.9l3.5-24.8c-30 0-57.8 24.3-62 54.4-4.2 30 16.7 54.4 46.7 54.4l3.1-22.2c-17 0-28.9-13.8-26.5-30.9z" class="color1a317a svgShape"></path><path fill="#e0f0ff" d="M849.6 1072.8H642.2c-7 0-11.9-5.7-10.9-12.7 1-7 7.5-12.7 14.5-12.7h207.3c7 0 11.9 5.7 10.9 12.7-.9 7-7.4 12.7-14.4 12.7zM889.1 1120.4H635.6c-7 0-11.9-5.7-10.9-12.7 1-7 7.5-12.7 14.5-12.7h253.5c7 0 11.9 5.7 10.9 12.7-1.1 7-7.5 12.7-14.5 12.7z" class="colore0eaff svgShape"></path><path fill="#0583f2" d="M483.7 1001.7h-234c-14 0-23.5-11.3-21.3-25.3l8.6-54.3c2.2-14 15.4-25.3 29.3-25.3h234c14 0 23.5 11.3 21.3 25.3l-8.6 54.3c-2.2 14-15.3 25.3-29.3 25.3z" class="color628cd2 svgShape"></path><path fill="#a7d6ff" d="M475.2 990.9h-234c-14 0-23.5-11.3-21.3-25.3l8.6-54.3c2.2-14 15.4-25.3 29.3-25.3h234c14 0 23.5 11.3 21.3 25.3l-8.6 54.3c-2.1 13.9-15.3 25.3-29.3 25.3z" class="colora7c1ff svgShape"></path><path fill="#1a4d7a" d="M393.2 929.6H257.9c-4.3 0-7.2-3.5-6.5-7.7l.1-.9c.7-4.3 4.7-7.7 9-7.7h135.4c4.3 0 7.2 3.5 6.5 7.7l-.1.9c-.8 4.2-4.8 7.7-9.1 7.7zM460.2 960.3H253c-4.3 0-7.2-3.5-6.5-7.7l.1-.9c.7-4.3 4.7-7.7 9-7.7h207.2c4.3 0 7.2 3.5 6.5 7.7l-.1.9c-.8 4.3-4.8 7.7-9 7.7z" class="color1a317a svgShape"></path><ellipse cx="639.8" cy="818.9" fill="#0583f2" rx="38.3" ry="33.3" transform="rotate(-42.99 639.794 818.898)" class="color628cd2 svgShape"></ellipse><ellipse cx="635.8" cy="814.7" fill="#2c6aa2" rx="38.3" ry="33.3" transform="rotate(-42.99 635.804 814.673)" class="color2c49a2 svgShape"></ellipse><path fill="#178ffa" d="m630.7 834.7-18.2-27.8c-1.4-2.2-.9-5.6 1.2-7.6s4.9-2 6.3.2l11.7 17.9 27.2-40c1.7-2.5 4.6-3.2 6.4-1.6 1.9 1.6 2 4.9.3 7.4l-34.9 51.5z" class="colorfa8b17 svgShape"></path><path fill="#2c6aa2" d="m507.5 779.9-115.8-.3c-16.4 0-27.1-16.8-23.8-37.4l10.4-64.7c3.3-20.6 19.3-37.3 35.8-37.2l115.8.3c16.4 0 27.1 16.8 23.8 37.4l-10.4 64.7c-3.3 20.6-19.3 37.3-35.8 37.2z" class="color2c49a2 svgShape"></path><linearGradient id="SVGID_7_" x1="275.997" x2="275.997" y1="767.368" y2="628.967" gradientTransform="matrix(.9929 .0028 -.319 1.0062 399.906 -2.364)" gradientUnits="userSpaceOnUse"><stop offset="0" stop-color="#1892ff" class="stopColorff5f18 svgShape"></stop><stop offset=".444" stop-color="#2296ff" class="stopColorff7e22 svgShape"></stop><stop offset="1" stop-color="#319eff" class="stopColorffab31 svgShape"></stop></linearGradient><path fill="url(#SVGID_7_)" d="m497.9 770.7-115.8-.3c-16.4 0-27.1-16.8-23.8-37.4l10.4-64.7c3.3-20.6 19.3-37.3 35.8-37.2l115.8.3c16.4 0 27.1 16.8 23.8 37.4l-10.4 64.7c-3.3 20.6-19.3 37.3-35.8 37.2z"></path><path fill="#e0f0ff" d="M457.3 735.1c-1 6.8-6.8 12.4-12.9 12.4-6.1 0-10.2-5.6-9.2-12.4 1-6.8 6.8-12.4 12.9-12.4 6.1 0 10.2 5.5 9.2 12.4zM509.3 695.8c-1.6 0-3-.7-3.9-2.1-11.1-16.6-28.9-26.2-49-26.3-20-.1-40.7 9.4-56.7 26-2.5 2.6-6.2 2.8-8.2.4-2-2.4-1.5-6.5 1-9.2 18.6-19.2 42.6-30.2 65.9-30.1 23.3.1 44 11.2 56.9 30.5 1.8 2.6 1 6.7-1.7 9.2-1.4 1-2.9 1.6-4.3 1.6z" class="colore0eaff svgShape"></path><path fill="#e0f0ff" d="M485.1 718.4c-1.4 0-2.8-.6-3.7-1.8-7.4-9.4-18.1-14.6-30.1-14.6-12.1 0-24.3 5.1-34.5 14.4-2.7 2.5-6.3 2.4-8.1-.2-1.8-2.6-1.1-6.7 1.6-9.2 12.6-11.7 27.9-18 43-18 15.1 0 28.4 6.5 37.6 18.2 1.9 2.5 1.4 6.6-1.2 9.2-1.5 1.3-3.1 2-4.6 2z" class="colore0eaff svgShape"></path><path fill="#2c6aa2" d="M1308.4 483.4h-172.2c-11.2 0-21.2 7.1-22.5 15.8l-14.3 101.5c-1.2 8.7 6.8 15.8 18 15.8h126.8l44.5 26.7c2 1.2 5.2-.4 4.8-2.4l-4.9-24.3h1c11.2 0 21.2-7.1 22.5-15.8l14.3-101.5c1.3-8.7-6.8-15.8-18-15.8z" class="color2c49a2 svgShape"></path><linearGradient id="SVGID_8_" x1="1204.556" x2="1204.556" y1="637.478" y2="477.256" gradientUnits="userSpaceOnUse"><stop offset="0" stop-color="#1892ff" class="stopColorff5f18 svgShape"></stop><stop offset=".444" stop-color="#2296ff" class="stopColorff7e22 svgShape"></stop><stop offset="1" stop-color="#319eff" class="stopColorffab31 svgShape"></stop></linearGradient><path fill="url(#SVGID_8_)" d="M1300 477.3h-172.2c-11.2 0-21.2 7.1-22.5 15.8L1091 594.6c-1.2 8.7 6.8 15.8 18 15.8h126.8l44.5 26.7c2 1.2 5.2-.4 4.8-2.4l-4.9-24.3h1c11.2 0 21.2-7.1 22.5-15.8L1318 493c1.3-8.7-6.8-15.7-18-15.7z"></path><path fill="#e4f2ff" d="M1225.1 550.7h-114c-3 0-5.1-2.5-4.7-5.5l.4-2.6c.4-3 3.2-5.5 6.2-5.5h114c3 0 5.1 2.5 4.7 5.5l-.4 2.6c-.3 3.1-3.1 5.5-6.2 5.5zM1170.1 524.9h-55.3c-3 0-5.1-2.5-4.7-5.5l.3-1.9c.4-3 3.2-5.5 6.2-5.5h55.3c3 0 5.1 2.5 4.7 5.5l-.3 1.9c-.4 3.1-3.2 5.5-6.2 5.5zM1281.1 576.2h-173.5c-3 0-5.1-2.5-4.7-5.5l.4-2.6c.4-3 3.2-5.5 6.2-5.5H1283c3 0 5.1 2.5 4.7 5.5l-.4 2.6c-.4 3-3.2 5.5-6.2 5.5z" class="colore4eeff svgShape"></path><path fill="#0583f2" d="M1377 611.8h198c12.9 0 22.1 8.1 20.7 18.1l-16.4 116.8c-1.4 10-13 18.1-25.8 18.1h-145.8l-59.8 30.7c-2.7 1.4-5.8-.4-4.7-2.8l13.5-27.9h-1.2c-12.9 0-22.1-8.1-20.7-18.1l16.4-116.8c1.4-10 12.9-18.1 25.8-18.1z" class="color628cd2 svgShape"></path><path fill="#8dc8fc" d="M1366.5 601.4h198c12.9 0 22.1 8.1 20.7 18.1l-16.4 116.8c-1.4 10-13 18.1-25.8 18.1h-145.8l-59.8 30.7c-2.7 1.4-5.8-.4-4.7-2.8l13.5-27.9h-1.2c-12.9 0-22.1-8.1-20.7-18.1l16.4-116.8c1.3-10 12.9-18.1 25.8-18.1z" class="color8da4fc svgShape"></path><path fill="#2c6aa2" d="M1366.5 601.4h198c12.9 0 22.1 8.1 20.7 18.1l-2 14.1h-244.6l2-14.1c1.4-10 13-18.1 25.9-18.1z" class="color2c49a2 svgShape"></path><path fill="#e4f2ff" d="M1500.9 695.7h-110.4c-2.9 0-5-2.4-4.6-5.3l.4-2.5c.4-2.9 3.1-5.3 6.1-5.3h110.4c2.9 0 5 2.4 4.6 5.3l-.4 2.5c-.4 2.9-3.1 5.3-6.1 5.3zM1447.6 670.7H1394c-2.9 0-5-2.4-4.6-5.3l.3-1.8c.4-2.9 3.1-5.3 6.1-5.3h53.6c2.9 0 5 2.4 4.6 5.3l-.3 1.8c-.5 2.9-3.2 5.3-6.1 5.3zM1555.1 720.3h-168c-2.9 0-5-2.4-4.6-5.3l.4-2.5c.4-2.9 3.1-5.3 6.1-5.3h168c2.9 0 5 2.4 4.6 5.3l-.4 2.5c-.5 3-3.2 5.3-6.1 5.3z" class="colore4eeff svgShape"></path><path fill="#2c6aa2" d="M1367.4 664.5c-.5 3.4-3.7 6.2-7.1 6.2s-5.8-2.8-5.3-6.2c.5-3.4 3.7-6.2 7.1-6.2 3.4 0 5.8 2.7 5.3 6.2zM1363.9 689.1c-.5 3.4-3.7 6.2-7.1 6.2s-5.8-2.8-5.3-6.2c.5-3.4 3.7-6.2 7.1-6.2 3.4 0 5.8 2.8 5.3 6.2zM1360.5 713.8c-.5 3.4-3.7 6.2-7.1 6.2-3.4 0-5.8-2.8-5.3-6.2s3.7-6.2 7.1-6.2c3.4-.1 5.7 2.7 5.3 6.2z" class="color2c49a2 svgShape"></path><path fill="#0583f2" d="M836.4 734.6H724.8c-10.1 0-17.1-8.2-15.7-18.3l15.7-111.7c1.4-10.1 10.8-18.3 20.9-18.3h111.7c10.1 0 17.1 8.2 15.7 18.3l-15.7 111.7c-1.5 10.1-10.9 18.3-21 18.3z" class="color628cd2 svgShape"></path><path fill="#2c6aa2" d="M828.5 725.1H716.9c-10.1 0-17.1-8.2-15.7-18.3l15.7-111.7c1.4-10.1 10.8-18.3 20.9-18.3h111.7c10.1 0 17.1 8.2 15.7 18.3l-15.7 111.7c-1.5 10.1-10.9 18.3-21 18.3z" class="color2c49a2 svgShape"></path><path fill="#178ffa" d="M825.3 678.7c4.7 0 6.5 5.5 2.9 9-3.9 3.9-8.5 7.2-13.7 9.9-10.2 5.2-22 7.9-35.6 7.9-13.1 0-24.1-2.2-33.1-6.7-8.9-4.4-15.1-11-18.5-19.6-3.4-8.6-4.4-18.1-3-28.2 1.6-11.2 5.7-21.6 12.3-31.2 6.6-9.6 14.9-16.9 24.8-21.7 9.9-4.8 20.7-7.2 32.5-7.2 10 0 18.7 1.9 25.9 5.8 7.2 3.9 12.4 9.4 15.5 16.6 3.1 7.2 4.1 15 2.9 23.5-1.4 10.1-5.8 19.3-13.2 27.5-9.3 10.3-20.1 15.5-32.3 15.5-3.3 0-5.7-.6-7.2-1.7-1.5-1.2-2.4-2.8-2.6-5.1-5.3 4.5-11.1 6.8-17.2 6.8-6.6 0-11.8-2.3-15.5-6.8-3.7-4.6-5-10.6-4-18.2 1.3-9.3 5.1-17.9 11.5-25.6 7.7-9.4 16.5-14.1 26.4-14.1 7.1 0 11.9 2.7 14.5 8.1l.2-.6c1.3-3.5 4.8-6 8.4-6 4.9 0 8 4.5 6.3 9.3l-11.7 33.4c-.9 2.7-1.5 4.5-1.6 5.2-.1 1 0 1.7.4 2.2.4.5.9.7 1.5.7 1.9 0 4.5-1.2 7.9-3.5 4.5-3 8.3-7.1 11.6-12.2 3.2-5.1 5.2-10.4 6-15.8 1.4-9.8-1-18-7.2-24.5-6.2-6.6-15.6-9.9-28.3-9.9-10.8 0-20.2 2.2-28.3 6.6-8.1 4.4-14.6 10.6-19.5 18.6-4.9 8-8 16.3-9.2 24.9-1.2 8.4-.1 16 3.1 22.9 3.3 6.9 8.5 11.9 15.7 15.1 7.2 3.2 15.7 4.7 25.6 4.7 9.5 0 17.9-1.3 25.1-4 6.4-2.3 11.8-5.7 16.4-10.1 1.1-.9 2.7-1.5 4.3-1.5zm-63.6-24.5c-.7 5.1-.2 8.8 1.5 11.2 1.7 2.4 4.1 3.6 7.1 3.6 2.3 0 4.5-.6 6.6-1.7 1.6-.8 3.3-2 5-3.8 2.4-2.4 4.8-6 7-10.6 2.2-4.7 3.6-9 4.1-13 .9-6.5-.7-10.8-4.8-13-1.2-.6-2.6-1-4-1-3.5-.1-7 1.2-10.3 4-3.3 2.6-6 6.4-8.2 11.3-2.1 4.8-3.5 9.2-4 13z" class="colorfa8b17 svgShape"></path><path fill="#0583f2" d="M1799.3 1039.8h-338.5c-20.3 0-34.3-17.8-31.2-39.8l21-149.1c3.1-22 22.1-39.8 42.4-39.8h338.5c20.3 0 34.3 17.8 31.2 39.8l-21 149.1c-3.1 22-22.1 39.8-42.4 39.8z" class="color628cd2 svgShape"></path><path fill="#a7d6ff" d="M1784.6 1024.3h-338.5c-20.3 0-34.3-17.8-31.2-39.8l21-149.1c3.1-22 22.1-39.8 42.4-39.8h338.5c20.3 0 34.3 17.8 31.2 39.8l-21 149.1c-3.2 22-22.1 39.8-42.4 39.8z" class="colora7c1ff svgShape"></path><path fill="#178ffa" d="M1662.1 854.5c-1.5 10.3-8.7 19.2-18 23.5l6.2 17.9c17.6-8 29.1-23.1 31.7-41.4h-19.9z" class="colorfa8b17 svgShape"></path><path fill="#a7d6ff" d="m1642.4 808.4-2.8 19.9c14.4 0 24.5 11.7 22.5 26.1h19.9c3.6-25.3-14.2-46-39.6-46z" class="colora7c1ff svgShape"></path><path fill="#2c6aa2" d="M1632.3 880.7c-14.4 0-24.5-11.7-22.5-26.1s15.4-26.1 29.8-26.1l2.8-19.9c-7.1 0-14 1.5-20.8 4.7-24.4 11.2-37.8 38.7-29.9 61.6 7.9 22.9 34.2 32.4 58.6 21.2l-6.2-17.9c-3.7 1.5-7.7 2.5-11.8 2.5z" class="color2c49a2 svgShape"></path><path fill="#1a4d7a" d="m1521.3 808.5-2.8 19.9c14.4 0 24.5 11.7 22.5 26.1-1.2 8.7-6.6 16.4-13.8 21.1l9.5 16.1c13.6-9 22.1-22 24.2-37.3 3.6-25.3-14.1-45.9-39.6-45.9zM1527.2 875.6c-4.8 3.1-10.3 5-16.1 5-14.4 0-24.5-11.7-22.5-26.1h-19.9c-1.4 10.2.2 18.8 5 27.1 12.1 20.6 40.2 25.1 62.9 10.2l-9.4-16.2z" class="color1a317a svgShape"></path><path fill="#0583f2" d="m1518.5 828.4 2.8-19.9c-25.4 0-49 20.6-52.5 46.1h19.9c2-14.5 15.4-26.2 29.8-26.2z" class="color628cd2 svgShape"></path><path fill="#2c6aa2" d="m1764 808.5-2.8 19.9c14.4 0 24.5 11.7 22.5 26.1-2 14.4-15.4 26.1-29.8 26.1-2.8 0-5.5-.5-7.9-1.3l-8.8 19c4.6 1.6 8.8 2.3 13.9 2.3 25.4 0 49-20.6 52.5-46.1 3.5-25.4-14.2-46-39.6-46z" class="color2c49a2 svgShape"></path><path fill="#319eff" d="m1761.2 828.4 2.8-19.9c-10.2 0-19.2 2.8-28.3 8.8l9.5 16.1c4.7-3.1 10.2-5 16-5z" class="colorffac31 svgShape"></path><path fill="#1a4d7a" d="M1731.3 854.5c1.2-8.7 6.6-16.4 13.8-21.1l-9.5-16.1c-9.1 6-15.5 13.4-20 23-11.3 24.2-1.7 50.2 21.4 58l8.8-19c-9.9-3.3-16.1-13.2-14.5-24.8zM1539.2 932.6h-77c-3.9 0-6.7-3.2-6.1-7.1.6-3.9 4.2-7.1 8.1-7.1h77c3.9 0 6.7 3.2 6.1 7.1-.5 3.9-4.2 7.1-8.1 7.1z" class="color1a317a svgShape"></path><path fill="#2c6aa2" d="M1530.5 1006.8H1450c-3 0-5-2.4-4.6-5.4l8-56.6c.4-3 3.2-5.4 6.1-5.4h80.6c3 0 5 2.4 4.6 5.4l-8 56.6c-.5 3-3.2 5.4-6.2 5.4z" class="color2c49a2 svgShape"></path><path fill="#1a4d7a" d="M1662.1 932.6h-77c-3.9 0-6.7-3.2-6.1-7.1.6-3.9 4.2-7.1 8.1-7.1h77c3.9 0 6.7 3.2 6.1 7.1-.5 3.9-4.2 7.1-8.1 7.1z" class="color1a317a svgShape"></path><path fill="#2c6aa2" d="M1653.4 1006.8h-80.6c-3 0-5-2.4-4.6-5.4l8-56.6c.4-3 3.2-5.4 6.1-5.4h80.6c3 0 5 2.4 4.6 5.4l-8 56.6c-.4 3-3.1 5.4-6.1 5.4z" class="color2c49a2 svgShape"></path><path fill="#1a4d7a" d="M1785 932.6h-77c-3.9 0-6.7-3.2-6.1-7.1.6-3.9 4.2-7.1 8.1-7.1h77c3.9 0 6.7 3.2 6.1 7.1-.5 3.9-4.1 7.1-8.1 7.1z" class="color1a317a svgShape"></path><path fill="#0583f2" d="M1776.4 1006.8h-80.6c-3 0-5-2.4-4.6-5.4l8-56.6c.4-3 3.2-5.4 6.1-5.4h80.6c3 0 5 2.4 4.6 5.4l-8 56.6c-.4 3-3.2 5.4-6.1 5.4z" class="color628cd2 svgShape"></path><ellipse cx="606.3" cy="1708.4" fill="#fcfeff" opacity=".056" rx="403.6" ry="56.3" class="colorfcfdff svgShape"></ellipse><ellipse cx="606.3" cy="1708.4" fill="#f9fcfe" opacity=".111" rx="383.8" ry="53.6" class="colorf9fbfe svgShape"></ellipse><ellipse cx="606.3" cy="1708.4" fill="#f5fafe" opacity=".167" rx="364" ry="50.8" class="colorf5f8fe svgShape"></ellipse><ellipse cx="606.3" cy="1708.4" fill="#f2f8fd" opacity=".222" rx="344.2" ry="48" class="colorf2f6fd svgShape"></ellipse><ellipse cx="606.3" cy="1708.4" fill="#eff6fd" opacity=".278" rx="324.4" ry="45.3" class="coloreff4fd svgShape"></ellipse><ellipse cx="606.3" cy="1708.4" fill="#ecf4fc" opacity=".333" rx="304.5" ry="42.5" class="colorecf2fc svgShape"></ellipse><ellipse cx="606.3" cy="1708.4" fill="#e9f3fc" opacity=".389" rx="284.7" ry="39.7" class="colore9f0fc svgShape"></ellipse><ellipse cx="606.3" cy="1708.4" fill="#e6f1fb" opacity=".444" rx="264.9" ry="37" class="colore6eefb svgShape"></ellipse><ellipse cx="606.3" cy="1708.4" fill="#e3f0fb" opacity=".5" rx="245.1" ry="34.2" class="colore3ecfb svgShape"></ellipse><ellipse cx="606.3" cy="1708.4" fill="#dfeefb" opacity=".556" rx="225.3" ry="31.4" class="colordfe9fb svgShape"></ellipse><ellipse cx="606.3" cy="1708.4" fill="#dcecfa" opacity=".611" rx="205.4" ry="28.7" class="colordce7fa svgShape"></ellipse><ellipse cx="606.3" cy="1708.4" fill="#d9ebfa" opacity=".667" rx="185.6" ry="25.9" class="colord9e5fa svgShape"></ellipse><ellipse cx="606.3" cy="1708.4" fill="#d6e9f9" opacity=".722" rx="165.8" ry="23.1" class="colord6e3f9 svgShape"></ellipse><ellipse cx="606.3" cy="1708.4" fill="#d3e7f9" opacity=".778" rx="146" ry="20.4" class="colord3e1f9 svgShape"></ellipse><ellipse cx="606.3" cy="1708.4" fill="#d0e5f8" opacity=".833" rx="126.1" ry="17.6" class="colord0dff8 svgShape"></ellipse><path fill="#cce3f8" d="M712.6 1708.4c0 8.2-47.6 14.8-106.3 14.8-58.7 0-106.3-6.6-106.3-14.8 0-8.2 47.6-14.8 106.3-14.8 58.7 0 106.3 6.6 106.3 14.8z" opacity=".889" class="colorccdcf8 svgShape"></path><path fill="#c9e1f7" d="M692.8 1708.4c0 6.7-38.7 12.1-86.5 12.1s-86.5-5.4-86.5-12.1c0-6.7 38.7-12.1 86.5-12.1 47.7 0 86.5 5.4 86.5 12.1z" opacity=".944" class="colorc9daf7 svgShape"></path><path fill="#c6e0f7" d="M673 1708.4c0 5.1-29.9 9.3-66.7 9.3-36.8 0-66.7-4.2-66.7-9.3 0-5.1 29.9-9.3 66.7-9.3 36.8 0 66.7 4.2 66.7 9.3z" class="colorc6d8f7 svgShape"></path><ellipse cx="962.2" cy="1771.8" fill="#fcfeff" opacity=".056" rx="371.7" ry="51.9" class="colorfcfdff svgShape"></ellipse><ellipse cx="962.2" cy="1771.8" fill="#f9fcfe" opacity=".111" rx="353.5" ry="49.3" class="colorf9fbfe svgShape"></ellipse><ellipse cx="962.2" cy="1771.8" fill="#f5fafe" opacity=".167" rx="335.2" ry="46.8" class="colorf5f8fe svgShape"></ellipse><ellipse cx="962.2" cy="1771.8" fill="#f2f8fd" opacity=".222" rx="317" ry="44.2" class="colorf2f6fd svgShape"></ellipse><ellipse cx="962.2" cy="1771.8" fill="#eff6fd" opacity=".278" rx="298.7" ry="41.7" class="coloreff4fd svgShape"></ellipse><ellipse cx="962.2" cy="1771.8" fill="#ecf4fc" opacity=".333" rx="280.5" ry="39.1" class="colorecf2fc svgShape"></ellipse><ellipse cx="962.2" cy="1771.8" fill="#e9f3fc" opacity=".389" rx="262.2" ry="36.6" class="colore9f0fc svgShape"></ellipse><ellipse cx="962.2" cy="1771.8" fill="#e6f1fb" opacity=".444" rx="243.9" ry="34.1" class="colore6eefb svgShape"></ellipse><ellipse cx="962.2" cy="1771.7" fill="#e3f0fb" opacity=".5" rx="225.7" ry="31.5" class="colore3ecfb svgShape"></ellipse><ellipse cx="962.2" cy="1771.7" fill="#dfeefb" opacity=".556" rx="207.4" ry="29" class="colordfe9fb svgShape"></ellipse><ellipse cx="962.2" cy="1771.7" fill="#dcecfa" opacity=".611" rx="189.2" ry="26.4" class="colordce7fa svgShape"></ellipse><ellipse cx="962.2" cy="1771.7" fill="#d9ebfa" opacity=".667" rx="170.9" ry="23.9" class="colord9e5fa svgShape"></ellipse><ellipse cx="962.2" cy="1771.7" fill="#d6e9f9" opacity=".722" rx="152.7" ry="21.3" class="colord6e3f9 svgShape"></ellipse><ellipse cx="962.2" cy="1771.7" fill="#d3e7f9" opacity=".778" rx="134.4" ry="18.8" class="colord3e1f9 svgShape"></ellipse><ellipse cx="962.2" cy="1771.7" fill="#d0e5f8" opacity=".833" rx="116.2" ry="16.2" class="colord0dff8 svgShape"></ellipse><ellipse cx="962.2" cy="1771.7" fill="#cce3f8" opacity=".889" rx="97.9" ry="13.7" class="colorccdcf8 svgShape"></ellipse><ellipse cx="962.2" cy="1771.7" fill="#c9e1f7" opacity=".944" rx="79.7" ry="11.1" class="colorc9daf7 svgShape"></ellipse><ellipse cx="962.2" cy="1771.7" fill="#c6e0f7" rx="61.4" ry="8.6" class="colorc6d8f7 svgShape"></ellipse><path fill="#2c6aa2" d="M409.3 1582.2s-85.7 155.1-51.5 154.8c34.2-.3 98.5-132.4 98.5-132.4l-47-22.4zM763.2 1579.9s85.7 155.1 51.5 154.8c-34.2-.3-98.5-132.4-98.5-132.4l47-22.4z" class="color2c49a2 svgShape"></path><path fill="#1a4d7a" d="m422.5 1588.5-13.2-6.3s-85.7 155.1-51.5 154.8c-15.6-16.7 40.1-109.4 64.7-148.5zM716.3 1602.3s64.3 132.1 98.5 132.4c6.1.1 8.3-4.8 8-12.8-5.6 4.2-13 1.7-21.6-5.1-12.2-9.8-51-94.4-63.3-124.8l-21.6 10.3z" class="color1a317a svgShape"></path><path fill="#0583f2" d="M508.2 1010.7c-86.8.1-198.4 111-224.3 266-26 155.1 23.6 303.8 174.7 351.1 151.1 47.2 330.6 44.1 425.1-57.1s167.7-246.1 52-253.9c-115.7-7.8-189.6 3-189.6 3s-14.5-309.3-237.9-309.1z" class="color628cd2 svgShape"></path><linearGradient id="SVGID_9_" x1="423.107" x2="957.908" y1="1261.937" y2="1261.937" gradientUnits="userSpaceOnUse"><stop offset="0" stop-color="#2c6aa1" class="stopColor2c49a1 svgShape"></stop><stop offset="1"></stop></linearGradient><path fill="url(#SVGID_9_)" d="M953.2 1385.4c-10.9-28.7-25.2-51.6-40.3-69.9-102.6-5.1-166.9 4.3-166.9 4.3s-12.3-264.1-190.5-304c-9.1.9-18.5 2.1-28.2 3.8-137.3 24.8-156.5 399.6 49.5 468.6 134.9 45.1 421.1 14.7 376.4-102.8z"></path><path fill="#2c6aa2" d="M502.8 1583.6c-151.1-47.2-200.7-196-174.7-351.1 12-71.8 42.4-134.2 80.2-180.4-57.1 45.8-107.9 126.3-124.4 224.6-26 155.1 23.6 303.8 174.7 351.1 151.1 47.2 330.6 44.1 425.1-57.1 6.3-6.7 12.5-13.7 18.5-20.7-98.9 77.8-261 76.9-399.4 33.6z" opacity=".75" class="color2c49a2 svgShape"></path><path fill="#b6dafa" d="M736.3 1177.4s41.7 130.3 49.6 139.3c4.1 4.7-11.3 41-43.7-15.2-7.2-12.5-31.6-131-25.1-127.7.9.4 18.8 2.8 19.2 3.6z" class="colorfac4b6 svgShape"></path><path fill="#a5cff4" d="m775.5 1325.3-47.5-137-9.8 8.1c3.7 23.8 11.4 61.1 17.5 84.6l12.9 30.7c8 11.8 14.9 17.7 20.4 19.9l6.5-6.3z" class="colorf4b2a5 svgShape"></path><path fill="#178ffa" d="M676.5 1069c5.1 0 32.1 23.1 45.3 57.2 12.8 32.9 21.2 63.5 24 74.1.6 2.2-.6 4.6-2.8 5.4l-77.6 30.1c-2.7 1-5.6-.6-6.1-3.4-4.9-28-34.1-163.4 17.2-163.4z" class="colorfa8b17 svgShape"></path><linearGradient id="SVGID_10_" x1="3510.942" x2="3510.942" y1="1039.064" y2="662.279" gradientTransform="scale(-1 1) rotate(20.042 416.103 -10654.253)" gradientUnits="userSpaceOnUse"><stop offset="0" stop-color="#1892ff" class="stopColorff5f18 svgShape"></stop><stop offset=".238" stop-color="#1992ff" class="stopColorff6319 svgShape"></stop><stop offset=".462" stop-color="#1d94ff" class="stopColorff6e1d svgShape"></stop><stop offset=".679" stop-color="#2397ff" class="stopColorff8123 svgShape"></stop><stop offset=".892" stop-color="#2c9bff" class="stopColorff9b2c svgShape"></stop><stop offset="1" stop-color="#319eff" class="stopColorffac31 svgShape"></stop></linearGradient><path fill="url(#SVGID_10_)" d="M586.4 1425.1c-11.1-11.4-91-182.1-97.9-273.1-4.9-64.6 70.2-111.1 77.8-118.6 13.9 26.2 20.6 38.6 41.9 37.4 15.9-.9 19.5-15.5 20.5-23.3 14 4.6 65.1 21.3 67.7 45.6 10.7 99.6 72.6 224.7 79 243 .3.8-48.8 14.6-94.6 38-46 23.5-88.8 56.8-94.4 51z"></path><path fill="#1892ff" d="M690.5 1334s-90.6-38.2-93.5-44.4c-2.9-6.2-7.7-53.8-14.7-95.6-7-41.7-33.6-88-55.6-102.2-5.5-3.6-11.2-5-16.6-5.3-13.4 18.3-23.4 40.5-21.5 65.4 6.9 90.6 86 260 97.7 272.9l104.2-90.8z" opacity=".7" class="colorff5f18 svgShape"></path><path fill="#b6dafa" d="M882.8 1644.3s-4.5 36.4-16.3 80.3c-4.1 15.2 5.8 24.5 11.4 24.7 2.6.1 115.2 0 115.2 0s5.5-22.7-12.1-28.2-43.1-9-47.8-20c-4.7-11 7.9-39.7 7.9-39.7l-58.3-17.1z" class="colorfac4b6 svgShape"></path><path fill="#a5cff4" d="M992.5 1732.6s-54.1-4.4-56.8-3.7c-2.6.7-51 4.6-54.3-4.6-3.3-9.3 18.5-55 18.5-55h-21.2c-2.6 14.5-6.6 34-12.4 55.4-4.1 15.2 5.8 24.5 11.4 24.7h69.4l45.4-16.8z" class="colorf4b2a5 svgShape"></path><linearGradient id="SVGID_11_" x1="853.571" x2="1036.685" y1="1732.621" y2="1732.621" gradientUnits="userSpaceOnUse"><stop offset="0" stop-color="#2c6aa1" class="stopColor2c49a1 svgShape"></stop><stop offset="1"></stop></linearGradient><path fill="url(#SVGID_11_)" d="M913.6 1747.7c2.7-.1 5-2.2 5.3-4.9.5-4.7 3.2-12.6 13.9-22.3 17.6-16.1 24.7-16.5 32.5-16.1 7.8.4 63 30.5 68.9 38 4 5.1 4.4 18-7 18.4-10.1.3-139.7.1-168.1 0-3 0-5.5-2.5-5.5-5.5s2.3-5.4 5.3-5.5l54.7-2.1z"></path><linearGradient id="SVGID_12_" x1="3078.098" x2="3078.098" y1="874.964" y2="499.932" gradientTransform="scale(-1 1) rotate(51.227 298.706 -3060.516)" gradientUnits="userSpaceOnUse"><stop offset="0" stop-color="#2c6aa2" class="stopColor2c49a2 svgShape"></stop><stop offset=".063" stop-color="#2b679c" class="stopColor2b479c svgShape"></stop><stop offset=".459" stop-color="#164773" class="stopColor273c7a svgShape"></stop><stop offset=".785" stop-color="#254765" class="stopColor253565 svgShape"></stop><stop offset="1" stop-color="#24425d" class="stopColor24325d svgShape"></stop></linearGradient><path fill="url(#SVGID_12_)" d="M731.6 1460c-2.6-1-12.4-101.6-11-104 20.7-33.9 208.9-53.6 251.2-48.5 85.3 10.2-36.4 379.7-36.4 379.7s-57.2-14.2-57.4-15.1l30.8-245.2c-.8-3.9-161.7 39.3-177.2 33.1z"></path><linearGradient id="SVGID_13_" x1="724.716" x2="939.801" y1="1533.282" y2="1533.282" gradientUnits="userSpaceOnUse"><stop offset="0" stop-color="#2c6aa2" class="stopColor2c49a2 svgShape"></stop><stop offset=".063" stop-color="#2b679c" class="stopColor2b479c svgShape"></stop><stop offset=".459" stop-color="#164773" class="stopColor273c7a svgShape"></stop><stop offset=".785" stop-color="#254765" class="stopColor253565 svgShape"></stop><stop offset="1" stop-color="#24425d" class="stopColor24325d svgShape"></stop></linearGradient><path fill="url(#SVGID_13_)" d="M896.1 1677.2c46.3-88.1 51.6-268 35.4-283.9-12.6-12.3-147 7-206.8 16.4 2.6 25.2 5.6 49.8 6.9 50.3 15.5 6.2 176.4-37 177.3-33.1l-30.8 245.2c.1.4 8 2.5 18 5.1z"></path><path fill="#b6dafa" d="m1034.8 1690.7 23.3 18.2c9.7 7.5 17.6 17 23.7 27.7 6.6 11.6 17.4 24.1 29.5 13.3 1.9-1.7 73.4-87.9 73.4-87.9s-13.8-18.7-29.3-8.7-41.5 27.2-52.9 23.8c-11.4-3.4-52.9-48.2-52.9-48.2l-14.8 61.8z" class="colorfac4b6 svgShape"></path><path fill="#a5cff4" d="M1143.6 1691.4s-37.1 48.3-51.4 28.9c-10.4-14-38-37.7-52.5-49.8l-4.8 20.2 23.3 18.2c9.7 7.5 17.6 17 23.7 27.7 6.6 11.6 17.4 24.1 29.5 13.3 1-.9 22.1-26.1 41.3-49.3l-9.1-9.2z" class="colorf4b2a5 svgShape"></path><linearGradient id="SVGID_14_" x1="676.246" x2="858.174" y1="2178.593" y2="2178.593" gradientTransform="rotate(-50.136 429.563 1533.296)" gradientUnits="userSpaceOnUse"><stop offset="0" stop-color="#2c6aa1" class="stopColor2c49a1 svgShape"></stop><stop offset="1"></stop></linearGradient><path fill="url(#SVGID_14_)" d="M1132.7 1721.5c1.7-2.2 1.5-5.2-.4-7.1-3.3-3.3-7.5-10.4-8.2-24.8-1.1-23.6 3.2-29.3 8.5-35 5.3-5.7 63.3-28.6 72.9-28.3 6.4.2 16.5 8.1 9.6 17-6.2 7.9-88.9 106.6-107 128.2-1.9 2.3-5.4 2.6-7.7.7-2.3-1.9-2.6-5.2-.8-7.6l33.1-43.1z"></path><path fill="#2c6aa2" d="M578.4 1397.1c-6.3 114.7 161.2 92.3 263.4 109.1 4.2.7 13.4 70.5 207.6 197.8 2 1.3 38.8-39.8 37.3-41.2-49-42-163.7-193.1-198.7-219.6-156.4-118.7-305.8-116.5-309.6-46.1z" class="color2c49a2 svgShape"></path><linearGradient id="SVGID_15_" x1="578.199" x2="1061.852" y1="1531.319" y2="1531.319" gradientUnits="userSpaceOnUse"><stop offset="0" stop-color="#2c6aa2" class="stopColor2c49a2 svgShape"></stop><stop offset=".063" stop-color="#2b679c" class="stopColor2b479c svgShape"></stop><stop offset=".459" stop-color="#164773" class="stopColor273c7a svgShape"></stop><stop offset=".785" stop-color="#254765" class="stopColor253565 svgShape"></stop><stop offset="1" stop-color="#24425d" class="stopColor24325d svgShape"></stop></linearGradient><path fill="url(#SVGID_15_)" d="M1061.9 1692.5c-21.8-20.6-114.2-107.8-143.7-131.1-33.5-26.5-64.6-82.1-64.6-82.1s-149.5-14.6-201.6-53.6c-27.1-20.3-40.3-46.6-46.9-67.2-16.2 8.3-25.8 21.4-26.7 38.5-6.3 114.7 161.2 92.3 263.4 109.1 4.2.7 13.4 70.5 207.6 197.8.6.6 6-4.6 12.5-11.4z"></path><path fill="#b6dafa" d="M562.5 1219.4c2.3-.7 4.8.7 5.3 3.1 3.4 14.8 14.3 62.4 16.7 71.1 2.8 10.3 116.3 33.7 127.2 36.8 8.5 2.4 44.5-5.2 52.3-4.3 10.4 1.2 35.1 23.4 33.9 25.5-4.9 8.3-14.8-2.2-26.1 4.6-15.6 9.4-44.3-1-49.6-1-29.4-.1-153.3.6-162.4-5.3-30.1-19.6-55.9-85.9-61.1-101.5-4.5-13.1 50.3-24.7 63.8-29z" class="colorfac4b6 svgShape"></path><path fill="#a5cff4" d="M751.3 1348.3c-21.6 2.6-35.3-1.6-35.3-1.6s-141 1-158.6-14.1c-16.7-14.3-41.7-90-44.2-97.9-9.6 4.2-16.3 8.8-14.6 13.7 5.2 15.6 31 81.9 61.1 101.5 9.1 5.9 133 5.2 162.4 5.3 5.4 0 34.1 10.4 49.6 1 .4-.3.9-.5 1.3-.7l2.5-13.1c0-.1-2.6 3.3-24.2 5.9z" class="colorf4b2a5 svgShape"></path><path fill="#319eff" d="m496.3 1249 78.4-20c3.3-.8 5.4-4.1 4.7-7.5-5.9-27.9-33.1-142.7-75-122.9-35.6 16.8-20.7 118-16 145.3.7 3.7 4.3 6 7.9 5.1z" class="colorffac31 svgShape"></path><path fill="#178ffa" d="M504.4 1098.6c2.6-1.2 5.2-1.9 7.7-2.2-8.8 8.5-19.9 24-18.5 47.4 1.6 29.1 15.8 78.4 22.4 100.1l-19.7 5c-3.6.9-7.2-1.4-7.9-5.1-4.7-27.2-19.6-128.4 16-145.2z" class="colorfa8b17 svgShape"></path><path fill="#a7d6ff" d="m769.2 1377.1-117.4-5.1c-5.6-.2-10-5-9.7-10.6.2-5.6 5-10 10.6-9.7l117.4 5.1c5.6.2 10 5 9.7 10.6-.2 5.6-5 9.9-10.6 9.7z" class="colora7c1ff svgShape"></path><path fill="#2c6aa2" d="M649.9 1364.6c-4.4-1.1-5.9-4.7-6.3-8-.9 1.4-1.4 3-1.5 4.8-.2 5.6 4.1 10.4 9.7 10.6l117.4 5.1c5 .2 9.3-3.2 10.3-7.9-7.4-.2-121.5-2.5-129.6-4.6z" opacity=".56" class="color2c49a2 svgShape"></path><linearGradient id="SVGID_16_" x1="997.451" x2="776.921" y1="1168.562" y2="1389.091" gradientTransform="rotate(-2.516 945.646 1172.014)" gradientUnits="userSpaceOnUse"><stop offset="0" stop-color="#ffffff" class="stopColorffffff svgShape"></stop><stop offset=".198" stop-color="#fafdff" class="stopColorfafcff svgShape"></stop><stop offset=".42" stop-color="#edf7ff" class="stopColoredf2ff svgShape"></stop><stop offset=".654" stop-color="#d6ecff" class="stopColord6e2ff svgShape"></stop><stop offset=".894" stop-color="#b7ddff" class="stopColorb7ccff svgShape"></stop><stop offset="1" stop-color="#a7d6ff" class="stopColora7c1ff svgShape"></stop></linearGradient><path fill="url(#SVGID_16_)" d="m770.3 1377 219.2-31.9c5.7-.8 11.1-6.2 12-12.1l20.8-138.5c.9-5.8-3.1-9.9-8.8-9l-219.2 31.9c-5.7.8-11.1 6.2-12 12.1L761.5 1368c-.9 5.8 3 9.8 8.8 9z"></path><path fill="#b6dafa" d="M633.4 1014.2c1-1.1.9-2.8 0-4.1L595 954.9c-1.7-2.4-13.4 8.9-13.6 11.8-1.2 27.2-10.3 57.6-15.8 67.3-6.3 10.9 1.2 26.3 18.2 37.1 17 10.9 36.3 11.1 43 .5 3.2-5 4.6-17.5 1.9-24.1-.7-7.7-3.8-24.5 4.7-33.3z" class="colorfac4b6 svgShape"></path><path fill="#a5cff4" d="M595.1 954.9c-1.7-2.4-13.4 8.9-13.6 11.8-.6 11.7-2.4 23.3-4.7 33.6 15.2 21.6 36.8 37.2 51.5 44.1-1-8.5-2.5-22.5 5-30.3 1-1.1.9-2.8 0-4.1l-38.2-55.1z" class="colorf4b2a5 svgShape"></path><path fill="#b6dafa" d="M563.4 930.3c-9.5 62.3 49.8 105 74.9 108.6 19.4 2.7 42.3-33.9 49.4-77 8.7-52.5-1.7-62.2-42.9-82.1-30.4-14.6-74.8 7.3-81.4 50.5z" class="colorfac4b6 svgShape"></path><linearGradient id="SVGID_17_" x1="562.354" x2="690.517" y1="957.155" y2="957.155" gradientUnits="userSpaceOnUse"><stop offset="0"></stop><stop offset=".199" stop-color="#0a1723" class="stopColor0a1023 svgShape"></stop><stop offset=".576" stop-color="#1c3f5f" class="stopColor1c2d5f svgShape"></stop><stop offset=".854" stop-color="#275985" class="stopColor273e85 svgShape"></stop><stop offset="1" stop-color="#2b6293" class="stopColor2b4593 svgShape"></stop></linearGradient><path fill="url(#SVGID_17_)" d="M644.8 879.8c-30.4-14.6-74.8 7.3-81.4 50.5-3.8 24.6 3.2 46.2 14.6 63.5 2.5-7.1 6.3-18 11-30.9.8-2.3-.1-5.4-2.2-6.6-7.3-4.3-12.1-16.6-7.3-29.4 1.4-3.7 4.9-6.1 8.8-6.1 24.4 0 16.2 38.7 10.6 53.5-2.2 5.7-5.9 13.7-8.6 19.3-1.3 2.8-1.7 8.2-1 12.7.2 1.5 1 3 2 4.1 16.1 16.7 35.2 26.8 46.9 28.5 11.1 1.6 23.4-9.8 33.2-28l-.1-.3c-3.4-9.4-8.6-15.3-15.6-18.1-8.4-3.3-19.3-2.1-32.7 3.5-5.1 2.1-11.4-.5-12.9-7.4-.2-.8-.1-1.6.1-2.3 1.9-7.5 5.7-22.8 8.6-38.3 2.1-11.4 12.7-19.2 23.9-17.2 3.8.7 7.8 1.8 11.7 3.3 12.9 5.1 24.9 10.9 35.3 11.8.4-3.8.6-7.4.7-10.7v-2.5c-.2-28.1-13.5-37.4-45.6-52.9z" opacity=".55"></path><linearGradient id="SVGID_18_" x1="572.999" x2="714.246" y1="942.832" y2="884.358" gradientUnits="userSpaceOnUse"><stop offset="0"></stop><stop offset=".199" stop-color="#0a1723" class="stopColor0a1023 svgShape"></stop><stop offset=".576" stop-color="#1c3f5f" class="stopColor1c2d5f svgShape"></stop><stop offset=".854" stop-color="#275985" class="stopColor273e85 svgShape"></stop><stop offset="1" stop-color="#2b6293" class="stopColor2b4593 svgShape"></stop></linearGradient><path fill="url(#SVGID_18_)" d="M717 891.1c-8.1-11.2 3.1 11.6-31.5 2.8-11.4-2.9-22.5-17.2-48.9-20.7-29.2-3.8-57.1 4.5-70.6 46.3-.4 1.2-.8 2.5-1.1 3.7 8.1-8.7 24.6-23.1 39.5-15.2 8.9 4.8 43.8 23.4 51.6 26.7 20.7 8.7 39.4 18.3 52.1 4.5 13.1-14.1 10.7-39.9 8.9-48.1z"></path><ellipse cx="411.5" cy="1794" fill="#fcfeff" opacity=".056" rx="303.6" ry="42.4" class="colorfcfdff svgShape"></ellipse><ellipse cx="411.5" cy="1794" fill="#f9fcfe" opacity=".111" rx="288.7" ry="40.3" class="colorf9fbfe svgShape"></ellipse><ellipse cx="411.5" cy="1794" fill="#f5fafe" opacity=".167" rx="273.8" ry="38.2" class="colorf5f8fe svgShape"></ellipse><ellipse cx="411.5" cy="1794" fill="#f2f8fd" opacity=".222" rx="258.9" ry="36.1" class="colorf2f6fd svgShape"></ellipse><ellipse cx="411.5" cy="1794" fill="#eff6fd" opacity=".278" rx="244" ry="34.1" class="coloreff4fd svgShape"></ellipse><ellipse cx="411.5" cy="1794" fill="#ecf4fc" opacity=".333" rx="229.1" ry="32" class="colorecf2fc svgShape"></ellipse><ellipse cx="411.5" cy="1794" fill="#e9f3fc" opacity=".389" rx="214.2" ry="29.9" class="colore9f0fc svgShape"></ellipse><ellipse cx="411.5" cy="1794" fill="#e6f1fb" opacity=".444" rx="199.2" ry="27.8" class="colore6eefb svgShape"></ellipse><ellipse cx="411.5" cy="1794" fill="#e3f0fb" opacity=".5" rx="184.3" ry="25.7" class="colore3ecfb svgShape"></ellipse><ellipse cx="411.5" cy="1794" fill="#dfeefb" opacity=".556" rx="169.4" ry="23.7" class="colordfe9fb svgShape"></ellipse><ellipse cx="411.5" cy="1794" fill="#dcecfa" opacity=".611" rx="154.5" ry="21.6" class="colordce7fa svgShape"></ellipse><ellipse cx="411.5" cy="1794" fill="#d9ebfa" opacity=".667" rx="139.6" ry="19.5" class="colord9e5fa svgShape"></ellipse><ellipse cx="411.5" cy="1794" fill="#d6e9f9" opacity=".722" rx="124.7" ry="17.4" class="colord6e3f9 svgShape"></ellipse><ellipse cx="411.5" cy="1794" fill="#d3e7f9" opacity=".778" rx="109.8" ry="15.3" class="colord3e1f9 svgShape"></ellipse><ellipse cx="411.5" cy="1794" fill="#d0e5f8" opacity=".833" rx="94.9" ry="13.2" class="colord0dff8 svgShape"></ellipse><path fill="#cce3f8" d="M491.5 1794c0 6.2-35.8 11.2-80 11.2s-80-5-80-11.2c0-6.2 35.8-11.2 80-11.2s80 5 80 11.2z" opacity=".889" class="colorccdcf8 svgShape"></path><path fill="#c9e1f7" d="M476.6 1794c0 5-29.1 9.1-65.1 9.1-35.9 0-65.1-4.1-65.1-9.1s29.1-9.1 65.1-9.1c36 0 65.1 4.1 65.1 9.1z" opacity=".944" class="colorc9daf7 svgShape"></path><path fill="#c6e0f7" d="M461.7 1794c0 3.9-22.5 7-50.2 7-27.7 0-50.2-3.1-50.2-7s22.5-7 50.2-7c27.7 0 50.2 3.1 50.2 7z" class="colorc6d8f7 svgShape"></path><linearGradient id="SVGID_19_" x1="479.294" x2="479.294" y1="1794.184" y2="1671.948" gradientUnits="userSpaceOnUse"><stop offset="0" stop-color="#1892ff" class="stopColorff5f18 svgShape"></stop><stop offset=".444" stop-color="#2296ff" class="stopColorff7e22 svgShape"></stop><stop offset="1" stop-color="#319eff" class="stopColorffab31 svgShape"></stop></linearGradient><path fill="url(#SVGID_19_)" d="M406.3 1695.3s11.9 18.8 62.3-12.8c46.2-29 111.8 4.7 99.6 66.4s-98.8 43-133.1 41.2c-34.4-1.9-67.5-57.1-28.8-94.8z"></path><linearGradient id="SVGID_20_" x1="357.107" x2="303.473" y1="1747.224" y2="1778.19" gradientUnits="userSpaceOnUse"><stop offset="0" stop-color="#1892ff" class="stopColorff5f18 svgShape"></stop><stop offset=".213" stop-color="#1a93ff" class="stopColorff641a svgShape"></stop><stop offset=".455" stop-color="#1e95ff" class="stopColorff711e svgShape"></stop><stop offset=".712" stop-color="#2698ff" class="stopColorff8826 svgShape"></stop><stop offset=".976" stop-color="#309dff" class="stopColorffa830 svgShape"></stop><stop offset="1" stop-color="#319eff" class="stopColorffab31 svgShape"></stop></linearGradient><path fill="url(#SVGID_20_)" d="M333.7 1744.5s-17 .2-28.7 6.8c-8.1 4.5-15.9 13.5-4 15.8 14.1 2.8 67.4-.3 67.4-.3l-34.7-22.3z"></path><linearGradient id="SVGID_21_" x1="284.933" x2="284.933" y1="1674.086" y2="1603.094" gradientTransform="rotate(-12.604 561.133 1428.942)" gradientUnits="userSpaceOnUse"><stop offset="0" stop-color="#1892ff" class="stopColorff5f18 svgShape"></stop><stop offset=".202" stop-color="#1b93ff" class="stopColorff671b svgShape"></stop><stop offset=".517" stop-color="#2296ff" class="stopColorff7d22 svgShape"></stop><stop offset=".904" stop-color="#2e9cff" class="stopColorffa12e svgShape"></stop><stop offset="1" stop-color="#319eff" class="stopColorffab31 svgShape"></stop></linearGradient><path fill="url(#SVGID_21_)" d="M321.4 1661s-9.7 31.4 5.3 61 29.8-28.5 29.8-28.5-15.1-23.5-35.1-32.5z"></path><path fill="#319eff" d="M321.4 1661s-9.7 31.4 5.3 61c.3.7.7 1.2 1 1.8l6.5-7.3c-11.7-14.7-11-49-11-49 10.3 5.5 19.1 13.5 25.7 23.1l2.4 3.5 3.1-3.5c-4.7-6.7-17.4-22.6-33-29.6z" class="colorffac31 svgShape"></path><linearGradient id="SVGID_22_" x1="654.804" x2="654.804" y1="1763.93" y2="1692.937" gradientTransform="scale(-1 1) rotate(-13.115 -25.17 6314.26)" gradientUnits="userSpaceOnUse"><stop offset="0" stop-color="#1892ff" class="stopColorff5f18 svgShape"></stop><stop offset=".202" stop-color="#1b93ff" class="stopColorff671b svgShape"></stop><stop offset=".517" stop-color="#2296ff" class="stopColorff7d22 svgShape"></stop><stop offset=".904" stop-color="#2e9cff" class="stopColorffa12e svgShape"></stop><stop offset="1" stop-color="#319eff" class="stopColorffab31 svgShape"></stop></linearGradient><path fill="url(#SVGID_22_)" d="M419.6 1661s9.4 31.5-5.8 61c-15.3 29.4-29.6-28.8-29.6-28.8s15.4-23.3 35.4-32.2z"></path><path fill="#319eff" d="M419.6 1661s9.4 31.5-5.8 61c-.3.7-.7 1.2-1 1.8l-6.4-7.4c11.8-14.6 11.4-48.9 11.4-48.9-10.4 5.4-19.3 13.3-25.9 22.9l-2.4 3.5-3.1-3.6c4.8-6.6 17.6-22.4 33.2-29.3z" class="colorffac31 svgShape"></path><linearGradient id="SVGID_23_" x1="368.337" x2="342.217" y1="1750.612" y2="1795.853" gradientUnits="userSpaceOnUse"><stop offset="0" stop-color="#1892ff" class="stopColorff5f18 svgShape"></stop><stop offset=".419" stop-color="#2397ff" class="stopColorff8023 svgShape"></stop><stop offset="1" stop-color="#319eff" class="stopColorffab31 svgShape"></stop></linearGradient><path fill="url(#SVGID_23_)" d="M307.1 1775.6s-18.1-8.4 7.6-16.6c25.7-8.3 51.9-3.8 51.9-3.8l44.9 20.5H307.1z"></path><path fill="#319eff" d="M311.5 1727s3.4-6.8 9.3-15.1c9.6-13.3 25.9-30.6 45.8-30 32.4.9 71.8 35.2 68.3 45.2s-49.9 43.3-66.6 39.8c-16.5-3.6-61.2-20.1-56.8-39.9z" class="colorffac31 svgShape"></path><path fill="#b6dafa" d="M392.8 1727.5c-15.6-.4-24.4-5.6-24.4-5.6s-15.8 9.2-40.7 1.9c-5.6-1.7-10-2.1-13.5-1.7-1.8 3-2.7 4.9-2.7 4.9-4.4 19.8 40.3 36.3 56.9 39.8s63.1-29.8 66.6-39.8c.9-2.7-1.2-7.1-5.4-12.1-10.7 2.8-24.9 12.9-36.8 12.6z" opacity=".7" class="colorfac4b6 svgShape"></path><path fill="#178ffa" d="M360.5 1794.2s18.4-41.5 54.5-49.8c42.1-9.7 77.4 20.4 99.9 20.4s53.3-15.9 53.3-15.9-3.7 48.1-62.7 51.4c-58.9 3.4-65.2-7.7-95.1-12.1-21.8-3.2-49.9 6-49.9 6z" class="colorfa8b17 svgShape"></path><path fill="#1892ff" d="M456.8 1723.8c6.4-4.2.3-19.6-5.8-31.5-2.3 1.1-4.5 2.1-6.6 3 2 14.9 5.8 32.9 12.4 28.5zM466.3 1683.9c-.3 8 .8 16.1 5.1 21.6 11.7 14.7 19.3 15.9 19.5 9.5.1-5.5-2.8-29.5-8.4-39.1-4.8 1.7-9.4 3.9-13.9 6.7-.8.4-1.5.8-2.3 1.3zM508.2 1730.3c5.6.1 14.7-19.2-.4-48.5-1.8-3.5-3.5-6.8-5.1-9.8-4.5.2-9 .8-13.5 1.8 4.2 9.5 9 21.6 8.2 27.1-1.2 9.6-4.6 29.3 10.8 29.4zM537.2 1728.5c3.3-2.7 12.6-30.4-2.4-49.7-3.9-1.9-8-3.4-12.2-4.5 7.6 9.2 15.8 22.9 9 34.3-11.3 18.9 1.2 23.4 5.6 19.9zM369.5 1737.9l6.8-6.8c1-1 .3-2.7-1.1-2.7h-13.5c-1.4 0-2.1 1.7-1.1 2.7l6.8 6.8c.5.6 1.5.6 2.1 0z" opacity=".45" class="colorff5f18 svgShape"></path><path fill="#1a4d7a" d="m1159.6 1187.4 64 396.4c3.1 19.1 21 34.5 40.1 34.5l645.3-2c19.1-.1 32-15.6 29-34.7l-64-396.4c-3.1-19.1-21-34.5-40.1-34.5l-645.3 2c-19.1.1-32.1 15.6-29 34.7z" class="color1a317a svgShape"></path><path fill="#1a4d7a" d="m1394.4 1116.4-14.2 91.2c-3.2 20.7 10.9 37.4 31.6 37.3l180.1-.5c20.7-.1 40-16.9 43.2-37.5l14.2-91.2c3.2-20.7-10.9-37.4-31.6-37.3l-180.1.5c-20.6 0-40 16.8-43.2 37.5zm20.6 14.2c2.5-15.9 17.4-28.9 33.4-29l151.6-.5c16 0 26.9 12.8 24.4 28.8l-9.7 62.7c-2.5 15.9-17.4 28.9-33.4 29l-151.6.5c-16 0-26.9-12.8-24.4-28.8l9.7-62.7z" class="color1a317a svgShape"></path><path fill="#2c6aa2" d="m1145.3 1187.4-61.6 396.4c-3 19.1 10.1 34.5 29.2 34.5l645.9-2c19.1-.1 37-15.6 39.9-34.7l61.6-396.4c3-19.1-10.1-34.5-29.2-34.5l-645.9 2c-19.1.1-37 15.6-39.9 34.7z" class="color2c49a2 svgShape"></path><path fill="#1a4d7a" d="m1142 1208.7-10 64.5c-4.4 28.4 9.5 53.8 34.8 63.2 191.1 71.7 412.2 71 625.7-1.9 28.3-9.7 50.1-35.1 54.5-63.5l10-64.5c3-19.1-10.1-34.5-29.2-34.5l-645.9 2c-19.1.1-37 15.6-39.9 34.7z" class="color1a317a svgShape"></path><path fill="#2c6aa2" d="m1145.3 1187.4-10 64.5c-4.4 28.4 9.5 53.8 34.8 63.2 191.1 71.7 412.2 71 625.7-1.9 28.3-9.7 50.1-35.1 54.5-63.5l10-64.5c3-19.1-10.1-34.5-29.2-34.5l-645.9 2c-19.1.1-37 15.6-39.9 34.7z" class="color2c49a2 svgShape"></path><path fill="#1a4d7a" d="m1393.3 1338-9.6 61.5c-2.2 13.9 7.4 25.2 21.3 25.2l121.5-.4c13.9 0 27-11.4 29.2-25.3l9.6-61.5c2.2-13.9-7.4-25.2-21.3-25.2l-121.5.4c-14 0-27.1 11.3-29.2 25.3z" class="color1a317a svgShape"></path><linearGradient id="SVGID_24_" x1="1516.743" x2="1432.299" y1="1410.687" y2="1326.242" gradientUnits="userSpaceOnUse"><stop offset="0" stop-color="#1892ff" class="stopColorff5f18 svgShape"></stop><stop offset=".175" stop-color="#1e95ff" class="stopColorff721e svgShape"></stop><stop offset=".515" stop-color="#2899ff" class="stopColorff9228 svgShape"></stop><stop offset=".802" stop-color="#2f9dff" class="stopColorffa52f svgShape"></stop><stop offset="1" stop-color="#319eff" class="stopColorffac31 svgShape"></stop></linearGradient><path fill="url(#SVGID_24_)" d="m1417.1 1346.9-6.7 43.4c-1.5 9.8 5.2 17.8 15.1 17.8l85.8-.3c9.9 0 19.1-8 20.6-17.9l6.7-43.4c1.5-9.8-5.2-17.8-15.1-17.8l-85.8.3c-9.8.1-19 8.1-20.6 17.9z"></path><ellipse cx="1621.5" cy="1731" fill="#fcfeff" opacity=".056" rx="425.2" ry="59.4" class="colorfcfdff svgShape"></ellipse><ellipse cx="1621.5" cy="1731" fill="#f9fcfe" opacity=".111" rx="404.3" ry="56.4" class="colorf9fbfe svgShape"></ellipse><ellipse cx="1621.5" cy="1731" fill="#f5fafe" opacity=".167" rx="383.4" ry="53.5" class="colorf5f8fe svgShape"></ellipse><ellipse cx="1621.5" cy="1731" fill="#f2f8fd" opacity=".222" rx="362.6" ry="50.6" class="colorf2f6fd svgShape"></ellipse><ellipse cx="1621.5" cy="1731" fill="#eff6fd" opacity=".278" rx="341.7" ry="47.7" class="coloreff4fd svgShape"></ellipse><ellipse cx="1621.5" cy="1731" fill="#ecf4fc" opacity=".333" rx="320.8" ry="44.8" class="colorecf2fc svgShape"></ellipse><ellipse cx="1621.5" cy="1731" fill="#e9f3fc" opacity=".389" rx="299.9" ry="41.9" class="colore9f0fc svgShape"></ellipse><ellipse cx="1621.5" cy="1731" fill="#e6f1fb" opacity=".444" rx="279" ry="39" class="colore6eefb svgShape"></ellipse><ellipse cx="1621.5" cy="1731" fill="#e3f0fb" opacity=".5" rx="258.2" ry="36" class="colore3ecfb svgShape"></ellipse><ellipse cx="1621.5" cy="1731" fill="#dfeefb" opacity=".556" rx="237.3" ry="33.1" class="colordfe9fb svgShape"></ellipse><ellipse cx="1621.5" cy="1731" fill="#dcecfa" opacity=".611" rx="216.4" ry="30.2" class="colordce7fa svgShape"></ellipse><ellipse cx="1621.5" cy="1731" fill="#d9ebfa" opacity=".667" rx="195.5" ry="27.3" class="colord9e5fa svgShape"></ellipse><ellipse cx="1621.5" cy="1731" fill="#d6e9f9" opacity=".722" rx="174.6" ry="24.4" class="colord6e3f9 svgShape"></ellipse><ellipse cx="1621.5" cy="1731" fill="#d3e7f9" opacity=".778" rx="153.8" ry="21.5" class="colord3e1f9 svgShape"></ellipse><ellipse cx="1621.5" cy="1731" fill="#d0e5f8" opacity=".833" rx="132.9" ry="18.5" class="colord0dff8 svgShape"></ellipse><ellipse cx="1621.5" cy="1731" fill="#cce3f8" opacity=".889" rx="112" ry="15.6" class="colorccdcf8 svgShape"></ellipse><ellipse cx="1621.5" cy="1731" fill="#c9e1f7" opacity=".944" rx="91.1" ry="12.7" class="colorc9daf7 svgShape"></ellipse><ellipse cx="1621.5" cy="1731" fill="#c6e0f7" rx="70.2" ry="9.8" class="colorc6d8f7 svgShape"></ellipse><path fill="#319eff" d="M1960.6 1716.2h-507.2c-4.4 0-7.9-3.5-7.9-7.9v-82.1c0-4.4 3.5-7.9 7.9-7.9h507.2v97.9z" class="colorffac31 svgShape"></path><path fill="#ffffff" d="M1907.9 1692.1h-176.4c-2.3 0-4.2-1.9-4.2-4.2v-41.3c0-2.3 1.9-4.2 4.2-4.2h176.4c2.3 0 4.2 1.9 4.2 4.2v41.3c0 2.3-1.9 4.2-4.2 4.2z" class="colorffffff svgShape"></path><path fill="#1a4d7a" d="M1512.4 1698.1c-17 0-30.9-13.8-30.9-30.9 0-17 13.8-30.9 30.9-30.9 17 0 30.9 13.8 30.9 30.9 0 17.1-13.9 30.9-30.9 30.9z" class="color1a317a svgShape"></path><path fill="#a7d6ff" d="M1519.4 1619.2h507.2c4.4 0 7.9-3.5 7.9-7.9v-82.1c0-4.4-3.5-7.9-7.9-7.9h-507.2v97.9z" class="colora7c1ff svgShape"></path><path fill="#ffffff" d="M1572 1595.1h176.4c2.3 0 4.2-1.9 4.2-4.2v-41.3c0-2.3-1.9-4.2-4.2-4.2H1572c-2.3 0-4.2 1.9-4.2 4.2v41.3c.1 2.3 1.9 4.2 4.2 4.2z" class="colorffffff svgShape"></path><path fill="#1a4d7a" d="M1967.6 1601.1c17 0 30.9-13.8 30.9-30.9 0-17-13.8-30.9-30.9-30.9-17 0-30.9 13.8-30.9 30.9 0 17.1 13.8 30.9 30.9 30.9z" class="color1a317a svgShape"></path><path fill="#1892ff" d="M1826.4 1462.9c-20.7 0-37.6-16.9-37.6-37.6 0-20.7 16.9-37.6 37.6-37.6s37.6 16.9 37.6 37.6c0 20.7-16.9 37.6-37.6 37.6zm0-65.6c-15.4 0-28 12.5-28 28 0 15.4 12.5 28 28 28s28-12.5 28-28c0-15.4-12.6-28-28-28z" class="colorff5f18 svgShape"></path><g opacity=".35" fill="#000000" class="color000000 svgShape"><path fill="#e4f2ff" d="M1726.7 1291.8c-.8-.2-1.4.7-.8 1.3 3.4 4 10.2 13.4 7.9 23.2-2.2 9.4-12.3 17.2-10.3 29.9 2.6 16 18.6 17.8 26.4 17.7.9 0 1.1-1.2.3-1.5-5.4-2.1-14.3-7.2-15.4-18.2-1.3-13.4 10.6-13.2 10.6-32.2.1-13.1-12.9-18.5-18.7-20.2zM1754.5 1273.3c-.8-.3-1.4.8-.7 1.3 4 3.1 9.4 9.4 9.4 20.9 0 18.3-13.7 18.2-13.7 37.1 0 9.4 10.5 17.8 16.9 22 1.1.8 2.5-.5 1.9-1.7-3.4-6-8.3-16.7-4.6-24.2 5.3-11 19.7-25.7 10.1-41.5-5-8.2-13.8-12.1-19.3-13.9z" class="colore4eeff svgShape"></path></g><linearGradient id="SVGID_25_" x1="1839.492" x2="1683.838" y1="1486.345" y2="1396.479" gradientUnits="userSpaceOnUse"><stop offset="0" stop-color="#1892ff" class="stopColorff5f18 svgShape"></stop><stop offset=".238" stop-color="#1c94ff" class="stopColorff6c1c svgShape"></stop><stop offset=".677" stop-color="#2799ff" class="stopColorff8f27 svgShape"></stop><stop offset="1" stop-color="#319eff" class="stopColorffac31 svgShape"></stop></linearGradient><path fill="url(#SVGID_25_)" d="M1804.9 1520.6h-83.3c-14.2 0-25.7-11.5-25.7-25.7v-118.7c0-1.2.9-2.1 2.1-2.1h130.5c1.2 0 2.1.9 2.1 2.1v118.7c0 14.2-11.5 25.7-25.7 25.7z"></path><path fill="#1892ff" d="M1811.7 1374.1v77.9c0 29.8-24.2 54-54 54H1731c-8.1 0-15.8-1.8-22.7-5 9.9 11.9 24.9 19.5 41.6 19.5h26.6c29.8 0 54-24.2 54-54V1379c0-2.7-2.2-4.9-4.9-4.9h-13.9z" class="colorff5f18 svgShape"></path></g></svg>