<?xml version="1.0" encoding="utf-8"?>
<!-- Generator: Adobe Illustrator 26.5.0, SVG Export Plug-In . SVG Version: 6.00 Build 0)  -->
<svg version="1.1" id="Layer_1" xmlns="http://www.w3.org/2000/svg" xmlns:xlink="http://www.w3.org/1999/xlink" x="0px" y="0px"
	 viewBox="0 0 176 170" style="enable-background:new 0 0 176 170;" xml:space="preserve">
<style type="text/css">
	.st0{fill:#272425;}
	.st1{fill:#FFFFFF;}
	.st2{fill-rule:evenodd;clip-rule:evenodd;fill:#FFFFFF;}
</style>
<g>
	<path class="st0" d="M50.56,149.03c-10.59-5.87-18.91-14.19-24.94-24.95c-6.04-10.75-9.06-23.16-9.06-37.23
		c0-14.06,3.1-26.47,9.31-37.23c6.21-10.75,14.68-19.07,25.44-24.94c10.75-5.87,22.75-8.81,35.99-8.81s25.23,2.94,35.99,8.81
		c10.76,5.88,19.24,14.19,25.44,24.94c6.2,10.76,9.31,23.17,9.31,37.23c0,14.07-3.19,26.48-9.56,37.23
		c-6.37,10.76-14.98,19.07-25.81,24.95c-10.84,5.87-22.96,8.81-36.36,8.81C73.06,157.84,61.15,154.91,50.56,149.03z"/>
	<g>
		<path class="st1" d="M41.41,57.63c4.61-8.51,11.01-15.1,19.19-19.78c8.17-4.68,17.54-7.02,28.09-7.02
			c13.58,0,24.83,3.4,33.73,10.19c8.9,6.79,14.87,16.32,17.9,28.58h-29.87c-1.58-4.75-4.25-8.47-8.01-11.18
			c-3.76-2.7-8.41-4.05-13.95-4.05c-7.91,0-14.18,2.87-18.79,8.6c-4.62,5.73-6.92,13.88-6.92,24.43c0,10.42,2.31,18.5,6.92,24.23
			c4.62,5.73,10.88,8.6,18.79,8.6c11.21,0,18.53-5.01,21.96-15.03h29.87c-3.04,11.87-9.03,21.3-18,28.29
			c-8.97,6.99-20.18,10.48-33.63,10.48c-10.55,0-19.91-2.34-28.09-7.02c-8.18-4.68-14.57-11.28-19.19-19.78
			c-4.62-8.51-6.92-18.43-6.92-29.77C34.49,76.06,36.79,66.14,41.41,57.63z"/>
		<g>
			<path class="st2" d="M86.71,140.58c21.14-19.75,19.6-29.82,18.12-39.55c-1.28-8.4-2.61-17.08,11.24-29.14l0.33-0.29
				c-1.31-0.24-2.64-0.36-3.97-0.36c-5.44,0-10.62,2.12-14.98,6.12l-3.66,3.37l-0.9-4.89c-0.86-4.67,0.47-9.22,3.96-13.53
				c2.13-10.82,10.57-17.77,21.68-17.77c7.48,0,14.96,3.24,20.53,8.89c4.67,4.73,10.19,13.35,9.98,27.51l-0.14,9.77l-1.85-3.12
				c-0.4,4.94-2.11,9.74-5.07,13.93l-3.96,5.62c-1.92,7.77-6.5,15.31-13.26,21.35l-14.42,12.88l2.38-3.81
				c-0.8,0.45-1.62,0.87-2.47,1.25l-12.73,5.65l1.96-2.05c-3.29,1.51-6.85,2.51-10.59,2.91l-8.19,0.88L86.71,140.58z"/>
			<path class="st0" d="M118.53,47.29c13.16,0,28.08,11.31,27.76,33.61c-0.71-1.2-1.74-2.19-2.97-2.84
				c2.23,7.45,0.91,15.52-3.58,21.88c1.83-17.27-12.27-31.45-27.31-31.45c-5.75,0-11.65,2.07-16.84,6.84
				c-0.75-4.04,0.53-7.98,3.83-11.82C101.24,52.66,109.46,47.29,118.53,47.29 M105.74,61.03c0.33,0,0.65-0.12,0.91-0.36
				c0.54-0.5,0.58-1.35,0.07-1.9c-0.26-0.29-0.62-0.43-0.99-0.43c-0.33,0-0.65,0.12-0.91,0.36c-0.54,0.5-0.58,1.35-0.07,1.9
				C105.02,60.88,105.38,61.03,105.74,61.03 M117.87,73.96c23.34,8.1,23.87,35.66,5.05,52.47c1.61-2.57,1.92-5.74,0.84-8.57
				c-1.56,8.17-7.03,15.06-14.63,18.43c2.84-2.97,4.32-6.99,4.09-11.1c-4.65,9.67-13.96,16.25-24.63,17.4
				C129.18,104.68,89.81,98.38,117.87,73.96 M118.53,41.79c-12.27,0-21.64,7.53-24.24,19.32c-4.58,5.96-4.79,11.52-4.11,15.22
				l1.8,9.78l7.33-6.73c3.1-2.85,6.66-4.62,10.41-5.19c-10.1,10.92-8.79,19.54-7.61,27.25c1.38,9.03,2.81,18.37-17.27,37.13
				L72.8,149.82l16.39-1.76c0.41-0.04,0.83-0.1,1.23-0.15l-4.52,4.73l19.6-8.7l-7.74,12.37l28.84-25.76
				c7.02-6.27,11.84-14.1,13.96-22.22l3.68-5.21c1.76-2.5,3.12-5.19,4.07-8l3.21,5.42l0.28-19.55c0.22-15.11-5.74-24.38-10.77-29.49
				C134.93,45.33,126.74,41.79,118.53,41.79L118.53,41.79z"/>
		</g>
	</g>
</g>
</svg>
