<svg xmlns="http://www.w3.org/2000/svg" enable-background="new 0 0 1000 1000" viewBox="-49.215 115.493 1082.73 839.674" id="WebsiteUnderMaintenance"><g id="Layer1" fill="#000000" class="color000000 svgShape"><path fill="#ebf6ff" d="M374 792.8c-94.2-6.4-289.6 18.8-299.3-247.7C68.8 381.6 267 295.9 313.2 270c46.2-25.8 111.2-142.2 276.3-111.1 147 27.7 168.5 127 206.6 293.2C819.2 552.9 953 563.8 943.3 673.9 934.2 776.4 777.8 820.1 374 792.8z" class="colorebf2ff svgShape"></path><path fill="#c7e1f8" d="M823.8 412.4s39.8 32.7 65.4-19.4c25.6-52.1 12.1-87.8 12.1-87.8s-90.1.6-77.5 107.2z" class="colorc7d9f8 svgShape"></path><path fill="#b5d6f4" d="M314.1 513.3s55.1-73-12.2-135.3c-67.3-62.3-120.6-42.9-120.6-42.9s-20 180.8 132.8 178.2zM894.7 387.2c2.7.5 6-5.4 7.5-13.2.2-1 .3-1.9.4-2.8 7.3-1.1 14.1-2.8 19-5.7 0 0 3.5 13.6 9.5 25.6-10.4 9.8-34.3 33.8-26.7 38.9 6.6 4.5 26.2-11.6 37.9-22.1 3.2 4.5 6.1 9.9 8.1 17.4-5.3 5.1-16 15-22.6 18-9.1 4.1-24.1 8.8-24.1 8.8s-4.8 7.7 19.4 1.1c12.2-3.4 22.1-11.4 29-18.6 1.2 11.2.4 26-4 46.8-.3 1.5-.7 2.9-1.1 4.3-6.2 5.2-14.3 10.3-22.6 10.2-16.3-.2-29.9-8.5-29.9-8.5s-11.5.2-3.1 7.2c7.9 6.6 22.4 20.2 51.4 2.7-16.4 34.5-53.4 25.9-64.6 21.2-12.6-5.3-7.9-27-16.5-33.4-8.6-6.4-20.8 13.1-36.7 8-15.9-5.1-24.7-31.2-13.7-60.1 8.6-22.6 24.6-39.9 37.7-49.6.5 19.5 10.7 46.5 12.2 49.5 2.1 4 6.7 2.2 8.2-.9 1.5-3.1-2.8-10.8-3-30.5-.1-10.2 5.1-20.4 10.2-27.9 5-.5 10.5-.8 16-1.4-1.5 7.9-.5 14.5 2.1 15z" class="colorb5caf4 svgShape"></path><path fill="#c7e1f8" d="M312 407.8s37.6-36.8 4.3-78.5C283 287.6 250.8 294 250.8 294S224.4 395.6 312 407.8z" class="colorc7d9f8 svgShape"></path><linearGradient id="SVGID_1_" x1="1025.656" x2="1098.197" y1="618.979" y2="618.979" gradientTransform="scale(-1 1) rotate(-13.426 -643.986 6269.87)" gradientUnits="userSpaceOnUse"><stop offset="0" stop-color="#629ed2" class="stopColor628cd2 svgShape"></stop><stop offset=".997" stop-color="#a7d6ff" stop-opacity="0" class="stopColora7c1ff svgShape"></stop></linearGradient><path fill="url(#SVGID_1_)" d="M319 434.2h.4c.8 0 1.5-.7 1.5-1.6-.9-39.2-43.5-108.5-45.3-111.5-.4-.7-1.4-.9-2.1-.5-.7.5-.9 1.4-.4 2.1.4.7 43.9 71.5 44.9 109.9-.1.8.4 1.4 1 1.6z"></path><path fill="#c7e1f8" d="M702.1 617.6v.7c.2 1.5 1.5 2.6 2.9 2.4 66.9-8 178.5-97.4 183.3-101.2 1.2-.9 1.4-2.7.5-3.9-.9-1.2-2.6-1.4-3.7-.5-1.1.9-115.2 92.3-180.6 100.1-1.3.2-2.2 1.2-2.4 2.4z" class="colorc7d9f8 svgShape"></path><path fill="#c7e1f8" d="M736.8 603.3s68.9 63.4 134.9-4.6c65.9-68.1 50-126.2 50-126.2s-178-32.6-184.9 130.8zM311.2 620s15.2-117.6-94.5-146.5C106.9 444.5 61.4 500 61.4 500s87.4 218.5 249.8 120z" class="colorc7d9f8 svgShape"></path><path fill="#c7e1f8" d="M322.6 580.9s16-50.2-22.4-100.5-63.4-60-67-62.5c-3.6-2.5-21.8-35.4-44.6-41.9-22.8-6.4-77.1-45.1-95.1-17.8s10.8 58.5 20.7 71.5c10 13 21.2 17.1 32 31.6s36.9-1 48.8 18.7c11.8 19.7-11.9 40.9 80.1 100.9 23.9 15.6 45.5 9.3 47.5 0z" class="colorc7d9f8 svgShape"></path><path fill="#e0f0ff" d="M87.7 376.7c0 1.7 0 3.3.2 5 8.2-3.3 15.6-7 15.3-9.8-.2-2.7-7.6.5-15.5 4.8zM129.9 384.8c-3.7-1-22.5 6.6-37.3 13.1 1.8 3.9 3.9 7.7 6.2 11.3 15.6-8.6 35.5-23.3 31.1-24.4zM142 395.4c-.5-1-20.1 16.8-32.5 28.4 1.8 2.3 3.4 4.3 4.7 6 1.2 1.5 2.3 2.9 3.5 4.2 11-13 24.8-37.6 24.3-38.6zM155.7 399.4c-4.7-3.8-19.3 23.7-30.6 41.5 3.3 2.8 6.6 5.4 9.9 8.3 10.2-17.6 24.1-47 20.7-49.8zM142.6 456.8c1.2 1.4 2.4 2.8 3.5 4.4 13.9-13.9 33-44.2 30.2-43.7-2.3.4-23.2 24.7-33.7 39.3zM186.7 472.1c.8.4 1.6.9 2.3 1.4 8.2-11.8 23.9-36.1 17.3-39.2-6.6-3.1-15.5 24-19.6 37.8zM174.8 469c.5 0 1 .1 1.5.2 4.9-9.2 17.4-33.9 12.2-37.3-5.5-3.6-12.2 26.3-13.7 37.1zM198.4 489.1c.8 3.7 1.2 7.5 2 11.8 17.5-12 44.6-31.7 41.6-37-3.1-5.4-28.5 13.3-43.6 25.2zM206.5 518.5c1.5 2.9 3.4 5.9 5.7 9.1 13.6-15.2 39.1-44.3 37.6-48.2-1.4-3.7-28 23.2-43.3 39.1zM230 547c4.5 4.1 9.7 8.5 15.6 13.2 7.7-16.4 22.2-49.5 17-55.2-5.4-6.2-23.3 22.6-32.6 42zM282.4 585c6.2 3 12.1 4.6 17.4 5.2-4.1-21.7-11.2-52.1-18.2-53.6-8.2-1.8-2.6 31.7.8 48.4zM287.6 494.4c1.7 12.2 22 22.3 33.7 27.1-1.6-5.5-3.7-11.1-6.3-16.9-14.3-10.6-28.7-19.6-27.4-10.2zM284.9 461.6c-1.4-1.7-2.9-3.3-4.3-4.8-21-3.4-24.3-5.7-22.3-.5 1.6 3.9 14.5 3.3 26.6 5.3zM246.7 426.1c-11.6.1-22 .6-17 2.8 7.7 3.3 16.4 3.3 23.8 2.2-2.5-1.9-4.7-3.5-6.8-5zM226.9 410c-12.6 0-25.1.5-19.7 2.8 7.5 3.2 16.1 3.3 23.4 2.3-1-1.4-2.2-3.1-3.7-5.1zM202.9 383.6c-4.3 3.3-8.4 7.5-5.9 10.4 2.7 3.2 7.5-1.6 11-6.1-1.7-1.6-3.4-3-5.1-4.3zM185 374.9c-3.3-1.2-7-2.8-11-4.7-2.2 5.7-3.6 12.9.6 14.5 4 1.6 7.9-4.5 10.4-9.8zM130.9 351.7c-3.1-.9-6.2-1.7-9.2-2.2 3 7.5 6.5 14.3 8.3 14.9 2.1.6 2.4-5.4.9-12.7zM158.6 376.7c1.9-1.6-2.2-9.6-6.6-16.9-1.8-.8-3.7-1.6-5.5-2.4 3.9 13 9.1 21.8 12.1 19.3z" class="colore0eaff svgShape"></path><linearGradient id="SVGID_2_" x1="257.424" x2="257.424" y1="641.243" y2="384.573" gradientTransform="translate(-16.784 -4.187)" gradientUnits="userSpaceOnUse"><stop offset="0" stop-color="#629ed2" class="stopColor628cd2 svgShape"></stop><stop offset="1" stop-color="#a7d6ff" stop-opacity="0" class="stopColora7c1ff svgShape"></stop></linearGradient><path fill="url(#SVGID_2_)" d="M340.9 638.5c-.1 0-.2.1-.3.1-1.1.3-2.2-.4-2.5-1.5-27.9-106.7-81.4-169.5-121.4-203.4-43.3-36.7-80.3-48.4-80.7-48.5-1.1-.3-1.7-1.5-1.4-2.6.3-1.1 1.4-1.7 2.5-1.4.4.1 38.2 12 82.1 49.3 40.4 34.3 94.5 97.9 122.7 205.6.4.9-.1 1.9-1 2.4z"></path><path fill="#95c5ef" d="M882.1 625.5c.9-1.7 5.3-.9 9.8 1.7.6.3 1.1.6 1.6 1 3.7-3.4 7.4-6.3 11-7.7 0 0-5.2-7.7-8.6-16.1-9.4 1.3-31.5 3.8-30.8-2.5.6-5.5 17-9.1 27.2-10.8-.9-3.6-2.3-7.5-5.2-11.8-4.8.6-14.3 2.1-18.6 4.4-5.9 3.1-14.7 9.1-14.7 9.1s-5.9-.8 7.8-10.9c6.9-5.1 15.2-6.9 21.7-7.5-5-5.5-12.7-11.4-25-17.9-.9-.5-1.7-.9-2.6-1.3-5.2 1.1-11.3 3.2-14.8 7.7-6.9 8.8-8.6 19.6-8.6 19.6s-5 6.1-4.9-1.4c.1-7-.4-20.7 20.7-28.6-24.1-6.1-35.8 17.5-38.2 25.5-2.8 9 10 15.8 9.5 23.2-.5 7.3-15.4 5.5-19.7 16.2-4.3 10.7 4.9 26.6 23.9 33.1 14.9 5.1 30.3 4 40.8 1.1-9.5-8.6-18.5-25.7-19.3-27.8-1.1-2.8 1.8-4.5 4-4s4.1 6.1 13.8 14.7c5 4.4 12.3 6 18.2 6.5 2.4-2.5 4.9-5.2 7.5-8-4.5-2.5-7.3-5.8-6.5-7.5z" class="color95baef svgShape"></path><path fill="#c7e1f8" d="M424.5 178.2s-21.6 90.7-7.5 97.4c14.1 6.7 24.6-22.2 23.5-42.8-1.2-20.7-11.5-58-16-54.6z" class="colorc7d9f8 svgShape"></path><linearGradient id="SVGID_3_" x1="1343.75" x2="1392.464" y1="909.528" y2="909.528" gradientTransform="matrix(-.5871 -.5224 -.624 .7012 1787.909 335.374)" gradientUnits="userSpaceOnUse"><stop offset="0" stop-color="#629ed2" class="stopColor628cd2 svgShape"></stop><stop offset="1" stop-color="#a7d6ff" class="stopColora7c1ff svgShape"></stop></linearGradient><path fill="url(#SVGID_3_)" d="M410.7 293.3s.1.1.2.1c.4.2.9 0 1.1-.5 11.1-20.7 11.7-66.8 11.8-68.8 0-.5-.4-.8-.8-.7-.5.1-.8.5-.8 1s-.6 47.6-11.5 67.9c-.3.3-.2.8 0 1z"></path><path fill="#b5d6f4" d="M398.3 273.9s27.4-13.1 16.4-42.6-29.9-32.1-29.9-32.1-32.8 51.1 13.5 74.7z" class="colorb5caf4 svgShape"></path><linearGradient id="SVGID_4_" x1="1388.633" x2="1397.486" y1="241.074" y2="241.074" gradientTransform="matrix(-1 0 0 1 1788.017 0)" gradientUnits="userSpaceOnUse"><stop offset="0" stop-color="#629ed2" class="stopColor628cd2 svgShape"></stop><stop offset="1" stop-color="#a7d6ff" class="stopColora7c1ff svgShape"></stop></linearGradient><path fill="url(#SVGID_4_)" d="M396.1 276.7c.1 0 .1.1.2.1.5.1.9-.1 1.1-.6 6.5-21.8-4.6-68.3-5.1-70.3-.1-.5-.6-.8-1.1-.7-.5.1-.7.6-.6 1.1.1.5 11.5 48 5.1 69.3-.1.5 0 .9.4 1.1z"></path><path fill="#a7d6ff" d="M491.3 199.9c-7.8.2-13.9 7.3-13.9 7.3s6.5 6.7 14.2 6.5c7.8-.2 13.9-7.3 13.9-7.3s-6.5-6.8-14.2-6.5zM479.8 215.8c-7.8.2-13.9 7.3-13.9 7.3s6.5 6.7 14.2 6.5c7.8-.2 13.9-7.3 13.9-7.3s-6.5-6.7-14.2-6.5zM472.7 232.3c-7.5-1.9-15.2 3.1-15.2 3.1s4.5 8.2 12 10.2c7.5 1.9 15.2-3.1 15.2-3.1s-4.4-8.2-12-10.2zM461.3 249.1c-6.1-1.6-12.2 2.5-12.2 2.5s3.6 6.6 9.7 8.2c6.1 1.6 12.2-2.5 12.2-2.5s-3.7-6.6-9.7-8.2zM452.4 265.9c-6.1-1.6-12.2 2.5-12.2 2.5s3.6 6.6 9.7 8.2c6.1 1.6 12.2-2.5 12.2-2.5s-3.7-6.7-9.7-8.2zM472.9 185.3c0 8.1 6.5 14.6 6.5 14.6s6.7-6.5 6.7-14.6-6.5-14.6-6.5-14.6-6.7 6.5-6.7 14.6zM460.3 200.7c2 7.8 10 12.3 10 12.3s4.8-8.1 2.7-15.9c-2-7.8-10-12.3-10-12.3s-4.8 8.1-2.7 15.9zM448.1 217.6c2 7.8 10 12.3 10 12.3s4.8-8.1 2.7-15.9c-2-7.8-10-12.3-10-12.3s-4.7 8.1-2.7 15.9zM436.9 236.6c4.4 6.6 13.5 8 13.5 8s1.8-9.3-2.6-15.9-13.5-8-13.5-8-1.8 9.2 2.6 15.9zM428.2 254.9c5.5 5.7 14.6 5.4 14.6 5.4s.2-9.5-5.3-15.2c-5.5-5.7-14.6-5.4-14.6-5.4s-.2 9.5 5.3 15.2z" class="colora7c1ff svgShape"></path><path fill="#a7d6ff" d="M434 291.5c.2.2.6.2.9.2.8-.2 1.4-1 1.5-1.9 0-.2.6-18 19.5-49.2 19.2-31.6 35.9-48.8 36.1-49 .6-.7.8-1.7.3-2.3-.5-.6-1.4-.6-2 .1-.2.2-17.2 17.7-36.7 49.7-19.6 32.3-20.1 50.5-20.1 51.2 0 .6.2 1 .5 1.2z" class="colora7c1ff svgShape"></path><path fill="#a7d6ff" d="M495.1 176.5c-5.3 5.9-4.8 15.3-4.8 15.3s9.1-.1 14.5-5.9c5.3-5.9 4.8-15.3 4.8-15.3s-9.2 0-14.5 5.9z" class="colora7c1ff svgShape"></path><path fill="#95c5ef" d="M290.6 687.5c-.9.3-1.8-.2-2.2-1.1-30.8-74.7-73.1-97.9-103.2-104.3-30.2-6.4-58.6 2.7-71 15-.7.7-1.9.7-2.6-.1-.7-.8-.7-1.9.1-2.7 12.7-12.6 41.3-23 74.2-16 31 6.5 74.4 30.3 105.9 106.5.4 1 0 2.1-1 2.5l-.2.2z" class="color95baef svgShape"></path><path fill="#95c5ef" d="M67.2 633.8s42.6-48 51.4-44c9.1 4.2-51.4 44-51.4 44z" class="color95baef svgShape"></path><path fill="#95c5ef" d="M59.1 602.1s63.6-17.5 63-14.4c-.7 3.2-34.1 11.2-63 14.4zM67.4 577.3s16.3 6.5 36.2 7.2 28.6-.1 28.6-.1-16.2-6.3-28.9-7.1c-12.6-.7-35.9 0-35.9 0zM78.7 556.1s24.1 12.5 35 15.9c10.9 3.3 27.4 9.5 27.4 9.5s-15.8-10.3-25.4-14.6c-9.6-4.3-37-10.8-37-10.8zM92.9 537.9s17 17.2 27.7 24.2 27.3 14.5 27.3 14.5-14.4-14.8-23.2-20.8-31.8-17.9-31.8-17.9zM109.4 526.5s18.4 26 26.8 33.6c8.4 7.6 22.3 15.6 22.3 15.6s-6.9-12.3-17.2-21.1c-10.4-8.8-31.9-28.1-31.9-28.1zM127.3 520.6s9.6 21 21.6 35.3c12 14.3 20.1 20.9 20.1 20.9s-10.4-19.4-18.9-28.8c-8.6-9.3-22.8-27.4-22.8-27.4zM145.5 518.6s4 16.2 18.5 36.8c14.6 20.6 17.6 22.3 17.6 22.3s-9.1-24.7-14.2-30.8c-5-6.1-21.9-28.3-21.9-28.3zM163.1 517.1s4.6 23.6 12.5 35.8 17.3 28.6 17.3 28.6-6-21.8-11.7-33.3c-5.7-11.4-18.1-31.1-18.1-31.1zM182.3 515.4s-1.5 19 7.2 39.2c8.7 20.2 11.3 30 11.3 30s-3.7-23.9-5.8-33.1c-2.2-9.2-12.7-36.1-12.7-36.1zM198.4 520.3s-.4 20.6 3 35c3.4 14.4 9.5 31.2 9.5 31.2s.6-16.7-1.9-31.4c-2.5-14.6-10.6-34.8-10.6-34.8zM214.4 524.7s-4.5 14.3-.4 37.4c4.2 23 6.5 32.8 6.5 32.8s.8-22.4-.5-34.8c-1.2-12.5-5.6-35.4-5.6-35.4zM231.5 531.7s-5.5 14.2-4.3 29.6c1.2 15.4 3.1 40.5 3.1 40.5s3.7-23.2 3.6-36.1c-.1-12.8-2.4-34-2.4-34zM244.2 541.2s-4.2 7-5.2 30.8 1.3 37.5 1.3 37.5 3.2-21.8 5.4-35.3c2.3-13.4-1.5-33-1.5-33zM259.9 551.9s-4.4 4.4-7.3 26.2c-2.9 21.7-3.9 42.5-3.9 42.5s4.9-20.4 8.2-37.7c3.4-17.2 3-31 3-31zM271.5 569.2s-7.3 3.1-10 24.4c-2.7 21.3-6.2 36-6.2 36s10.9-24.7 12.6-34.8c1.7-10.1 3.6-25.6 3.6-25.6zM282.9 581.3s-9.9 12.5-15 27-6.7 29.2-6.7 29.2 11.8-18.7 15.7-29.8c4-10.9 6-26.4 6-26.4zM266.8 647.7s.7-10.1 8.4-27.5 15.4-21.2 15.4-21.2-4.2 11.3-11.2 26.8c-6.9 15.4-12.6 21.9-12.6 21.9zM272.3 660.4s3.5-19.9 12-28.4c8.6-8.4 13.5-15 13.5-15s-7.8 19.4-11.3 22.5c-3.4 3.1-14.2 20.9-14.2 20.9zM123 590.8s-7.1 24.6-11.5 33.3c-4.3 8.7-17.6 31-17.6 31s9.3-25 13.5-35.5c4.4-10.4 15.6-28.8 15.6-28.8z" class="color95baef svgShape"></path><path fill="#95c5ef" d="M132.2 584.4s-9.5 28.2-11.7 34.5c-2.2 6.3-7.1 24.8-5.9 29.5 1.1 4.7 11.6-25.1 13.3-30.3 1.6-5.1 4.3-33.7 4.3-33.7zM139.7 582s-3.9 10.1-5.8 29.9c-1.9 19.8-3 38-3 38s9.7-30.7 9.5-38.7c-.3-8-.7-29.2-.7-29.2zM152.4 578.9s-5.6 9.8-9.2 31.3c-3.6 21.5-2.7 38.1-2.7 38.1s10-35 10-42.7c.1-7.8 1.9-26.7 1.9-26.7zM166.4 577.7c-3.8 6.2-10.6 20.6-11.7 27.3-1.2 6.6-7.7 39.5-7.7 39.5s9.8-25.3 13.6-38.6c3.9-13.4 5.8-28.2 5.8-28.2zM178.4 578.7s-8.4 14-14.6 33.5-8.8 29.6-8.8 29.6 13.5-29.5 17.1-39.8c3.7-10.2 6.3-23.3 6.3-23.3zM193 581.5s-10.4 9.7-17.5 25.9-15.4 36.1-15.4 36.1 23-32 26.1-39.6c3-7.6 6.8-22.4 6.8-22.4zM207.8 587.5s-11.4 6.4-20.4 20.7c-9 14.3-20.7 35.8-20.7 35.8s21.7-26.1 26.8-33.4c5.2-7.2 14.3-23.1 14.3-23.1zM217.2 593.7s-13 5.9-23.3 20.2c-10.3 14.3-22.1 28.6-22.1 28.6s28.3-21.7 30.7-25.4c2.4-3.8 14.7-23.4 14.7-23.4zM228.2 602.4s-17.3 9.9-23.7 17.1c-6.4 7.2-24.5 27-24.5 27s24.1-18.4 29.7-23.9c5.6-5.5 18.5-20.2 18.5-20.2zM185.6 650.3s20.2-22.2 30.8-28.6c10.6-6.5 21.2-11.3 21.2-11.3s-9.3 10.3-19.3 17.7c-9.8 7.4-32.7 22.2-32.7 22.2zM191.8 651.9s23.4-18.6 31.7-23c8.3-4.4 21.9-9.7 21.9-9.7s-20 17.7-53.6 32.7zM196.1 654.8s22.8-13.3 41.6-21.6 16.2-3 16.2-3-29 16.7-57.8 24.6zM205.5 656s15.5-7.9 26.8-12.9 27.6-3.7 27.6-3.7-18 8.2-25.5 10.4c-7.6 2.1-28.9 6.2-28.9 6.2zM211.8 661.1s12-5.9 27.7-9.1c15.7-3.2 28.5-.8 28.5-.8s-25 5.6-30 5.9c-5 .4-26.2 4-26.2 4zM224.9 667.4s12.8-7.2 22.6-9.4 23.1 1.6 23.1 1.6-17.5 3.1-22.9 3.5c-9.1.7-22.8 4.3-22.8 4.3zM601.5 349.4c.9.3 1.8-.2 2.2-1.1 30.8-74.7 73.1-97.9 103.2-104.3 30.2-6.4 58.6 2.7 71 15 .7.7 1.9.7 2.6-.1.7-.8.7-1.9-.1-2.7-12.7-12.6-41.3-23-74.2-16-31 6.5-74.4 30.3-105.9 106.5-.4 1 0 2.1 1 2.5.1.2.2.2.2.2z" class="color95baef svgShape"></path><path fill="#95c5ef" d="M825 295.7s-42.6-48-51.4-44c-9.2 4.2 51.4 44 51.4 44z" class="color95baef svgShape"></path><path fill="#95c5ef" d="M833 264.1s-63.6-17.5-63-14.4c.7 3.1 34.1 11.1 63 14.4zM824.7 239.2s-16.3 6.5-36.2 7.2c-19.9.7-28.6-.1-28.6-.1s16.2-6.3 28.9-7.1c12.6-.7 35.9 0 35.9 0zM813.4 218s-24.1 12.5-35 15.9c-10.9 3.3-27.4 9.5-27.4 9.5s15.8-10.3 25.4-14.6c9.6-4.3 37-10.8 37-10.8zM799.2 199.8s-17 17.2-27.7 24.2-27.3 14.5-27.3 14.5 14.4-14.8 23.2-20.8c8.8-6 31.8-17.9 31.8-17.9zM782.7 188.5s-18.4 26-26.8 33.6c-8.4 7.6-22.3 15.6-22.3 15.6s6.9-12.3 17.2-21.1 31.9-28.1 31.9-28.1zM764.8 182.6s-9.6 21-21.6 35.3c-12 14.3-20.1 20.9-20.1 20.9s10.4-19.4 18.9-28.8c8.7-9.3 22.8-27.4 22.8-27.4zM746.6 180.6s-4 16.2-18.5 36.8c-14.6 20.6-17.6 22.3-17.6 22.3s9.1-24.7 14.2-30.8c5-6.2 21.9-28.3 21.9-28.3zM729 179s-4.6 23.6-12.5 35.8c-7.9 12.3-17.3 28.6-17.3 28.6s6-21.8 11.7-33.3S729 179 729 179zM709.8 177.4s1.5 19-7.2 39.2c-8.7 20.2-11.3 30-11.3 30s3.7-23.9 5.8-33.1c2.2-9.2 12.7-36.1 12.7-36.1zM693.7 182.3s.4 20.6-3 35c-3.4 14.4-9.5 31.2-9.5 31.2s-.6-16.7 1.9-31.4 10.6-34.8 10.6-34.8zM677.7 186.6s4.5 14.3.4 37.4c-4.2 23-6.5 32.8-6.5 32.8s-.8-22.4.5-34.8c1.2-12.4 5.6-35.4 5.6-35.4zM660.6 193.7s5.5 14.2 4.3 29.6-3.1 40.5-3.1 40.5-3.7-23.2-3.6-36.1c.1-12.8 2.4-34 2.4-34zM647.9 203.2s4.2 7 5.2 30.8-1.3 37.5-1.3 37.5-3.2-21.8-5.4-35.3c-2.3-13.4 1.5-33 1.5-33zM632.2 213.9s4.4 4.4 7.3 26.2c2.9 21.7 3.9 42.5 3.9 42.5s-4.9-20.4-8.2-37.7c-3.4-17.3-3-31-3-31zM620.6 231.2s7.3 3.1 10 24.4c2.7 21.3 6.2 36 6.2 36s-10.9-24.7-12.6-34.8c-1.7-10.1-3.6-25.6-3.6-25.6zM609.3 243.3s9.9 12.5 15 27 6.7 29.2 6.7 29.2-11.8-18.7-15.7-29.8c-4.1-10.9-6-26.4-6-26.4zM625.3 309.6s-.7-10.1-8.4-27.5-15.4-21.2-15.4-21.2 4.2 11.3 11.2 26.8c6.9 15.4 12.6 21.9 12.6 21.9zM619.8 322.3s-3.5-19.9-12-28.4-13.5-15-13.5-15 7.8 19.4 11.3 22.5c3.4 3.2 14.2 20.9 14.2 20.9zM769.1 252.8s7.1 24.6 11.5 33.3c4.3 8.7 17.6 31 17.6 31s-9.3-25-13.5-35.5c-4.4-10.4-15.6-28.8-15.6-28.8zM759.9 246.4s9.5 28.2 11.7 34.5c2.2 6.3 7.1 24.8 5.9 29.5-1.1 4.7-11.6-25.1-13.3-30.3-1.5-5.2-4.3-33.7-4.3-33.7zM752.4 243.9s3.9 10.1 5.8 29.9c1.9 19.8 3 38 3 38s-9.7-30.7-9.5-38.7c.3-8 .7-29.2.7-29.2zM739.7 240.8s5.6 9.8 9.2 31.3c3.6 21.5 2.7 38.1 2.7 38.1s-10-35-10-42.7c-.1-7.8-1.9-26.7-1.9-26.7zM725.7 239.7c3.8 6.2 10.6 20.6 11.7 27.3 1.2 6.6 7.7 39.5 7.7 39.5s-9.8-25.3-13.6-38.6c-3.9-13.4-5.8-28.2-5.8-28.2zM713.7 240.7s8.4 14 14.6 33.5c6.1 19.5 8.8 29.6 8.8 29.6S723.6 274.3 720 264c-3.7-10.2-6.3-23.3-6.3-23.3zM699.1 243.5s10.4 9.7 17.5 25.9 15.4 36.1 15.4 36.1-23-32-26.1-39.6c-3-7.6-6.8-22.4-6.8-22.4zM684.3 249.5s11.4 6.4 20.4 20.7c9 14.3 20.7 35.8 20.7 35.8s-21.7-26.1-26.8-33.4c-5.2-7.2-14.3-23.1-14.3-23.1zM674.9 255.6s13 5.9 23.3 20.2c10.3 14.3 22.1 28.6 22.1 28.6S692 282.7 689.6 279c-2.4-3.8-14.7-23.4-14.7-23.4zM663.9 264.3s17.3 9.9 23.7 17.1c6.4 7.2 24.5 27 24.5 27S688 290 682.4 284.5c-5.6-5.4-18.5-20.2-18.5-20.2zM706.5 312.2s-20.2-22.2-30.8-28.6c-10.6-6.5-21.2-11.3-21.2-11.3s9.3 10.3 19.3 17.7 32.7 22.2 32.7 22.2zM700.3 313.8s-23.4-18.6-31.7-23c-8.3-4.4-21.9-9.7-21.9-9.7s20 17.7 53.6 32.7zM696 316.7s-22.8-13.3-41.6-21.6c-18.7-8.3-16.2-3-16.2-3s29 16.8 57.8 24.6zM686.6 317.9s-15.5-7.9-26.8-12.9-27.6-3.7-27.6-3.7 18 8.2 25.5 10.4c7.6 2.2 28.9 6.2 28.9 6.2zM680.3 323.1s-12-5.9-27.7-9.1c-15.7-3.2-28.5-.8-28.5-.8s25 5.6 30 5.9c5 .3 26.2 4 26.2 4zM667.2 329.4s-12.8-7.2-22.6-9.4-23.1 1.6-23.1 1.6 17.5 3.1 22.9 3.5c9.1.7 22.8 4.3 22.8 4.3z" class="color95baef svgShape"></path></g><g id="Layer_2" fill="#000000" class="color000000 svgShape"><path fill="#2c6aa2" d="M767.8 723H312.9c-20.3 0-35.6-10.7-34-23.8l46.9-400.8c1.5-13.1 19.3-23.8 39.6-23.8h454.9c20.3 0 35.6 10.7 34 23.8l-46.9 400.8c-1.6 13.2-19.3 23.8-39.6 23.8z" class="color2c49a2 svgShape"></path><path fill="#1a4d7a" d="M578.3 290.1c-.5 4.6-3.7 8.4-7.2 8.4-3.4 0-5.7-3.7-5.2-8.4.5-4.6 3.7-8.4 7.2-8.4 3.4.1 5.7 3.8 5.2 8.4z" class="color1a317a svgShape"></path><path fill="#c7e1f8" d="M783.9 693.6H302.4L348 304.5h481.5z" class="colorc7d9f8 svgShape"></path><path fill="#a7d6ff" d="m514 621.6-29.2-5.9c-.2-7.6-1.1-15.2-2.7-22.6l26.2-21.2c1.8-1.5 2.5-4 1.7-6l-7.3-16.7c-.9-2-3-2.9-5.2-2.1l-30 10.4c-4-6.1-8.5-11.8-13.6-16.8l13.9-30.7c1-2.1.4-4.5-1.4-5.7l-15-9.7c-1.8-1.1-4.2-.7-5.9 1l-22.8 24c-6.6-2.8-13.6-5-20.8-6.5l-2.1-31.9c-.1-2.2-1.8-3.8-4-3.8h-18.6c-2.2 0-4.3 1.6-4.9 3.8l-9.4 31.1c-7.4 1.1-15 3-22.5 5.6l-14.9-21-12.9 110.4c12.3-22.4 35.8-38 60.9-38 34.1 0 58.4 28.7 54.2 64.2-3.2 27.4-22.5 50.7-46.9 60h104.4l-15-15c3.6-7.2 6.6-14.7 8.9-22.3l31.5-6.1c2.2-.4 4-2.4 4.3-4.7l2.3-19.3c.2-2.2-1.1-4.1-3.2-4.5zM306.4 659.9l-3.9 33.7h34.3c-14.7-6.1-25.6-18.2-30.4-33.7z" class="colora7c1ff svgShape"></path><g opacity=".65" fill="#000000" class="color000000 svgShape"><path fill="#e0f0ff" d="M516.3 437.1H376.6c-11.9 0-20.9-7.6-20.1-16.9l4.9-57.2c.8-9.3 11.1-16.9 23-16.9h139.7c11.9 0 20.9 7.6 20.1 16.9l-4.9 57.2c-.7 9.3-11 16.9-23 16.9z" class="colore0eaff svgShape"></path><path fill="#a7d6ff" d="m436.6 421.8 39.5-26.6c3-2 3.4-6.3.8-8.4l-34.3-26.6c-3.1-2.4-7.9 0-8.3 4.2l-5.2 53.2c-.4 4.1 4 6.5 7.5 4.2z" class="colora7c1ff svgShape"></path></g><path fill="#e0f0ff" d="M751.9 387.3H572c-4.8 0-8.2-4-7.6-8.9l1.8-15.1c.6-4.9 4.9-8.9 9.7-8.9h179.9c4.8 0 8.2 4 7.6 8.9l-1.8 15.1c-.5 4.9-4.9 8.9-9.7 8.9zM790.9 446.1h-227c-5.4 0-9.2-4.5-8.5-10l1.5-13c.7-5.5 5.5-10 10.9-10h227c5.4 0 9.2 4.5 8.5 10l-1.5 13c-.7 5.6-5.6 10-10.9 10z" class="colore0eaff svgShape"></path><path fill="#2c6aa2" d="M768.7 743.2H108.6c-19.1 0-34.5-15.5-34.5-34.5v-8.6c0-7.6 6.2-13.8 13.8-13.8h701.6c7.6 0 13.8 6.2 13.8 13.8v8.6c0 19.1-15.5 34.5-34.6 34.5z" class="color2c49a2 svgShape"></path><path fill="#0e2539" d="M700.2 712.2h-30.3c-2.4 0-4.4-2-4.4-4.4v-1.6c0-2.4 2-4.4 4.4-4.4h30.3c2.4 0 4.4 2 4.4 4.4v1.6c0 2.5-2 4.4-4.4 4.4zM753.8 712.2h-30.3c-2.4 0-4.4-2-4.4-4.4v-1.6c0-2.4 2-4.4 4.4-4.4h30.3c2.4 0 4.4 2 4.4 4.4v1.6c0 2.5-2 4.4-4.4 4.4z" class="color0e2939 svgShape"></path><g opacity=".8" fill="#000000" class="color000000 svgShape"><path fill="#0583f2" d="M391.7 702.6c0-9 5.1-16.3 11.3-16.3H85.4c-6.2 0-11.3 7.3-11.3 16.3 0 22.5 12.7 40.7 28.3 40.7H420c-15.7-.1-28.3-18.3-28.3-40.7z" class="color628cd2 svgShape"></path><g opacity=".55" fill="#000000" class="color000000 svgShape"><path fill="#1a4d7a" d="M402.2 686.3h.8-.8zM396 724.2H112.8c-15 0-27.2-16.7-28.2-37.8-5.9.6-10.5 7.6-10.5 16.2 0 22.5 12.7 40.7 28.3 40.7H420c-10.1-.1-19-7.7-24-19.1z" class="color1a317a svgShape"></path></g><path fill="#1a4d7a" d="M112.4 699.1h-20c-1.8 0-3.3-1.5-3.3-3.3V694c0-1.8 1.5-3.3 3.3-3.3h20.1c1.8 0 3.3 1.5 3.3 3.3v1.8c-.1 1.9-1.6 3.3-3.4 3.3zM175.2 686.3l.1.2c2 7.6 7.1 12.5 12.7 12.5h45.4c5.6 0 10.7-5 12.7-12.5l.1-.2h-71z" class="color1a317a svgShape"></path></g><path fill="#1a4d7a" d="M851.3 555.8H708.9c-10.1 0-17.3-8.5-16-19l16-135.1c1.2-10.5 10.4-19 20.5-19h142.4c10.1 0 17.3 8.5 16 19l-16 135.1c-1.2 10.5-10.4 19-20.5 19z" class="color1a317a svgShape"></path><path fill="#a7d6ff" d="M844.2 547.3H701.8c-10.1 0-17.3-8.5-16-19l16-135.1c1.2-10.5 10.4-19 20.5-19h142.4c10.1 0 17.3 8.5 16 19l-16 135.1c-1.2 10.5-10.4 19-20.5 19z" class="colora7c1ff svgShape"></path><path fill="#0583f2" d="M835.4 477.2h-6c-.7 0-1.1-.6-.9-1.3l1.9-6.9c.1-.5.6-.9 1.1-.9h3.5c.5 0 .9.4.9.9l.5 6.9c.2.7-.4 1.3-1 1.3zM821.4 479.5l-5.2 3.8c-.6.4-1.3.2-1.5-.4l-2.1-6.4c-.2-.5 0-1.1.5-1.4l3.1-2.3c.4-.3 1-.3 1.3.1l4.2 4.8c.4.5.2 1.4-.3 1.8zM810.3 490.2l-2.5 6.2c-.3.7-1 1-1.6.6l-5.3-3.4c-.4-.3-.6-.8-.3-1.3l1.5-3.7c.2-.5.7-.8 1.2-.8l6.3.9c.7.1 1 .8.7 1.5zM806.5 505.2l1.2 6.2c.1.7-.4 1.4-1 1.5l-6.5.9c-.5.1-.9-.3-1-.8l-.7-3.7c-.1-.5.2-1.1.6-1.3l6-3.4c.6-.4 1.2-.1 1.4.6zM811.3 518.8l4.4 3.8c.5.4.4 1.3-.1 1.7l-5.2 4.8c-.4.4-1 .4-1.3.1l-2.6-2.3c-.4-.3-.4-.9-.2-1.4l3.4-6.4c.3-.6 1.1-.8 1.6-.3zM822.9 525.7h6c.7 0 1.1.6.9 1.3l-1.9 6.9c-.1.5-.6.9-1.1.9h-3.5c-.5 0-.9-.4-.9-.9l-.5-6.9c-.2-.6.3-1.3 1-1.3zM836.9 523.5l5.2-3.8c.6-.4 1.3-.2 1.5.4l2.1 6.4c.2.5 0 1.1-.5 1.4l-3.1 2.3c-.4.3-1 .3-1.3-.1l-4.2-4.8c-.4-.6-.3-1.4.3-1.8zM847.9 512.8l2.5-6.2c.3-.7 1-1 1.6-.6l5.3 3.4c.4.3.6.8.3 1.3l-1.5 3.7c-.2.5-.7.8-1.2.8l-6.3-.9c-.6-.1-.9-.8-.7-1.5zM851.8 497.8l-1.2-6.2c-.1-.7.4-1.4 1-1.5l6.5-.9c.5-.1.9.3 1 .8l.7 3.7c.1.5-.2 1.1-.6 1.3l-6 3.4c-.6.4-1.3.1-1.4-.6zM847 484.2l-4.4-3.8c-.5-.4-.4-1.3.1-1.7l5.2-4.8c.4-.4 1-.4 1.3-.1l2.6 2.3c.4.3.4.9.2 1.4l-3.4 6.4c-.4.5-1.1.7-1.6.3z" class="color628cd2 svgShape"></path><path fill="#0583f2" d="M836 525c-12.7 5.5-25.9-.8-29.5-14-3.6-13.2 3.8-28.4 16.4-33.9 12.7-5.5 25.9.8 29.5 14 3.6 13.2-3.8 28.4-16.4 33.9zm-11.3-41.1c-9.1 3.9-14.3 14.8-11.8 24.2 2.6 9.5 12.1 14 21.1 10 9.1-3.9 14.3-14.8 11.8-24.2-2.5-9.4-12-13.9-21.1-10z" class="color628cd2 svgShape"></path><path fill="#0583f2" d="M831.8 478.9c-11.1 0-21.2 9.9-22.5 22.1-1.3 12.2 6.7 22.1 17.8 22.1 11.1 0 21.2-9.9 22.5-22.1 1.3-12.2-6.7-22.1-17.8-22.1zm-3.1 29.3c-3.6 0-6.2-3.2-5.8-7.2.4-4 3.7-7.2 7.3-7.2 3.6 0 6.2 3.2 5.8 7.2-.4 4-3.7 7.2-7.3 7.2z" class="color628cd2 svgShape"></path><path fill="#319eff" d="m797.8 415.7-.8 6.8c-.1.6-.7 1.1-1.3 1l-6.8-1.4c-.4-.1-.7-.5-.7-1l.5-4.1c.1-.5.4-.9.9-1l7.1-1.4c.6 0 1.1.5 1.1 1.1zM826.7 395.8h-6.6c-.6 0-1-.6-.8-1.2l2.2-7.2c.1-.5.6-.8 1-.8h3.9c.5 0 .8.3.8.8l.5 7.2c.2.6-.4 1.2-1 1.2zM814.6 397.1l-6.1 3.4c-.6.3-1.2.1-1.3-.5l-1.5-6.9c-.1-.5.1-1 .6-1.2l3.6-2c.4-.2.9-.2 1.2.2l3.9 5.5c.4.4.2 1.1-.4 1.5zM804 404.3l-4 5.9c-.4.5-1.1.7-1.5.3l-4.8-4.8c-.3-.3-.3-.8-.1-1.3l2.4-3.5c.3-.4.8-.6 1.2-.4l6.4 2.4c.6.2.8.9.4 1.4zM797.5 428.1l2.6 5.9c.2.5-.1 1.2-.7 1.4l-6.9 2.4c-.5.2-.9 0-1.1-.4l-1.5-3.5c-.2-.4 0-.9.4-1.3l5.9-4.8c.4-.4 1.1-.2 1.3.3zM803.3 438.2l5.3 3.4c.5.3.5 1 .1 1.5l-5.3 5.5c-.3.4-.9.5-1.2.2l-3.2-2c-.4-.2-.5-.7-.3-1.2l3.1-6.9c.3-.5 1-.8 1.5-.5zM813.6 443.3h6.6c.6 0 1 .6.8 1.2l-2.2 7.2c-.1.5-.6.8-1 .8h-3.9c-.5 0-.8-.3-.8-.8l-.5-7.2c-.1-.6.4-1.2 1-1.2zM825.7 442.1l6.1-3.4c.6-.3 1.2-.1 1.3.5l1.5 6.9c.1.5-.1 1-.6 1.2l-3.6 2c-.4.2-.9.2-1.2-.2l-3.9-5.5c-.3-.5-.1-1.2.4-1.5zM836.3 434.8l4-5.9c.4-.5 1.1-.7 1.5-.3l4.8 4.8c.3.3.3.8.1 1.3l-2.4 3.5c-.3.4-.8.6-1.2.4l-6.4-2.4c-.6-.1-.7-.8-.4-1.4zM842.6 423.5l.8-6.8c.1-.6.7-1.1 1.3-1l6.8 1.4c.4.1.7.5.7 1l-.5 4.1c-.1.5-.4.9-.9 1l-7.1 1.4c-.7 0-1.2-.5-1.1-1.1zM842.9 411.1l-2.6-5.9c-.2-.5.1-1.2.7-1.4l6.9-2.4c.5-.2.9 0 1.1.4l1.5 3.5c.2.4 0 .9-.4 1.3l-5.9 4.8c-.4.3-1.1.2-1.3-.3zM837.1 400.9l-5.3-3.4c-.5-.3-.5-1-.1-1.5l5.3-5.5c.3-.4.9-.5 1.2-.2l3.2 2c.4.2.5.7.3 1.2l-3.1 6.9c-.3.6-1 .9-1.5.5z" class="colorffac31 svgShape"></path><path fill="#319eff" d="M826.9 443.5c-13.3 5.5-27.2-.8-30.9-14-3.7-13.2 4.1-28.3 17.5-33.8 13.3-5.5 27.2.8 30.9 14 3.7 13.2-4.2 28.3-17.5 33.8zm-11.5-41c-9.5 3.9-15.2 14.8-12.5 24.2 2.6 9.4 12.6 13.9 22.1 10s15.2-14.8 12.5-24.2c-2.6-9.4-12.6-13.9-22.1-10z" class="colorffac31 svgShape"></path><path fill="#178ffa" d="M822.5 400.4c-10.2 0-19.5 8.6-20.7 19.1-1.3 10.6 6 19.1 16.2 19.1s19.5-8.6 20.7-19.1c1.2-10.5-6.1-19.1-16.2-19.1zm-3.9 32.7c-7.2 0-12.3-6.1-11.4-13.5.9-7.5 7.4-13.5 14.6-13.5s12.3 6.1 11.4 13.5c-.9 7.5-7.4 13.5-14.6 13.5z" class="colorfa8b17 svgShape"></path><path fill="#2c6aa2" d="M794 467.3c-.4-2.2-2.6-3.5-4.9-2.7l-26.2 8.5c-2.8.9-5.3-1.2-4.9-4.1l3.2-27.2c.3-2.4-1.3-4.3-3.6-4.3s-4.3 1.9-4.6 4.3l-3.2 27.5c-.3 2.9-3.3 5-5.9 4.1L720 465c-2.1-.7-4.5.5-5.5 2.7s-.1 4.7 2 5.4l24.2 8.5c2.6.9 3.2 4.2 1.3 6.6l-18 22c-1.6 1.9-1.5 4.6.2 6 1.7 1.4 4.3 1 5.9-.9l18.2-22.2c1.9-2.4 5.3-2.4 6.7 0l12.8 22c1.1 1.9 3.6 2.3 5.6.9 2-1.4 2.7-4.1 1.6-6l-13-22.3c-1.4-2.4.1-5.7 2.8-6.6l25.9-8.4c2.2-.7 3.7-3.2 3.3-5.4z" class="color2c49a2 svgShape"></path><path fill="#2c6aa2" d="M762.1 439h-9.2c-.8 0-1.4-.8-1.1-1.7l3-10.1c.2-.7.8-1.1 1.5-1.1h5.5c.6 0 1.1.5 1.2 1.1l.7 10.1c-.1.9-.8 1.7-1.6 1.7zM746.2 440.5l-8.9 3.7c-.8.3-1.6-.1-1.7-1l-.8-10c-.1-.7.4-1.3 1-1.6l5.3-2.2c.6-.3 1.3 0 1.6.5l4.4 8.6c.3.6-.1 1.6-.9 2zM731.4 448l-7.3 6.7c-.7.6-1.7.5-2-.2l-4.5-8.5c-.3-.6-.1-1.3.4-1.8l4.4-4c.5-.5 1.2-.5 1.7-.2l7.5 5.8c.5.5.4 1.6-.2 2.2zM719.8 460.5l-4.6 8.8c-.4.8-1.4 1.1-2.1.6l-7.6-5.6c-.5-.4-.6-1.1-.3-1.7l2.7-5.3c.3-.6 1-1 1.6-.8l9.4 2.1c.9.2 1.3 1.1.9 1.9zM713.2 476.1l-1.1 9.5c-.1.9-1 1.5-1.8 1.4l-9.5-1.9c-.6-.1-1-.7-.9-1.4l.7-5.7c.1-.7.6-1.2 1.3-1.4l9.9-1.9c.8-.2 1.5.5 1.4 1.4zM712.6 492.3l2.5 8.8c.2.8-.3 1.7-1.2 1.9l-9.9 2.1c-.6.1-1.2-.2-1.4-.8l-1.5-5.3c-.2-.6.1-1.3.7-1.7l8.9-5.6c.8-.5 1.7-.2 1.9.6zM718.2 506.8l5.7 6.7c.5.6.3 1.7-.4 2.1l-8.8 5.8c-.6.4-1.3.3-1.7-.2l-3.4-4c-.4-.5-.4-1.2 0-1.8l6.5-8.5c.6-.6 1.6-.7 2.1-.1zM729 517.3l8.1 3.7c.7.3.9 1.3.4 2.1l-6.4 8.6c-.4.6-1.1.8-1.7.5l-4.8-2.2c-.6-.3-.8-.9-.6-1.6l3.2-10c.1-.9 1.1-1.4 1.8-1.1zM743.4 522.2h9.2c.8 0 1.4.8 1.1 1.7l-3 10.1c-.2.7-.8 1.1-1.5 1.1h-5.5c-.6 0-1.1-.5-1.2-1.1l-.7-10.1c0-.9.8-1.7 1.6-1.7zM759.3 520.8l8.9-3.7c.8-.3 1.6.1 1.7 1l.8 10c.1.7-.4 1.3-1 1.6l-5.3 2.2c-.6.3-1.3 0-1.6-.5l-4.4-8.6c-.4-.6 0-1.6.9-2zM774.1 513.3l7.3-6.7c.7-.6 1.7-.5 2 .2l4.5 8.5c.3.6.1 1.3-.4 1.8l-4.4 4c-.5.5-1.2.5-1.7.2l-7.5-5.8c-.5-.6-.5-1.6.2-2.2zM785.7 500.8l4.6-8.8c.4-.8 1.4-1.1 2.1-.6l7.6 5.6c.5.4.6 1.1.3 1.7l-2.7 5.3c-.3.6-1 1-1.6.8l-9.4-2.1c-1-.2-1.3-1.1-.9-1.9zM792.3 485.2l1.1-9.5c.1-.9 1-1.5 1.8-1.4l9.5 1.9c.6.1 1 .7.9 1.4l-.7 5.7c-.1.7-.6 1.2-1.3 1.4l-9.9 1.9c-.8.1-1.5-.5-1.4-1.4zM792.8 468.9l-2.5-8.8c-.2-.8.3-1.7 1.2-1.9l9.9-2.1c.6-.1 1.2.2 1.4.8l1.5 5.3c.2.6-.1 1.3-.7 1.7l-8.9 5.6c-.7.6-1.6.2-1.9-.6zM787.3 454.4l-5.7-6.7c-.5-.6-.3-1.7.4-2.1l8.8-5.8c.6-.4 1.3-.3 1.7.2l3.4 4c.4.5.4 1.2 0 1.8l-6.5 8.5c-.6.7-1.6.8-2.1.1zM776.5 443.9l-8.1-3.7c-.7-.3-.9-1.3-.4-2.1l6.4-8.6c.4-.6 1.1-.8 1.7-.5l4.8 2.2c.6.3.8.9.6 1.6l-3.2 10c-.1 1-1.1 1.5-1.8 1.1z" class="color2c49a2 svgShape"></path><path fill="#2c6aa2" d="M764.9 524.9c-23.5 9.6-48-1.5-54.5-24.7-6.5-23.3 7.3-50 30.9-59.7 23.5-9.6 48 1.5 54.5 24.7s-7.3 50-30.9 59.7zm-20.3-72.4c-16.8 6.9-26.8 26-22.1 42.7 4.7 16.6 22.2 24.6 39 17.7 16.8-6.9 26.8-26 22.1-42.7-4.6-16.7-22.1-24.6-39-17.7z" class="color2c49a2 svgShape"></path><path fill="#0583f2" d="M741.5 391.3H693c-5.1 0-8.5-4.3-7.7-9.5l6.4-41.9c.8-5.3 5.6-9.5 10.6-9.5h48.5c5.1 0 8.5 4.3 7.7 9.5l-6.4 41.9c-.8 5.2-5.5 9.5-10.6 9.5z" class="color628cd2 svgShape"></path><path fill="#1a4d7a" d="M738.8 387.4h-48.5c-5.1 0-8.5-4.3-7.7-9.5L689 336c.8-5.3 5.6-9.5 10.6-9.5h48.5c5.1 0 8.5 4.3 7.7 9.5l-6.4 41.9c-.8 5.2-5.5 9.5-10.6 9.5z" class="color1a317a svgShape"></path><path fill="#319eff" d="M739.9 375h-46.8c-2.8 0-3.9-3.2-2-5.6l28.8-35.3c1.7-2.1 4.6-2.1 5.7 0l18 35.3c1.2 2.4-.9 5.6-3.7 5.6z" class="colorffac31 svgShape"></path><path fill="#178ffa" d="M739.7 376h-46.8c-1.6 0-3-.9-3.5-2.5-.5-1.5-.2-3.3 1-4.7l28.8-35.3c1-1.2 2.5-2 3.9-2 1.5 0 2.7.7 3.3 2l18 35.3c.7 1.4.5 3.2-.5 4.7-.9 1.6-2.5 2.5-4.2 2.5zm-16.9-42.5c-.8 0-1.6.4-2.2 1.1l-28.8 35.3c-.7.8-.9 1.8-.6 2.7.3.9 1.1 1.4 2 1.4H740c.9 0 1.9-.5 2.4-1.4.6-.9.7-1.9.3-2.7l-18-35.3c-.4-.7-1-1.1-1.9-1.1z" class="colorfa8b17 svgShape"></path><path fill="#1a4d7a" d="m717 359.7 1.5-18.6c.3-1.8 1.9-3.3 3.7-3.3 1.8 0 3 1.5 2.7 3.3l-4.2 18.6c-.2 1-1.1 1.7-2.1 1.7s-1.7-.7-1.6-1.7zm-2.2 6.9c.3-1.7 1.8-3 3.4-3 1.6 0 2.7 1.4 2.5 3-.3 1.7-1.8 3-3.4 3-1.6 0-2.7-1.3-2.5-3zM392.1 489.6H261.9c-11.1 0-19.5-7.8-18.8-17.5l4.6-59.1c.8-9.6 10.4-17.5 21.5-17.5h130.3c11.1 0 19.5 7.8 18.8 17.5l-4.6 59.1c-.8 9.7-10.5 17.5-21.6 17.5z" class="color1a317a svgShape"></path><path fill="#a7d6ff" d="M386.4 481.1H256.1c-11.1 0-19.5-7.8-18.8-17.5l4.6-59.1c.8-9.6 10.4-17.5 21.5-17.5h130.3c11.1 0 19.5 7.8 18.8 17.5l-4.6 59.1c-.8 9.7-10.4 17.5-21.5 17.5z" class="colora7c1ff svgShape"></path><path fill="#2c6aa2" d="m277.9 465 1.1-10.7h-21.2c-1.9 0-3.2-1.8-3-3.9l.6-6c.1-1.1.5-2.2 1.1-3.1l28.6-40.8c.8-1.1 1.9-1.7 3-1.7h4.4c1.9 0 3.2 1.8 3 3.9l-4.3 39.9h3.5c2.2 0 3.7 2 3.4 4.5l-.3 2.6c-.3 2.5-2.2 4.5-4.4 4.5h-3.5l-1.1 10.7c-.2 1.8-1.6 3.2-3.1 3.2h-5.6c-1.3.1-2.4-1.3-2.2-3.1zm2.5-23.4 2-19c.1-1.1-1-1.5-1.6-.6l-13.1 19c-.5.7-.2 1.7.6 1.7h11.1c.5-.1 1-.5 1-1.1zM328.6 398.8c5.8 0 10.1 2.4 12.9 7.2 3.3 5.7 4.3 15 2.9 28.2-1.4 13.1-4.4 22.5-8.9 28.2-3.8 4.7-8.5 7.1-14.4 7.1-5.8 0-10.3-2.6-13.3-7.8-3-5.2-3.8-14.4-2.4-27.7 1.4-13 4.4-22.4 8.9-28.1 3.6-4.8 8.4-7.1 14.3-7.1zm-1.2 11c-1.4 0-2.7.5-3.9 1.5-1.2 1-2.2 2.9-3.1 5.5-1.2 3.4-2.2 9.2-3 17.3-.9 8.1-1.1 13.7-.7 16.7.4 3 1.1 5.1 2 6.1 1 1 2.2 1.5 3.5 1.5 1.4 0 2.7-.5 3.9-1.5 1.2-1 2.2-2.9 3.1-5.5 1.2-3.4 2.2-9.1 3-17.3.9-8.1 1.1-13.7.7-16.7-.4-3-1.1-5.1-2-6.1-.9-1-2.1-1.5-3.5-1.5zM371.3 465l1.1-10.7h-21.2c-1.9 0-3.2-1.8-3-3.9l.6-6c.1-1.1.5-2.2 1.1-3.1l28.6-40.8c.8-1.1 1.9-1.7 3-1.7h4.4c1.9 0 3.2 1.8 3 3.9l-4.3 39.9h3.5c2.2 0 3.7 2 3.4 4.5l-.3 2.6c-.3 2.5-2.2 4.5-4.4 4.5h-3.5l-1.1 10.7c-.2 1.8-1.6 3.2-3.1 3.2h-5.6c-1.3.1-2.4-1.3-2.2-3.1zm2.5-23.4 2-19c.1-1.1-1-1.5-1.6-.6L361 441c-.5.7-.2 1.7.6 1.7h11.1c.5-.1 1-.5 1.1-1.1z" class="color2c49a2 svgShape"></path><ellipse cx="313" cy="809.4" fill="#fcfeff" opacity=".056" rx="298.4" ry="43.2" class="colorfcfdff svgShape"></ellipse><ellipse cx="313" cy="809.4" fill="#f9fcfe" opacity=".111" rx="283.7" ry="41.1" class="colorf9fbfe svgShape"></ellipse><ellipse cx="313" cy="809.4" fill="#f5fafe" opacity=".167" rx="269.1" ry="39" class="colorf5f8fe svgShape"></ellipse><ellipse cx="313" cy="809.4" fill="#f2f8fd" opacity=".222" rx="254.4" ry="36.9" class="colorf2f6fd svgShape"></ellipse><ellipse cx="313" cy="809.4" fill="#eff6fd" opacity=".278" rx="239.8" ry="34.8" class="coloreff4fd svgShape"></ellipse><ellipse cx="313" cy="809.4" fill="#ecf4fc" opacity=".333" rx="225.1" ry="32.6" class="colorecf2fc svgShape"></ellipse><ellipse cx="313" cy="809.4" fill="#e9f3fc" opacity=".389" rx="210.5" ry="30.5" class="colore9f0fc svgShape"></ellipse><ellipse cx="313" cy="809.4" fill="#e6f1fb" opacity=".444" rx="195.8" ry="28.4" class="colore6eefb svgShape"></ellipse><ellipse cx="313" cy="809.4" fill="#e3f0fb" opacity=".5" rx="181.2" ry="26.3" class="colore3ecfb svgShape"></ellipse><ellipse cx="313" cy="809.4" fill="#dfeefb" opacity=".556" rx="166.5" ry="24.1" class="colordfe9fb svgShape"></ellipse><ellipse cx="313" cy="809.4" fill="#dcecfa" opacity=".611" rx="151.9" ry="22" class="colordce7fa svgShape"></ellipse><ellipse cx="313" cy="809.4" fill="#d9ebfa" opacity=".667" rx="137.2" ry="19.9" class="colord9e5fa svgShape"></ellipse><ellipse cx="313" cy="809.4" fill="#d6e9f9" opacity=".722" rx="122.6" ry="17.8" class="colord6e3f9 svgShape"></ellipse><ellipse cx="313" cy="809.4" fill="#d3e7f9" opacity=".778" rx="107.9" ry="15.6" class="colord3e1f9 svgShape"></ellipse><ellipse cx="313" cy="809.4" fill="#d0e5f8" opacity=".833" rx="93.3" ry="13.5" class="colord0dff8 svgShape"></ellipse><ellipse cx="313" cy="809.4" fill="#cce3f8" opacity=".889" rx="78.6" ry="11.4" class="colorccdcf8 svgShape"></ellipse><ellipse cx="313" cy="809.4" fill="#c9e1f7" opacity=".944" rx="63.9" ry="9.3" class="colorc9daf7 svgShape"></ellipse><ellipse cx="313" cy="809.4" fill="#c6e0f7" rx="49.3" ry="7.1" class="colorc6d8f7 svgShape"></ellipse><path fill="#1a4d7a" d="M154.2 804.2h-14.6c-6.9 0-11.9-6.7-10.1-13.5l65-249.5h36.2l-66.4 255c-1.2 4.7-5.3 8-10.1 8zM343.1 804.2h-14.6c-6.9 0-11.9-6.7-10.1-13.5l62.9-241.5c1.2-4.7 5.4-8 10.1-8H406c6.9 0 11.9 6.7 10.1 13.5l-62.9 241.5c-1.3 4.7-5.4 8-10.1 8z" class="color1a317a svgShape"></path><path fill="#1a4d7a" d="M466.7 804.2h14.6c6.9 0 11.9-6.7 10.1-13.5l-62.9-241.5c-1.2-4.7-5.4-8-10.1-8h-14.6c-6.9 0-11.9 6.7-10.1 13.5l62.9 241.5c1.2 4.7 5.4 8 10.1 8zM197.3 502.6h23.8v55.1h-23.8z" class="color1a317a svgShape"></path><ellipse cx="209.2" cy="493.5" fill="#178ffa" rx="29.5" ry="30.4" class="colorfa8b17 svgShape"></ellipse><ellipse cx="209.2" cy="493.5" fill="#319eff" rx="21.9" ry="22.5" class="colorffac31 svgShape"></ellipse><path fill="#1a4d7a" d="M391 502.6h23.8v55.1H391z" class="color1a317a svgShape"></path><ellipse cx="402.9" cy="493.5" fill="#178ffa" rx="29.5" ry="30.4" class="colorfa8b17 svgShape"></ellipse><ellipse cx="402.9" cy="493.5" fill="#319eff" rx="21.9" ry="22.5" class="colorffac31 svgShape"></ellipse><linearGradient id="SVGID_5_" x1="-114.398" x2="-114.398" y1="617.585" y2="539.668" gradientTransform="matrix(1 0 -.5359 1 715.193 0)" gradientUnits="userSpaceOnUse"><stop offset="0" stop-color="#1892ff" class="stopColorff5f18 svgShape"></stop><stop offset=".444" stop-color="#2296ff" class="stopColorff7e22 svgShape"></stop><stop offset="1" stop-color="#319eff" class="stopColorffab31 svgShape"></stop></linearGradient><path fill="url(#SVGID_5_)" d="M177.4 617.6h206.4c11.6 0 23.6-9.7 26.7-21.7l9-34.5c3.1-12-3.8-21.7-15.4-21.7H197.7c-11.6 0-23.6 9.7-26.7 21.7l-9 34.5c-3.2 12 3.7 21.7 15.4 21.7z"></path><path fill="#ffffff" d="M383.8 617.6h-9.2l-21.1-77.9h35l17.7 65.3c-5.3 7.4-14 12.6-22.4 12.6zM304.7 617.6l-21.2-77.9h35l21.2 77.9zM234.8 617.6l-21.2-77.9h35l21.2 77.9zM180.6 546.5l19.3 71.1h-22.5c-11.6 0-18.5-9.7-15.4-21.7l9-34.5c1.4-5.8 5-11 9.6-14.9z" class="colorffffff svgShape"></path><linearGradient id="SVGID_6_" x1="-87.478" x2="-87.478" y1="701.904" y2="650.774" gradientTransform="matrix(1 0 -.5359 1 715.193 0)" gradientUnits="userSpaceOnUse"><stop offset="0" stop-color="#1892ff" class="stopColorff5f18 svgShape"></stop><stop offset=".444" stop-color="#2296ff" class="stopColorff7e22 svgShape"></stop><stop offset="1" stop-color="#319eff" class="stopColorffab31 svgShape"></stop></linearGradient><path fill="url(#SVGID_6_)" d="M151.4 701.9h214.4c9.4 0 19.1-7.9 21.6-17.6l4.2-16c2.5-9.7-3.1-17.6-12.5-17.6H164.7c-9.4 0-19.1 7.9-21.6 17.6l-4.2 16c-2.5 9.7 3.1 17.6 12.5 17.6z"></path><path fill="#ffffff" d="m175 701.9-13.8-50.8c-8.2 1.6-16 8.7-18.2 17.2l-4.2 16c-2.5 9.7 3.1 17.6 12.5 17.6H175zM210 701.9h35l-13.9-51.1h-35zM279.9 701.9h35L301 650.8h-35zM335.9 650.8l13.9 51.1h16c6.1 0 12.4-3.3 16.7-8.3l-11.6-42.8h-35z" class="colorffffff svgShape"></path><ellipse cx="758.2" cy="783" fill="#fcfeff" opacity=".056" rx="215.5" ry="31.2" class="colorfcfdff svgShape"></ellipse><ellipse cx="758.2" cy="783" fill="#f9fcfe" opacity=".111" rx="204.9" ry="29.7" class="colorf9fbfe svgShape"></ellipse><ellipse cx="758.2" cy="783" fill="#f5fafe" opacity=".167" rx="194.4" ry="28.2" class="colorf5f8fe svgShape"></ellipse><ellipse cx="758.2" cy="783" fill="#f2f8fd" opacity=".222" rx="183.8" ry="26.6" class="colorf2f6fd svgShape"></ellipse><ellipse cx="758.2" cy="783" fill="#eff6fd" opacity=".278" rx="173.2" ry="25.1" class="coloreff4fd svgShape"></ellipse><ellipse cx="758.2" cy="783" fill="#ecf4fc" opacity=".333" rx="162.6" ry="23.6" class="colorecf2fc svgShape"></ellipse><ellipse cx="758.2" cy="783" fill="#e9f3fc" opacity=".389" rx="152" ry="22" class="colore9f0fc svgShape"></ellipse><ellipse cx="758.2" cy="783" fill="#e6f1fb" opacity=".444" rx="141.4" ry="20.5" class="colore6eefb svgShape"></ellipse><ellipse cx="758.2" cy="783" fill="#e3f0fb" opacity=".5" rx="130.9" ry="19" class="colore3ecfb svgShape"></ellipse><ellipse cx="758.2" cy="783" fill="#dfeefb" opacity=".556" rx="120.3" ry="17.4" class="colordfe9fb svgShape"></ellipse><ellipse cx="758.2" cy="783" fill="#dcecfa" opacity=".611" rx="109.7" ry="15.9" class="colordce7fa svgShape"></ellipse><ellipse cx="758.2" cy="783" fill="#d9ebfa" opacity=".667" rx="99.1" ry="14.4" class="colord9e5fa svgShape"></ellipse><ellipse cx="758.2" cy="783" fill="#d6e9f9" opacity=".722" rx="88.5" ry="12.8" class="colord6e3f9 svgShape"></ellipse><ellipse cx="758.2" cy="783" fill="#d3e7f9" opacity=".778" rx="77.9" ry="11.3" class="colord3e1f9 svgShape"></ellipse><ellipse cx="758.2" cy="783" fill="#d0e5f8" opacity=".833" rx="67.4" ry="9.8" class="colord0dff8 svgShape"></ellipse><ellipse cx="758.2" cy="783" fill="#cce3f8" opacity=".889" rx="56.8" ry="8.2" class="colorccdcf8 svgShape"></ellipse><path fill="#c9e1f7" d="M804.4 783c0 3.7-20.7 6.7-46.2 6.7-25.5 0-46.2-3-46.2-6.7s20.7-6.7 46.2-6.7c25.5.1 46.2 3 46.2 6.7z" opacity=".944" class="colorc9daf7 svgShape"></path><path fill="#c6e0f7" d="M793.8 783c0 2.9-15.9 5.2-35.6 5.2-19.7 0-35.6-2.3-35.6-5.2s15.9-5.2 35.6-5.2c19.7.1 35.6 2.4 35.6 5.2z" class="colorc6d8f7 svgShape"></path><linearGradient id="SVGID_7_" x1="69.271" x2="69.271" y1="514.703" y2="324.759" gradientTransform="rotate(116.176 334.357 800.268)" gradientUnits="userSpaceOnUse"><stop offset="0" stop-color="#1892ff" class="stopColorff5f18 svgShape"></stop><stop offset=".444" stop-color="#2296ff" class="stopColorff7e22 svgShape"></stop><stop offset="1" stop-color="#319eff" class="stopColorffab31 svgShape"></stop></linearGradient><path fill="url(#SVGID_7_)" d="m669.4 772 78.7-166.2 127 154.8c7 8.6.8 21.8-10 21.2L669.4 772z"></path><path fill="#ffffff" d="m814.2 686.4-42.9 90.7 38.1 1.9 29.5-62.4zM772 634.9l-65.8 138.9 38.1 2 52.4-110.7z" class="colorffffff svgShape"></path><path fill="#1892ff" d="m640 764.3 84.3-178c3.6-7.6 12.5-10.8 19.9-7 7.4 3.8 10.4 13 6.8 20.6l-84.3 178c-3.6 7.6-12.5 10.8-19.9 7-7.4-3.7-10.4-13-6.8-20.6z" class="colorff5f18 svgShape"></path><path fill="#0e2539" d="M748.1 605.8 669.4 772l10.1.5 75.1-158.7z" opacity=".35" class="color0e2939 svgShape"></path><ellipse cx="601" cy="878.9" fill="#fcfeff" opacity=".056" rx="250.4" ry="36.3" class="colorfcfdff svgShape"></ellipse><ellipse cx="601" cy="878.9" fill="#f9fcfe" opacity=".111" rx="238.1" ry="34.5" class="colorf9fbfe svgShape"></ellipse><ellipse cx="601" cy="878.9" fill="#f5fafe" opacity=".167" rx="225.8" ry="32.7" class="colorf5f8fe svgShape"></ellipse><ellipse cx="601" cy="878.9" fill="#f2f8fd" opacity=".222" rx="213.5" ry="30.9" class="colorf2f6fd svgShape"></ellipse><ellipse cx="601" cy="878.9" fill="#eff6fd" opacity=".278" rx="201.2" ry="29.2" class="coloreff4fd svgShape"></ellipse><ellipse cx="601" cy="878.9" fill="#ecf4fc" opacity=".333" rx="188.9" ry="27.4" class="colorecf2fc svgShape"></ellipse><ellipse cx="601" cy="878.9" fill="#e9f3fc" opacity=".389" rx="176.6" ry="25.6" class="colore9f0fc svgShape"></ellipse><ellipse cx="601" cy="878.9" fill="#e6f1fb" opacity=".444" rx="164.3" ry="23.8" class="colore6eefb svgShape"></ellipse><ellipse cx="601" cy="878.9" fill="#e3f0fb" opacity=".5" rx="152" ry="22" class="colore3ecfb svgShape"></ellipse><ellipse cx="601" cy="878.9" fill="#dfeefb" opacity=".556" rx="139.7" ry="20.3" class="colordfe9fb svgShape"></ellipse><ellipse cx="601" cy="878.9" fill="#dcecfa" opacity=".611" rx="127.4" ry="18.5" class="colordce7fa svgShape"></ellipse><ellipse cx="601" cy="878.9" fill="#d9ebfa" opacity=".667" rx="115.1" ry="16.7" class="colord9e5fa svgShape"></ellipse><ellipse cx="601" cy="878.9" fill="#d6e9f9" opacity=".722" rx="102.8" ry="14.9" class="colord6e3f9 svgShape"></ellipse><ellipse cx="601" cy="878.9" fill="#d3e7f9" opacity=".778" rx="90.5" ry="13.1" class="colord3e1f9 svgShape"></ellipse><ellipse cx="601" cy="878.9" fill="#d0e5f8" opacity=".833" rx="78.3" ry="11.3" class="colord0dff8 svgShape"></ellipse><ellipse cx="601" cy="878.9" fill="#cce3f8" opacity=".889" rx="66" ry="9.6" class="colorccdcf8 svgShape"></ellipse><ellipse cx="601" cy="878.9" fill="#c9e1f7" opacity=".944" rx="53.7" ry="7.8" class="colorc9daf7 svgShape"></ellipse><ellipse cx="601" cy="878.9" fill="#c6e0f7" rx="41.4" ry="6" class="colorc6d8f7 svgShape"></ellipse><path fill="#178ffa" d="M534.7 586.5s-21.1-43.4-15.9-70.4c.8-4.1 49.8-53.7 73.4-56.4 5.7-.7-5.2 26.4-5.3 31.3-.3 13.9-44.3 31.5-44 34.7.3 4 6.7 47.6 6.7 47.6l-14.9 13.2z" class="colorfa8b17 svgShape"></path><path fill="#1892ff" d="M586.8 490.9c0-.8.3-2.2.8-3.9l-4.5-8.9s-42 28.4-45.3 39.5c-3.1 10.5 4.7 40.7 10.2 56.9l1.4-1.3s-6.4-43.6-6.7-47.6c-.2-3.1 43.8-20.8 44.1-34.7z" opacity=".55" class="colorff5f18 svgShape"></path><path fill="#319eff" d="M673.6 469.6s-12.7-13.4-38.8-16.8c-25.2-3.3-48.7 8.1-51.9 9.6-2.4 1.1 3.2 46.2-7.4 75.9-10.6 29.7-32.7 64.9-32.7 64.9l94.4-7.3s21.9-11.5 24.3-18.9c3.8-11.6-6.1-47.6.4-86.2 2.2-13.4 11.7-21.2 11.7-21.2z" class="colorffac31 svgShape"></path><path fill="#1892ff" d="M673.6 469.6s-1.6-1.6-4.7-3.9c-1.6 1.7-5.4 4.8-8.8 13.7-7.2 19-5.5 44.6-2.2 72.1 1.1 9.2 2.4 17.8 3.7 25.3 3.6-11.8-6.1-47.6.3-86 2.2-13.4 11.7-21.2 11.7-21.2z" opacity=".69" class="colorff5f18 svgShape"></path><linearGradient id="SVGID_8_" x1="-252.203" x2="-252.203" y1="889.543" y2="831.181" gradientTransform="translate(798.257)" gradientUnits="userSpaceOnUse"><stop offset="0" stop-color="#2c6aa1" class="stopColor2c49a1 svgShape"></stop><stop offset="1"></stop></linearGradient><path fill="url(#SVGID_8_)" d="M559.7 832.7s-.7 9.2-.5 24.9c.2 15.7 1.7 20.1-3.1 23.3-4.8 3.2-8 10.1-11.7 8.4-3.6-1.7-8.3-4.5-10.2-11.1-2-6.5-2.6-24.1-.4-28.4 2.2-4.3 5.9-18.7 5.9-18.7l20 1.6z"></path><path fill="#2c6aa2" d="M536.1 838.9c6.5 3.2 13.8 4.1 20.8 2.5l2.1-.5s6-21.5 11.7-52.7c6.4-35 7.1-59.8 8-72.9 1.5-22.6 15.6-67.8 16.8-95.6.5-11.6 14.5-28.8 8.6-31.4-7.9-3.5-41.1-7.5-41.1-7.5s-16.1 10.4-20.1 22.6c-5.9 17.7-3.3 57 0 99.2.5 6.2-5.8 27.9-7.2 42.7s.4 93.6.4 93.6z" class="color2c49a2 svgShape"></path><g opacity=".55" fill="#000000" class="color000000 svgShape"><path fill="#164773" d="m578.2 723-8.9 6.2c-9.1 6.3-17.4 13.9-24.6 22.4l-9.5 13.4c0 14.7.2 34 .5 49.2 9.2-8.2 22.8-20.4 36.2-32.7 4.3-25.7 5.6-45.5 6.3-58.5z" class="color1b327b svgShape"></path></g><path fill="#164773" d="M578.7 715.3c1.5-22.6 15.6-67.8 16.8-95.6.2-4.2 2.2-9.3 4.3-14l-3.5-19.7c-1.8-.4-23.9.9-26 .5 12.4 21.4 10 36.1 8.3 66.4-2.5 43.9-12.3 115.2-16.3 134.9-3.2 16.1-5.4 44-6.2 53.7.3-.1.5-.1.8-.2l2.1-.5s6-21.5 11.7-52.7c6.3-34.8 7.1-59.7 8-72.8z" class="color1b327b svgShape"></path><linearGradient id="SVGID_9_" x1="-264.051" x2="-307.174" y1="860.248" y2="817.125" gradientTransform="translate(798.257)" gradientUnits="userSpaceOnUse"><stop offset="0" stop-color="#2c6aa1" class="stopColor2c49a1 svgShape"></stop><stop offset="1"></stop></linearGradient><path fill="url(#SVGID_9_)" d="M517.2 803.5s-8.2.7-14 3.9c-5.8 3.2-10.4 8.1-10.4 8.1s3.7 12.4 4.8 19c1 6.6.9 19.7 2.4 23.9 1.5 4.2 10.7 21 14.7 20.5s2.6-6.7 1.5-10.2 1.3-18.5 2-24.4c.6-5.9 10.5-18.8 10.5-18.8s-4.6-2.3-7.5-6.3c-3-4.1-4-15.7-4-15.7z"></path><path fill="#2c6aa2" d="M649.3 602.2s-8.8 99.3-28.4 140.2c-4 8.3-91.9 86.1-91.9 86.1-7.5-4.8-12.2-13.1-12.5-22.2l-.1-3.6 33.2-47c7.2-8.5 15.5-16.1 24.6-22.4l11-7.6c2-2 3.2-4.8 3.4-7.7l7.9-141.6 18.9 9.1 33.9 16.7z" class="color2c49a2 svgShape"></path><path fill="#164773" d="M628.3 591.9c.4 24.5 1.2 124.4-9.1 137.9-11.8 15.4-86.5 77-101.2 81.4l-.9.3c1.6 7 5.8 13.2 11.8 17 0 0 88-77.8 91.9-86.1 19.6-40.9 28.4-140.2 28.4-140.2l-20.9-10.3z" class="color1b327b svgShape"></path><path fill="#2c6aa2" d="M653.1 457.4c-4.8 9.4-11.2 35-13.3 52.1-19.3-7-28.3-2.8-33.8-2.1.4-7.5.3-14.9-.3-22.4l-2.7-29.8c-4.9 1.2-5.9 1.5-9.2 2.8 0 0 3.6 66.8-7.4 84.5-6.5 10.5-12.4 15.6-19 15.3-1 2.2-2.1 4.4-3.1 6.6-5 10.3-13.2 21.5-17.9 29.6-2.2 3.9-3.6 9.2-3.6 9.2l44.4-2.3c2.7-.1 5.3-.2 8-.1l49.1 1.6s2-11.3 9.2-16.7c.7-4.5 4.8-9 5.6-13.5-1.9-4-19.2-70.4 3.9-110.4-3.2-1.8-5-2.6-9.9-4.4z" class="color2c49a2 svgShape"></path><path fill="#0583f2" d="m607.3 515.5 29.8 1.2-1.2 17.8c-.4 5.2-3.3 9.8-7.6 12.3-5.8 3.3-13 2.4-17.7-2.4l-.3-.3c-3.3-3.3-4.9-8-4.5-12.7l1.5-15.9z" class="color628cd2 svgShape"></path><path fill="#164773" d="m633 516.6-1.1 16.4c-.4 5.3-3.3 9.9-7.8 12.5-2.9 1.7-6.2 2.3-9.4 1.9 4.3 2.1 9.3 2 13.6-.5 4.4-2.5 7.2-7.1 7.6-12.3l1.2-17.8-4.1-.2z" opacity=".85" class="color1b327b svgShape"></path><path fill="#164773" d="M577.8 591.9c-5.7 39.2 29 25.2 43.2 19.6 14.2-5.6 4-15.8 4-15.8s-7.3 2-28.1 2.7c-20.8.8-19.1-6.5-19.1-6.5z" class="color1b327b svgShape"></path><path fill="#b6dafa" d="M659 562.9c-2.2.5-11.2-.4-16.4-.9-2.2-.2-4.4.8-5.7 2.6l-15.7 22.3c-1.4 1.7-2.1 3.9-2.1 6.1v12c0 3.5 1.7 6.7 4.5 8.6l8.5 5.7c1.3.9 3.1-.1 3.1-1.7v-18.9l13.2-18 10.7 3.8v-21.6z" class="colorfac4b6 svgShape"></path><path fill="#a6d0f5" d="m623.7 613.6 8.5 5.7c1.3.9 3.1-.1 3.1-1.7v-18.9l13.2-18 2.9 1-2-6.9s-7.5.5-9 3.6c-1.4 3.2-10.8 13.2-10.6 19.3.2 6.2.8 12.9-1 13.2-1.8.2-9.4-5.9-9.4-5.9-.2 3.5 1.5 6.7 4.3 8.6z" class="colorf5b3a6 svgShape"></path><path fill="#178ffa" d="M700.4 575.7c12.4-13.8-20.2-108.4-26.9-106.1-15.9 5.5-14.5 41.9-13.9 44 6.2 19.7 18.7 38.4 17.3 39.8-2.5 2.4-26.2 7.3-32.4 7.8-.9.1-1.9.2-2.8.5l-2 .6c7.3 5.5 7.6 12 7 23 .2 0 42.8 2.6 53.7-9.6z" class="colorfa8b17 svgShape"></path><path fill="#1892ff" d="M673.6 469.6c-3.1 1.1-5.5 3.3-7.4 6.1 2.3 1.2 4.8 3.8 7.4 8.5 11.6 21 23.3 70.6 23.3 77.6 0 6.5-35.1 13.4-50 12.9.3 3 .2 6.4 0 10.5 0 0 42.7 2.7 53.6-9.5 12.3-13.8-20.3-108.4-26.9-106.1z" opacity=".55" class="colorff5f18 svgShape"></path><path fill="#c7e1f8" d="M679.1 804.5V637.4c9.7-5.5 16.3-16.2 16.2-28.5-.1-17.8-13.8-31.9-31-31.9-17.1 0-31 14.4-31 32.1 0 10.3 4.7 19.5 12 25.4v195.1c-.1.1-.2.3-.3.4l-15.9 21.6c-6.8 9.2-5.1 22.4 3.8 29.4 0 0 11.5 8.9 20.7 15.8 3.6 2.7 8.3-1 6.9-5.3l-5.7-17.5c-2.3-7 1.4-14.6 8.1-16.9l9.5-3.3c6.7-2.4 14 1.4 16.3 8.4l6.3 19.5c.4 1.4 2.2 1.6 3 .5l4.7-6.3c3.4-4.6 2-20.9-4.7-35.5-6.7-14.8-20.7-8.7-18.9-35.9zM664.8 624c-8.6 0-15.5-7.2-15.5-16.1 0-8.9 6.9-16.1 15.5-16.1s15.5 7.2 15.5 16.1c0 8.9-7 16.1-15.5 16.1z" class="colorc7d9f8 svgShape"></path><path fill="#0583f2" d="M661.8 592.1c-1-.2-1.9-.3-2.9-.3-8.6 0-15.5 7.2-15.5 16.1 0 8.9 6.9 16.1 15.5 16.1 1 0 2-.1 2.9-.3-7.2-1.4-12.6-8-12.6-15.8s5.5-14.4 12.6-15.8zM698.1 840.2c-6.8-14.6-20.8-8.5-19-35.7V637.4c9.7-5.5 16.3-16.2 16.2-28.5-.1-17.8-13.8-31.9-31-31.9-1 0-2 .1-2.9.1 15.7 1.5 27.9 15 28 31.7.1 12.3-6.5 23.1-16.2 28.5v167.1c-1.8 27.2 12.2 21.1 19 35.7 6.7 14.5 8.1 30.9 4.7 35.5l-2.5 3.5.8 2.4c.4 1.4 2.2 1.6 3 .5l4.7-6.3c3.3-4.6 2-20.9-4.8-35.5zM666.7 853.7l-9.5 3.3c-6.7 2.4-10.4 9.9-8.1 16.9l5.7 17.5c.7 2 0 3.9-1.4 5.1.1.1.2.2.3.2 3.6 2.7 8.3-1 6.9-5.3l-5.7-17.5c-2.3-7 1.4-14.6 8.1-16.9l9.5-3.3 1.2-.3c-2.2-.6-4.6-.6-7 .3z" class="color628cd2 svgShape"></path><path fill="#b6dafa" d="M536.1 581.4c-.6 1.1-1.4 2.1-2.3 3.1-1.8 1.9-2.2 4.8-1.1 7.3 2.2 5 6.4 11.2 12.3 8.1 9.4-4.9 16.6-16.3 17.2-19.4.4-1.8-2.6-4.7-5.1-6.8-1.7-1.4-4-1.7-6-1-1.2.5-2.4.8-3.7 1h-.2c-4.6.6-8.7 3.4-11 7.6l-.1.1z" class="colorfac4b6 svgShape"></path><path fill="#a6d0f5" d="M559.4 575.7c-2.4 5.1-9.8 15.5-19.1 20.4-1.7.9-3.2 1.1-4.7.9 2.3 3 5.4 5 9.4 2.9 9.4-4.9 16.6-16.3 17.2-19.4.3-1.3-1-3.1-2.8-4.8z" class="colorf5b3a6 svgShape"></path><path fill="#b6dafa" d="M629.2 474.3c-7.8 0-14.1-6.6-14.1-14.6l-2-29.9H638l5.3 29.9c0 8-6.3 14.6-14.1 14.6z" class="colorfac4b6 svgShape"></path><path fill="#a6d0f5" d="M638 429.7h-24.9l1 14.9c4.9 5.6 10.6 8.8 15.9 8.1 3.4-.4 7.3-3.9 10.4-9.2l-2.4-13.8z" class="colorf5b3a6 svgShape"></path><path fill="#b6dafa" d="M602.2 415.1c4.3 19.5 16.8 34.5 27.9 33.1 7.8-1 18.2-17.8 15.7-37.6-2.5-19.5-7.5-32.5-27.6-31.4-12.5.7-20.3 16.5-16 35.9z" class="colorfac4b6 svgShape"></path><path fill="#0e2539" d="M645.8 410.6c-2.5-19.5-7.5-32.5-27.6-31.4-12.5.7-20.3 16.4-16 35.9.9 3.9 2.1 7.7 3.5 11.1.9-.9 1.7-2.1 1.7-3.5 0-3.2-2.6-17.2 1.1-25.2.8-1.6 2.6-2.4 4.4-2.2 2.3.3 5.4.7 7 1 2.2.4 6.5-1.6 9.9-3.4 2.4-1.3 5.3 0 6.2 2.6 3.3 5.9 5.5 12.3 6.5 19l.8 5.2 2.3 4.7c.6-4.3.8-8.9.2-13.8z" class="color0e2939 svgShape"></path><path fill="#319eff" d="M642.3 406.2c1.7-4 2.3-8.5 1.6-13.2-1.3-8.7-7.1-15.5-14.5-18.4-2.9-4.9-7.3-5.5-12.1-4.7-4.8.8-8.8 2.8-10.1 8.4-6.2 5.1-9.6 13.5-8.2 22.1.7 4.6 2.7 8.7 5.5 12l37.8-6.2z" class="colorffac31 svgShape"></path><path fill="#319eff" d="m641.7 413.4-25.1 4.2c-4.2.7-10.6-1.9-14.4-5.7l-.1-.1 40.3-6.7.1.1c3.8 3.8 3.4 7.5-.8 8.2z" class="colorffac31 svgShape"></path><path fill="#178ffa" d="m646.8 405-47.2 7.9c-1.3.2-2.6-.7-2.8-2.1-.7-4.4 2.2-8.5 6.4-9.3l36.6-6.1c4.2-.7 8.2 2.3 8.9 6.7.3 1.4-.6 2.7-1.9 2.9zM628.5 385.6s2.3-5.3 4.4-9.2c-1.1-.7-2.2-1.2-3.4-1.7l-1 10.9zM615.3 390.5l-8-12.4c0 .1 0 .2-.1.2-.9.8-1.7 1.6-2.5 2.5 4.1 2.9 10.6 9.7 10.6 9.7z" class="colorfa8b17 svgShape"></path></g></svg>